ISO-10303-21;
HEADER;
FILE_DESCRIPTION(('FreeCAD Model'),'2;1');
FILE_NAME('Open CASCADE Shape Model','2026-01-10T17:22:03',(''),(''),
  'Open CASCADE STEP processor 7.7','FreeCAD','Unknown');
FILE_SCHEMA(('AUTOMOTIVE_DESIGN { 1 0 10303 214 1 1 1 1 }'));
ENDSEC;
DATA;
#1 = APPLICATION_PROTOCOL_DEFINITION('international standard',
  'automotive_design',2000,#2);
#2 = APPLICATION_CONTEXT(
  'core data for automotive mechanical design processes');
#3 = SHAPE_DEFINITION_REPRESENTATION(#4,#10);
#4 = PRODUCT_DEFINITION_SHAPE('','',#5);
#5 = PRODUCT_DEFINITION('design','',#6,#9);
#6 = PRODUCT_DEFINITION_FORMATION('','',#7);
#7 = PRODUCT('electronic_compartment_lid','electronic_compartment_lid',
  '',(#8));
#8 = PRODUCT_CONTEXT('',#2,'mechanical');
#9 = PRODUCT_DEFINITION_CONTEXT('part definition',#2,'design');
#10 = ADVANCED_BREP_SHAPE_REPRESENTATION('',(#11,#15),#1782);
#11 = AXIS2_PLACEMENT_3D('',#12,#13,#14);
#12 = CARTESIAN_POINT('',(0.,0.,0.));
#13 = DIRECTION('',(0.,0.,1.));
#14 = DIRECTION('',(1.,0.,-0.));
#15 = MANIFOLD_SOLID_BREP('',#16);
#16 = CLOSED_SHELL('',(#17,#65,#96,#120,#176,#200,#338,#351,#375,#481,
    #498,#515,#532,#612,#643,#667,#691,#731,#755,#847,#871,#895,#912,
    #937,#962,#987,#1012,#1037,#1062,#1084,#1101,#1118,#1130,#1152,#1169
    ,#1186,#1198,#1210,#1290,#1310,#1330,#1350,#1370,#1390,#1410,#1435,
    #1460,#1485,#1510,#1535,#1560,#1585,#1610,#1635,#1660,#1685,#1710,
    #1722,#1734,#1746,#1758,#1770));
#17 = ADVANCED_FACE('',(#18),#60,.F.);
#18 = FACE_BOUND('',#19,.F.);
#19 = EDGE_LOOP('',(#20,#30,#38,#46,#54));
#20 = ORIENTED_EDGE('',*,*,#21,.F.);
#21 = EDGE_CURVE('',#22,#24,#26,.T.);
#22 = VERTEX_POINT('',#23);
#23 = CARTESIAN_POINT('',(17.,-103.,124.));
#24 = VERTEX_POINT('',#25);
#25 = CARTESIAN_POINT('',(17.,-103.,124.1));
#26 = LINE('',#27,#28);
#27 = CARTESIAN_POINT('',(17.,-103.,124.));
#28 = VECTOR('',#29,1.);
#29 = DIRECTION('',(-3.10862446895E-15,-4.440892098501E-16,1.));
#30 = ORIENTED_EDGE('',*,*,#31,.F.);
#31 = EDGE_CURVE('',#32,#22,#34,.T.);
#32 = VERTEX_POINT('',#33);
#33 = CARTESIAN_POINT('',(-3.488320743372E-13,-103.,124.));
#34 = LINE('',#35,#36);
#35 = CARTESIAN_POINT('',(-2.116085084936E-13,-103.,124.));
#36 = VECTOR('',#37,1.);
#37 = DIRECTION('',(1.,-2.442490654175E-15,-6.661338147751E-16));
#38 = ORIENTED_EDGE('',*,*,#39,.T.);
#39 = EDGE_CURVE('',#32,#40,#42,.T.);
#40 = VERTEX_POINT('',#41);
#41 = CARTESIAN_POINT('',(-3.628208844475E-13,-103.,131.));
#42 = LINE('',#43,#44);
#43 = CARTESIAN_POINT('',(-3.721467578544E-13,-103.,124.));
#44 = VECTOR('',#45,1.);
#45 = DIRECTION('',(-3.10862446895E-15,-4.440892098501E-16,1.));
#46 = ORIENTED_EDGE('',*,*,#47,.T.);
#47 = EDGE_CURVE('',#40,#48,#50,.T.);
#48 = VERTEX_POINT('',#49);
#49 = CARTESIAN_POINT('',(10.1,-103.,131.));
#50 = LINE('',#51,#52);
#51 = CARTESIAN_POINT('',(-2.255973186038E-13,-103.,131.));
#52 = VECTOR('',#53,1.);
#53 = DIRECTION('',(1.,-2.442490654175E-15,-6.661338147751E-16));
#54 = ORIENTED_EDGE('',*,*,#55,.F.);
#55 = EDGE_CURVE('',#24,#48,#56,.T.);
#56 = LINE('',#57,#58);
#57 = CARTESIAN_POINT('',(11.05,-103.,130.05));
#58 = VECTOR('',#59,1.);
#59 = DIRECTION('',(-0.707106781187,1.256073966947E-15,0.707106781187));
#60 = PLANE('',#61);
#61 = AXIS2_PLACEMENT_3D('',#62,#63,#64);
#62 = CARTESIAN_POINT('',(-3.721467578544E-13,-103.,124.));
#63 = DIRECTION('',(-1.110223024625E-15,1.,-2.886579864025E-15));
#64 = DIRECTION('',(1.,-2.22044604925E-15,-4.440892098501E-16));
#65 = ADVANCED_FACE('',(#66),#91,.F.);
#66 = FACE_BOUND('',#67,.F.);
#67 = EDGE_LOOP('',(#68,#69,#77,#85));
#68 = ORIENTED_EDGE('',*,*,#21,.T.);
#69 = ORIENTED_EDGE('',*,*,#70,.T.);
#70 = EDGE_CURVE('',#24,#71,#73,.T.);
#71 = VERTEX_POINT('',#72);
#72 = CARTESIAN_POINT('',(17.,-86.,124.1));
#73 = LINE('',#74,#75);
#74 = CARTESIAN_POINT('',(17.,-103.,124.1));
#75 = VECTOR('',#76,1.);
#76 = DIRECTION('',(-1.33226762955E-15,1.,-3.10862446895E-15));
#77 = ORIENTED_EDGE('',*,*,#78,.F.);
#78 = EDGE_CURVE('',#79,#71,#81,.T.);
#79 = VERTEX_POINT('',#80);
#80 = CARTESIAN_POINT('',(17.,-86.,124.));
#81 = LINE('',#82,#83);
#82 = CARTESIAN_POINT('',(17.,-86.,124.));
#83 = VECTOR('',#84,1.);
#84 = DIRECTION('',(-3.10862446895E-15,-4.440892098501E-16,1.));
#85 = ORIENTED_EDGE('',*,*,#86,.F.);
#86 = EDGE_CURVE('',#22,#79,#87,.T.);
#87 = LINE('',#88,#89);
#88 = CARTESIAN_POINT('',(17.,-103.,124.));
#89 = VECTOR('',#90,1.);
#90 = DIRECTION('',(-1.554312234475E-15,1.,-3.330669073875E-15));
#91 = PLANE('',#92);
#92 = AXIS2_PLACEMENT_3D('',#93,#94,#95);
#93 = CARTESIAN_POINT('',(17.,-103.,124.));
#94 = DIRECTION('',(-1.,1.998401444325E-15,2.22044604925E-16));
#95 = DIRECTION('',(-1.33226762955E-15,1.,-3.10862446895E-15));
#96 = ADVANCED_FACE('',(#97),#115,.F.);
#97 = FACE_BOUND('',#98,.T.);
#98 = EDGE_LOOP('',(#99,#100,#101,#109));
#99 = ORIENTED_EDGE('',*,*,#55,.F.);
#100 = ORIENTED_EDGE('',*,*,#70,.T.);
#101 = ORIENTED_EDGE('',*,*,#102,.T.);
#102 = EDGE_CURVE('',#71,#103,#105,.T.);
#103 = VERTEX_POINT('',#104);
#104 = CARTESIAN_POINT('',(10.1,-86.,131.));
#105 = LINE('',#106,#107);
#106 = CARTESIAN_POINT('',(15.3,-86.,125.8));
#107 = VECTOR('',#108,1.);
#108 = DIRECTION('',(-0.707106781187,1.256073966947E-15,0.707106781187)
  );
#109 = ORIENTED_EDGE('',*,*,#110,.F.);
#110 = EDGE_CURVE('',#48,#103,#111,.T.);
#111 = LINE('',#112,#113);
#112 = CARTESIAN_POINT('',(10.1,-103.,131.));
#113 = VECTOR('',#114,1.);
#114 = DIRECTION('',(-1.33226762955E-15,1.,-3.10862446895E-15));
#115 = PLANE('',#116);
#116 = AXIS2_PLACEMENT_3D('',#117,#118,#119);
#117 = CARTESIAN_POINT('',(13.55,-103.,127.55));
#118 = DIRECTION('',(-0.707106781187,1.884110950421E-15,-0.707106781187)
  );
#119 = DIRECTION('',(1.110223024625E-15,-1.,2.886579864025E-15));
#120 = ADVANCED_FACE('',(#121),#171,.T.);
#121 = FACE_BOUND('',#122,.T.);
#122 = EDGE_LOOP('',(#123,#131,#139,#147,#155,#163,#169,#170));
#123 = ORIENTED_EDGE('',*,*,#124,.F.);
#124 = EDGE_CURVE('',#125,#32,#127,.T.);
#125 = VERTEX_POINT('',#126);
#126 = CARTESIAN_POINT('',(-3.717026686445E-13,-110.5,124.));
#127 = LINE('',#128,#129);
#128 = CARTESIAN_POINT('',(-3.986810881429E-13,-110.5,124.));
#129 = VECTOR('',#130,1.);
#130 = DIRECTION('',(-1.998401444325E-15,1.,-4.996003610813E-15));
#131 = ORIENTED_EDGE('',*,*,#132,.T.);
#132 = EDGE_CURVE('',#125,#133,#135,.T.);
#133 = VERTEX_POINT('',#134);
#134 = CARTESIAN_POINT('',(30.,-110.5,124.));
#135 = LINE('',#136,#137);
#136 = CARTESIAN_POINT('',(-4.262110881429E-13,-110.5,124.));
#137 = VECTOR('',#138,1.);
#138 = DIRECTION('',(1.,-4.216802888651E-15,-9.992007221626E-16));
#139 = ORIENTED_EDGE('',*,*,#140,.T.);
#140 = EDGE_CURVE('',#133,#141,#143,.T.);
#141 = VERTEX_POINT('',#142);
#142 = CARTESIAN_POINT('',(30.,-29.5,124.));
#143 = LINE('',#144,#145);
#144 = CARTESIAN_POINT('',(30.,-110.5,124.));
#145 = VECTOR('',#146,1.);
#146 = DIRECTION('',(-1.998401444325E-15,1.,-4.996003610813E-15));
#147 = ORIENTED_EDGE('',*,*,#148,.F.);
#148 = EDGE_CURVE('',#149,#141,#151,.T.);
#149 = VERTEX_POINT('',#150);
#150 = CARTESIAN_POINT('',(-3.717026686445E-13,-29.5,124.));
#151 = LINE('',#152,#153);
#152 = CARTESIAN_POINT('',(-5.880816051332E-13,-29.5,124.));
#153 = VECTOR('',#154,1.);
#154 = DIRECTION('',(1.,-4.216802888651E-15,-9.992007221626E-16));
#155 = ORIENTED_EDGE('',*,*,#156,.F.);
#156 = EDGE_CURVE('',#157,#149,#159,.T.);
#157 = VERTEX_POINT('',#158);
#158 = CARTESIAN_POINT('',(-3.52606832621E-13,-86.,124.));
#159 = LINE('',#160,#161);
#160 = CARTESIAN_POINT('',(-3.986810881429E-13,-110.5,124.));
#161 = VECTOR('',#162,1.);
#162 = DIRECTION('',(-1.998401444325E-15,1.,-4.996003610813E-15));
#163 = ORIENTED_EDGE('',*,*,#164,.F.);
#164 = EDGE_CURVE('',#79,#157,#165,.T.);
#165 = LINE('',#166,#167);
#166 = CARTESIAN_POINT('',(17.,-86.,124.));
#167 = VECTOR('',#168,1.);
#168 = DIRECTION('',(-1.,2.442490654175E-15,6.661338147751E-16));
#169 = ORIENTED_EDGE('',*,*,#86,.F.);
#170 = ORIENTED_EDGE('',*,*,#31,.F.);
#171 = PLANE('',#172);
#172 = AXIS2_PLACEMENT_3D('',#173,#174,#175);
#173 = CARTESIAN_POINT('',(-4.262110881429E-13,-110.5,124.));
#174 = DIRECTION('',(-4.996003610813E-15,-7.792007221626E-16,1.));
#175 = DIRECTION('',(-1.998401444325E-15,1.,-5.216003610813E-15));
#176 = ADVANCED_FACE('',(#177),#195,.T.);
#177 = FACE_BOUND('',#178,.T.);
#178 = EDGE_LOOP('',(#179,#180,#181,#189));
#179 = ORIENTED_EDGE('',*,*,#47,.T.);
#180 = ORIENTED_EDGE('',*,*,#110,.T.);
#181 = ORIENTED_EDGE('',*,*,#182,.T.);
#182 = EDGE_CURVE('',#103,#183,#185,.T.);
#183 = VERTEX_POINT('',#184);
#184 = CARTESIAN_POINT('',(-3.665956427312E-13,-86.,131.));
#185 = LINE('',#186,#187);
#186 = CARTESIAN_POINT('',(17.,-86.,131.));
#187 = VECTOR('',#188,1.);
#188 = DIRECTION('',(-1.,2.442490654175E-15,6.661338147751E-16));
#189 = ORIENTED_EDGE('',*,*,#190,.T.);
#190 = EDGE_CURVE('',#183,#40,#191,.T.);
#191 = LINE('',#192,#193);
#192 = CARTESIAN_POINT('',(-2.520206265899E-13,-86.,131.));
#193 = VECTOR('',#194,1.);
#194 = DIRECTION('',(1.554312234475E-15,-1.,3.330669073875E-15));
#195 = PLANE('',#196);
#196 = AXIS2_PLACEMENT_3D('',#197,#198,#199);
#197 = CARTESIAN_POINT('',(8.5,-94.5,131.));
#198 = DIRECTION('',(-3.330669073875E-15,-6.661338147751E-16,1.));
#199 = DIRECTION('',(1.,-2.6645352591E-15,-6.661338147751E-16));
#200 = ADVANCED_FACE('',(#201,#251),#333,.T.);
#201 = FACE_BOUND('',#202,.T.);
#202 = EDGE_LOOP('',(#203,#211,#212,#213,#214,#220,#221,#229,#237,#245)
  );
#203 = ORIENTED_EDGE('',*,*,#204,.T.);
#204 = EDGE_CURVE('',#205,#125,#207,.T.);
#205 = VERTEX_POINT('',#206);
#206 = CARTESIAN_POINT('',(-4.654279340804E-28,-110.5,3.312350393969E-13
    ));
#207 = LINE('',#208,#209);
#208 = CARTESIAN_POINT('',(2.208233595979E-13,-110.5,5.520583989949E-13)
  );
#209 = VECTOR('',#210,1.);
#210 = DIRECTION('',(-4.996003610813E-15,-9.992007221626E-16,1.));
#211 = ORIENTED_EDGE('',*,*,#124,.T.);
#212 = ORIENTED_EDGE('',*,*,#39,.T.);
#213 = ORIENTED_EDGE('',*,*,#190,.F.);
#214 = ORIENTED_EDGE('',*,*,#215,.F.);
#215 = EDGE_CURVE('',#157,#183,#216,.T.);
#216 = LINE('',#217,#218);
#217 = CARTESIAN_POINT('',(-3.947953075567E-13,-86.,124.));
#218 = VECTOR('',#219,1.);
#219 = DIRECTION('',(-3.10862446895E-15,-4.440892098501E-16,1.));
#220 = ORIENTED_EDGE('',*,*,#156,.T.);
#221 = ORIENTED_EDGE('',*,*,#222,.T.);
#222 = EDGE_CURVE('',#149,#223,#225,.T.);
#223 = VERTEX_POINT('',#224);
#224 = CARTESIAN_POINT('',(-4.076738946424E-13,-29.5,136.));
#225 = LINE('',#226,#227);
#226 = CARTESIAN_POINT('',(-5.605516051332E-13,-29.5,124.));
#227 = VECTOR('',#228,1.);
#228 = DIRECTION('',(-4.996003610813E-15,-9.992007221626E-16,1.));
#229 = ORIENTED_EDGE('',*,*,#230,.T.);
#230 = EDGE_CURVE('',#223,#231,#233,.T.);
#231 = VERTEX_POINT('',#232);
#232 = CARTESIAN_POINT('',(-4.076738946424E-13,29.5,136.));
#233 = LINE('',#234,#235);
#234 = CARTESIAN_POINT('',(-6.20503648463E-13,-29.5,136.));
#235 = VECTOR('',#236,1.);
#236 = DIRECTION('',(-1.998401444325E-15,1.,-4.996003610813E-15));
#237 = ORIENTED_EDGE('',*,*,#238,.T.);
#238 = EDGE_CURVE('',#231,#239,#241,.T.);
#239 = VERTEX_POINT('',#240);
#240 = CARTESIAN_POINT('',(1.242455925723E-28,29.5,-8.842926391139E-14)
  );
#241 = LINE('',#242,#243);
#242 = CARTESIAN_POINT('',(-7.384093336782E-13,29.5,136.));
#243 = VECTOR('',#244,1.);
#244 = DIRECTION('',(4.996003610813E-15,9.992007221626E-16,-1.));
#245 = ORIENTED_EDGE('',*,*,#246,.T.);
#246 = EDGE_CURVE('',#239,#205,#247,.T.);
#247 = LINE('',#248,#249);
#248 = CARTESIAN_POINT('',(-5.89528426076E-14,29.5,-1.47382106519E-13));
#249 = VECTOR('',#250,1.);
#250 = DIRECTION('',(1.998401444325E-15,-1.,4.996003610813E-15));
#251 = FACE_BOUND('',#252,.T.);
#252 = EDGE_LOOP('',(#253,#263,#271,#279,#287,#295,#303,#311,#319,#327)
  );
#253 = ORIENTED_EDGE('',*,*,#254,.F.);
#254 = EDGE_CURVE('',#255,#257,#259,.T.);
#255 = VERTEX_POINT('',#256);
#256 = CARTESIAN_POINT('',(-3.610445276081E-13,-101.,122.));
#257 = VERTEX_POINT('',#258);
#258 = CARTESIAN_POINT('',(-3.867009837862E-13,-101.,129.));
#259 = LINE('',#260,#261);
#260 = CARTESIAN_POINT('',(-3.921410766068E-13,-101.,124.));
#261 = VECTOR('',#262,1.);
#262 = DIRECTION('',(-3.885780586188E-15,-3.330669073875E-16,1.));
#263 = ORIENTED_EDGE('',*,*,#264,.F.);
#264 = EDGE_CURVE('',#265,#255,#267,.T.);
#265 = VERTEX_POINT('',#266);
#266 = CARTESIAN_POINT('',(-3.657074643115E-13,-108.,122.));
#267 = LINE('',#268,#269);
#268 = CARTESIAN_POINT('',(-3.936850845321E-13,-108.,122.));
#269 = VECTOR('',#270,1.);
#270 = DIRECTION('',(-1.998401444325E-15,1.,-4.996003610813E-15));
#271 = ORIENTED_EDGE('',*,*,#272,.F.);
#272 = EDGE_CURVE('',#273,#265,#275,.T.);
#273 = VERTEX_POINT('',#274);
#274 = CARTESIAN_POINT('',(-5.995204332976E-15,-108.,2.));
#275 = LINE('',#276,#277);
#276 = CARTESIAN_POINT('',(2.058353487655E-13,-108.,2.000000000001));
#277 = VECTOR('',#278,1.);
#278 = DIRECTION('',(-4.996003610813E-15,-9.992007221626E-16,1.));
#279 = ORIENTED_EDGE('',*,*,#280,.F.);
#280 = EDGE_CURVE('',#281,#273,#283,.T.);
#281 = VERTEX_POINT('',#282);
#282 = CARTESIAN_POINT('',(-5.995204332976E-15,27.,2.));
#283 = LINE('',#284,#285);
#284 = CARTESIAN_POINT('',(-6.394884621841E-14,27.,2.));
#285 = VECTOR('',#286,1.);
#286 = DIRECTION('',(1.998401444325E-15,-1.,4.996003610813E-15));
#287 = ORIENTED_EDGE('',*,*,#288,.F.);
#288 = EDGE_CURVE('',#289,#281,#291,.T.);
#289 = VERTEX_POINT('',#290);
#290 = CARTESIAN_POINT('',(-4.016786903094E-13,27.,134.));
#291 = LINE('',#292,#293);
#292 = CARTESIAN_POINT('',(-7.234213228458E-13,27.,134.));
#293 = VECTOR('',#294,1.);
#294 = DIRECTION('',(4.996003610813E-15,9.992007221626E-16,-1.));
#295 = ORIENTED_EDGE('',*,*,#296,.F.);
#296 = EDGE_CURVE('',#297,#289,#299,.T.);
#297 = VERTEX_POINT('',#298);
#298 = CARTESIAN_POINT('',(-4.016786903094E-13,-27.,134.));
#299 = LINE('',#300,#301);
#300 = CARTESIAN_POINT('',(-6.155076448522E-13,-27.,134.));
#301 = VECTOR('',#302,1.);
#302 = DIRECTION('',(-1.998401444325E-15,1.,-4.996003610813E-15));
#303 = ORIENTED_EDGE('',*,*,#304,.F.);
#304 = EDGE_CURVE('',#305,#297,#307,.T.);
#305 = VERTEX_POINT('',#306);
#306 = CARTESIAN_POINT('',(-3.657074643115E-13,-27.,122.));
#307 = LINE('',#308,#309);
#308 = CARTESIAN_POINT('',(-5.555556015224E-13,-27.,122.));
#309 = VECTOR('',#310,1.);
#310 = DIRECTION('',(-4.996003610813E-15,-9.992007221626E-16,1.));
#311 = ORIENTED_EDGE('',*,*,#312,.F.);
#312 = EDGE_CURVE('',#313,#305,#315,.T.);
#313 = VERTEX_POINT('',#314);
#314 = CARTESIAN_POINT('',(-3.581579477441E-13,-88.,122.));
#315 = LINE('',#316,#317);
#316 = CARTESIAN_POINT('',(-3.936850845321E-13,-108.,122.));
#317 = VECTOR('',#318,1.);
#318 = DIRECTION('',(-1.998401444325E-15,1.,-4.996003610813E-15));
#319 = ORIENTED_EDGE('',*,*,#320,.T.);
#320 = EDGE_CURVE('',#313,#321,#323,.T.);
#321 = VERTEX_POINT('',#322);
#322 = CARTESIAN_POINT('',(-3.867009837862E-13,-88.,129.));
#323 = LINE('',#324,#325);
#324 = CARTESIAN_POINT('',(-3.883560140139E-13,-88.,122.));
#325 = VECTOR('',#326,1.);
#326 = DIRECTION('',(-3.219646771413E-15,-1.110223024625E-16,1.));
#327 = ORIENTED_EDGE('',*,*,#328,.F.);
#328 = EDGE_CURVE('',#257,#321,#329,.T.);
#329 = LINE('',#330,#331);
#330 = CARTESIAN_POINT('',(-4.177872284757E-13,-101.,129.));
#331 = VECTOR('',#332,1.);
#332 = DIRECTION('',(-1.110223024625E-15,1.,-2.775557561563E-15));
#333 = PLANE('',#334);
#334 = AXIS2_PLACEMENT_3D('',#335,#336,#337);
#335 = CARTESIAN_POINT('',(-2.332007771027E-13,-40.1183745583,
    67.964664310955));
#336 = DIRECTION('',(-1.,2.22044604925E-15,-7.557310982483E-16));
#337 = DIRECTION('',(4.086400172124E-15,4.440892098501E-16,-1.));
#338 = ADVANCED_FACE('',(#339),#346,.F.);
#339 = FACE_BOUND('',#340,.F.);
#340 = EDGE_LOOP('',(#341,#342,#343,#344,#345));
#341 = ORIENTED_EDGE('',*,*,#78,.T.);
#342 = ORIENTED_EDGE('',*,*,#102,.T.);
#343 = ORIENTED_EDGE('',*,*,#182,.T.);
#344 = ORIENTED_EDGE('',*,*,#215,.F.);
#345 = ORIENTED_EDGE('',*,*,#164,.F.);
#346 = PLANE('',#347);
#347 = AXIS2_PLACEMENT_3D('',#348,#349,#350);
#348 = CARTESIAN_POINT('',(17.,-86.,124.));
#349 = DIRECTION('',(1.110223024625E-15,-1.,2.886579864025E-15));
#350 = DIRECTION('',(-1.,2.22044604925E-15,4.440892098501E-16));
#351 = ADVANCED_FACE('',(#352),#370,.T.);
#352 = FACE_BOUND('',#353,.T.);
#353 = EDGE_LOOP('',(#354,#355,#363,#369));
#354 = ORIENTED_EDGE('',*,*,#148,.T.);
#355 = ORIENTED_EDGE('',*,*,#356,.T.);
#356 = EDGE_CURVE('',#141,#357,#359,.T.);
#357 = VERTEX_POINT('',#358);
#358 = CARTESIAN_POINT('',(30.,-29.5,136.));
#359 = LINE('',#360,#361);
#360 = CARTESIAN_POINT('',(30.,-29.5,124.));
#361 = VECTOR('',#362,1.);
#362 = DIRECTION('',(-4.996003610813E-15,-9.992007221626E-16,1.));
#363 = ORIENTED_EDGE('',*,*,#364,.F.);
#364 = EDGE_CURVE('',#223,#357,#365,.T.);
#365 = LINE('',#366,#367);
#366 = CARTESIAN_POINT('',(-6.50703648463E-13,-29.5,136.));
#367 = VECTOR('',#368,1.);
#368 = DIRECTION('',(1.,-4.216802888651E-15,-9.992007221626E-16));
#369 = ORIENTED_EDGE('',*,*,#222,.F.);
#370 = PLANE('',#371);
#371 = AXIS2_PLACEMENT_3D('',#372,#373,#374);
#372 = CARTESIAN_POINT('',(-5.880816051332E-13,-29.5,124.));
#373 = DIRECTION('',(1.778401444325E-15,-1.,4.996003610813E-15));
#374 = DIRECTION('',(-5.216003610813E-15,-9.992007221626E-16,1.));
#375 = ADVANCED_FACE('',(#376,#410,#421,#432,#443,#454,#465),#476,.T.);
#376 = FACE_BOUND('',#377,.T.);
#377 = EDGE_LOOP('',(#378,#386,#394,#402,#408,#409));
#378 = ORIENTED_EDGE('',*,*,#379,.F.);
#379 = EDGE_CURVE('',#380,#133,#382,.T.);
#380 = VERTEX_POINT('',#381);
#381 = CARTESIAN_POINT('',(30.,-110.5,3.612110610618E-13));
#382 = LINE('',#383,#384);
#383 = CARTESIAN_POINT('',(30.,-110.5,4.050093593833E-13));
#384 = VECTOR('',#385,1.);
#385 = DIRECTION('',(-4.996003610813E-15,-9.992007221626E-16,1.));
#386 = ORIENTED_EDGE('',*,*,#387,.F.);
#387 = EDGE_CURVE('',#388,#380,#390,.T.);
#388 = VERTEX_POINT('',#389);
#389 = CARTESIAN_POINT('',(30.,29.5,-5.845324224651E-14));
#390 = LINE('',#391,#392);
#391 = CARTESIAN_POINT('',(30.,29.5,-2.984279490192E-13));
#392 = VECTOR('',#393,1.);
#393 = DIRECTION('',(1.998401444325E-15,-1.,4.996003610813E-15));
#394 = ORIENTED_EDGE('',*,*,#395,.F.);
#395 = EDGE_CURVE('',#396,#388,#398,.T.);
#396 = VERTEX_POINT('',#397);
#397 = CARTESIAN_POINT('',(30.,29.5,136.));
#398 = LINE('',#399,#400);
#399 = CARTESIAN_POINT('',(29.999999999999,29.5,136.));
#400 = VECTOR('',#401,1.);
#401 = DIRECTION('',(4.996003610813E-15,9.992007221626E-16,-1.));
#402 = ORIENTED_EDGE('',*,*,#403,.F.);
#403 = EDGE_CURVE('',#357,#396,#404,.T.);
#404 = LINE('',#405,#406);
#405 = CARTESIAN_POINT('',(30.,-29.5,136.));
#406 = VECTOR('',#407,1.);
#407 = DIRECTION('',(-1.998401444325E-15,1.,-4.996003610813E-15));
#408 = ORIENTED_EDGE('',*,*,#356,.F.);
#409 = ORIENTED_EDGE('',*,*,#140,.F.);
#410 = FACE_BOUND('',#411,.T.);
#411 = EDGE_LOOP('',(#412));
#412 = ORIENTED_EDGE('',*,*,#413,.F.);
#413 = EDGE_CURVE('',#414,#414,#416,.T.);
#414 = VERTEX_POINT('',#415);
#415 = CARTESIAN_POINT('',(30.,18.75,15.));
#416 = CIRCLE('',#417,3.75);
#417 = AXIS2_PLACEMENT_3D('',#418,#419,#420);
#418 = CARTESIAN_POINT('',(30.,15.,15.));
#419 = DIRECTION('',(1.,-6.661338147751E-16,1.665334536938E-15));
#420 = DIRECTION('',(6.661338147751E-16,1.,-1.665334536938E-15));
#421 = FACE_BOUND('',#422,.T.);
#422 = EDGE_LOOP('',(#423));
#423 = ORIENTED_EDGE('',*,*,#424,.F.);
#424 = EDGE_CURVE('',#425,#425,#427,.T.);
#425 = VERTEX_POINT('',#426);
#426 = CARTESIAN_POINT('',(30.,-11.25,15.));
#427 = CIRCLE('',#428,3.75);
#428 = AXIS2_PLACEMENT_3D('',#429,#430,#431);
#429 = CARTESIAN_POINT('',(30.,-15.,15.));
#430 = DIRECTION('',(1.,-6.661338147751E-16,1.665334536938E-15));
#431 = DIRECTION('',(6.661338147751E-16,1.,-1.665334536938E-15));
#432 = FACE_BOUND('',#433,.T.);
#433 = EDGE_LOOP('',(#434));
#434 = ORIENTED_EDGE('',*,*,#435,.F.);
#435 = EDGE_CURVE('',#436,#436,#438,.T.);
#436 = VERTEX_POINT('',#437);
#437 = CARTESIAN_POINT('',(30.,18.75,105.));
#438 = CIRCLE('',#439,3.75);
#439 = AXIS2_PLACEMENT_3D('',#440,#441,#442);
#440 = CARTESIAN_POINT('',(30.,15.,105.));
#441 = DIRECTION('',(1.,-6.661338147751E-16,1.665334536938E-15));
#442 = DIRECTION('',(6.661338147751E-16,1.,-1.665334536938E-15));
#443 = FACE_BOUND('',#444,.T.);
#444 = EDGE_LOOP('',(#445));
#445 = ORIENTED_EDGE('',*,*,#446,.F.);
#446 = EDGE_CURVE('',#447,#447,#449,.T.);
#447 = VERTEX_POINT('',#448);
#448 = CARTESIAN_POINT('',(30.,-41.25,15.));
#449 = CIRCLE('',#450,3.75);
#450 = AXIS2_PLACEMENT_3D('',#451,#452,#453);
#451 = CARTESIAN_POINT('',(30.,-45.,15.));
#452 = DIRECTION('',(1.,-6.661338147751E-16,1.665334536938E-15));
#453 = DIRECTION('',(6.661338147751E-16,1.,-1.665334536938E-15));
#454 = FACE_BOUND('',#455,.T.);
#455 = EDGE_LOOP('',(#456));
#456 = ORIENTED_EDGE('',*,*,#457,.F.);
#457 = EDGE_CURVE('',#458,#458,#460,.T.);
#458 = VERTEX_POINT('',#459);
#459 = CARTESIAN_POINT('',(30.,-11.25,105.));
#460 = CIRCLE('',#461,3.75);
#461 = AXIS2_PLACEMENT_3D('',#462,#463,#464);
#462 = CARTESIAN_POINT('',(30.,-15.,105.));
#463 = DIRECTION('',(1.,-6.661338147751E-16,1.665334536938E-15));
#464 = DIRECTION('',(6.661338147751E-16,1.,-1.665334536938E-15));
#465 = FACE_BOUND('',#466,.T.);
#466 = EDGE_LOOP('',(#467));
#467 = ORIENTED_EDGE('',*,*,#468,.F.);
#468 = EDGE_CURVE('',#469,#469,#471,.T.);
#469 = VERTEX_POINT('',#470);
#470 = CARTESIAN_POINT('',(30.,-41.25,105.));
#471 = CIRCLE('',#472,3.75);
#472 = AXIS2_PLACEMENT_3D('',#473,#474,#475);
#473 = CARTESIAN_POINT('',(30.,-45.,105.));
#474 = DIRECTION('',(1.,-6.661338147751E-16,1.665334536938E-15));
#475 = DIRECTION('',(6.661338147751E-16,1.,-1.665334536938E-15));
#476 = PLANE('',#477);
#477 = AXIS2_PLACEMENT_3D('',#478,#479,#480);
#478 = CARTESIAN_POINT('',(30.,-38.73913043478,66.239130434783));
#479 = DIRECTION('',(1.,-3.996802888651E-15,-9.992007221626E-16));
#480 = DIRECTION('',(-4.996003610813E-15,-9.992007221626E-16,1.));
#481 = ADVANCED_FACE('',(#482),#493,.T.);
#482 = FACE_BOUND('',#483,.T.);
#483 = EDGE_LOOP('',(#484,#490,#491,#492));
#484 = ORIENTED_EDGE('',*,*,#485,.T.);
#485 = EDGE_CURVE('',#205,#380,#486,.T.);
#486 = LINE('',#487,#488);
#487 = CARTESIAN_POINT('',(2.208233595979E-13,-110.5,5.765983989949E-13)
  );
#488 = VECTOR('',#489,1.);
#489 = DIRECTION('',(1.,-4.216802888651E-15,-9.992007221626E-16));
#490 = ORIENTED_EDGE('',*,*,#379,.T.);
#491 = ORIENTED_EDGE('',*,*,#132,.F.);
#492 = ORIENTED_EDGE('',*,*,#204,.F.);
#493 = PLANE('',#494);
#494 = AXIS2_PLACEMENT_3D('',#495,#496,#497);
#495 = CARTESIAN_POINT('',(2.208233595979E-13,-110.5,5.765983989949E-13)
  );
#496 = DIRECTION('',(1.778401444325E-15,-1.,4.996003610813E-15));
#497 = DIRECTION('',(-5.216003610813E-15,-9.992007221626E-16,1.));
#498 = ADVANCED_FACE('',(#499),#510,.T.);
#499 = FACE_BOUND('',#500,.T.);
#500 = EDGE_LOOP('',(#501,#507,#508,#509));
#501 = ORIENTED_EDGE('',*,*,#502,.T.);
#502 = EDGE_CURVE('',#239,#388,#503,.T.);
#503 = LINE('',#504,#505);
#504 = CARTESIAN_POINT('',(-5.89528426076E-14,29.5,-1.53932106519E-13));
#505 = VECTOR('',#506,1.);
#506 = DIRECTION('',(1.,-4.216802888651E-15,-9.992007221626E-16));
#507 = ORIENTED_EDGE('',*,*,#387,.T.);
#508 = ORIENTED_EDGE('',*,*,#485,.F.);
#509 = ORIENTED_EDGE('',*,*,#246,.F.);
#510 = PLANE('',#511);
#511 = AXIS2_PLACEMENT_3D('',#512,#513,#514);
#512 = CARTESIAN_POINT('',(-5.89528426076E-14,29.5,-1.53932106519E-13));
#513 = DIRECTION('',(4.996003610813E-15,7.792007221626E-16,-1.));
#514 = DIRECTION('',(1.998401444325E-15,-1.,5.216003610813E-15));
#515 = ADVANCED_FACE('',(#516),#527,.T.);
#516 = FACE_BOUND('',#517,.T.);
#517 = EDGE_LOOP('',(#518,#524,#525,#526));
#518 = ORIENTED_EDGE('',*,*,#519,.T.);
#519 = EDGE_CURVE('',#231,#396,#520,.T.);
#520 = LINE('',#521,#522);
#521 = CARTESIAN_POINT('',(-7.686093336782E-13,29.5,136.));
#522 = VECTOR('',#523,1.);
#523 = DIRECTION('',(1.,-4.216802888651E-15,-9.992007221626E-16));
#524 = ORIENTED_EDGE('',*,*,#395,.T.);
#525 = ORIENTED_EDGE('',*,*,#502,.F.);
#526 = ORIENTED_EDGE('',*,*,#238,.F.);
#527 = PLANE('',#528);
#528 = AXIS2_PLACEMENT_3D('',#529,#530,#531);
#529 = CARTESIAN_POINT('',(-7.686093336782E-13,29.5,136.));
#530 = DIRECTION('',(-1.778401444325E-15,1.,-4.996003610813E-15));
#531 = DIRECTION('',(5.216003610813E-15,9.992007221626E-16,-1.));
#532 = ADVANCED_FACE('',(#533,#539,#573),#607,.T.);
#533 = FACE_BOUND('',#534,.T.);
#534 = EDGE_LOOP('',(#535,#536,#537,#538));
#535 = ORIENTED_EDGE('',*,*,#364,.T.);
#536 = ORIENTED_EDGE('',*,*,#403,.T.);
#537 = ORIENTED_EDGE('',*,*,#519,.F.);
#538 = ORIENTED_EDGE('',*,*,#230,.F.);
#539 = FACE_BOUND('',#540,.T.);
#540 = EDGE_LOOP('',(#541,#551,#559,#567));
#541 = ORIENTED_EDGE('',*,*,#542,.F.);
#542 = EDGE_CURVE('',#543,#545,#547,.T.);
#543 = VERTEX_POINT('',#544);
#544 = CARTESIAN_POINT('',(19.,-5.,136.));
#545 = VERTEX_POINT('',#546);
#546 = CARTESIAN_POINT('',(10.,-5.,136.));
#547 = LINE('',#548,#549);
#548 = CARTESIAN_POINT('',(19.,-5.,136.));
#549 = VECTOR('',#550,1.);
#550 = DIRECTION('',(-1.,2.22044604925E-16,-2.553512956638E-15));
#551 = ORIENTED_EDGE('',*,*,#552,.F.);
#552 = EDGE_CURVE('',#553,#543,#555,.T.);
#553 = VERTEX_POINT('',#554);
#554 = CARTESIAN_POINT('',(19.,-19.,136.));
#555 = LINE('',#556,#557);
#556 = CARTESIAN_POINT('',(19.,-19.,136.));
#557 = VECTOR('',#558,1.);
#558 = DIRECTION('',(-4.440892098501E-16,1.,-1.663289932013E-15));
#559 = ORIENTED_EDGE('',*,*,#560,.F.);
#560 = EDGE_CURVE('',#561,#553,#563,.T.);
#561 = VERTEX_POINT('',#562);
#562 = CARTESIAN_POINT('',(10.,-19.,136.));
#563 = LINE('',#564,#565);
#564 = CARTESIAN_POINT('',(10.,-19.,136.));
#565 = VECTOR('',#566,1.);
#566 = DIRECTION('',(1.,-2.22044604925E-16,2.553512956638E-15));
#567 = ORIENTED_EDGE('',*,*,#568,.F.);
#568 = EDGE_CURVE('',#545,#561,#569,.T.);
#569 = LINE('',#570,#571);
#570 = CARTESIAN_POINT('',(10.,-5.,136.));
#571 = VECTOR('',#572,1.);
#572 = DIRECTION('',(4.440892098501E-16,-1.,1.663289932013E-15));
#573 = FACE_BOUND('',#574,.T.);
#574 = EDGE_LOOP('',(#575,#585,#593,#601));
#575 = ORIENTED_EDGE('',*,*,#576,.F.);
#576 = EDGE_CURVE('',#577,#579,#581,.T.);
#577 = VERTEX_POINT('',#578);
#578 = CARTESIAN_POINT('',(20.6,20.,136.));
#579 = VERTEX_POINT('',#580);
#580 = CARTESIAN_POINT('',(8.6,20.,136.));
#581 = LINE('',#582,#583);
#582 = CARTESIAN_POINT('',(20.6,20.,136.));
#583 = VECTOR('',#584,1.);
#584 = DIRECTION('',(-1.,2.22044604925E-16,-2.553512956638E-15));
#585 = ORIENTED_EDGE('',*,*,#586,.F.);
#586 = EDGE_CURVE('',#587,#577,#589,.T.);
#587 = VERTEX_POINT('',#588);
#588 = CARTESIAN_POINT('',(20.6,10.,136.));
#589 = LINE('',#590,#591);
#590 = CARTESIAN_POINT('',(20.6,10.,136.));
#591 = VECTOR('',#592,1.);
#592 = DIRECTION('',(-4.440892098501E-16,1.,-1.663289932013E-15));
#593 = ORIENTED_EDGE('',*,*,#594,.F.);
#594 = EDGE_CURVE('',#595,#587,#597,.T.);
#595 = VERTEX_POINT('',#596);
#596 = CARTESIAN_POINT('',(8.6,10.,136.));
#597 = LINE('',#598,#599);
#598 = CARTESIAN_POINT('',(8.6,10.,136.));
#599 = VECTOR('',#600,1.);
#600 = DIRECTION('',(1.,-2.22044604925E-16,2.553512956638E-15));
#601 = ORIENTED_EDGE('',*,*,#602,.F.);
#602 = EDGE_CURVE('',#579,#595,#603,.T.);
#603 = LINE('',#604,#605);
#604 = CARTESIAN_POINT('',(8.6,20.,136.));
#605 = VECTOR('',#606,1.);
#606 = DIRECTION('',(4.440892098501E-16,-1.,1.663289932013E-15));
#607 = PLANE('',#608);
#608 = AXIS2_PLACEMENT_3D('',#609,#610,#611);
#609 = CARTESIAN_POINT('',(-6.50703648463E-13,-29.5,136.));
#610 = DIRECTION('',(-4.996003610813E-15,-7.792007221626E-16,1.));
#611 = DIRECTION('',(-1.998401444325E-15,1.,-5.216003610813E-15));
#612 = ADVANCED_FACE('',(#613),#638,.T.);
#613 = FACE_BOUND('',#614,.T.);
#614 = EDGE_LOOP('',(#615,#623,#624,#632));
#615 = ORIENTED_EDGE('',*,*,#616,.T.);
#616 = EDGE_CURVE('',#617,#255,#619,.T.);
#617 = VERTEX_POINT('',#618);
#618 = CARTESIAN_POINT('',(10.,-101.,122.));
#619 = LINE('',#620,#621);
#620 = CARTESIAN_POINT('',(10.,-101.,122.));
#621 = VECTOR('',#622,1.);
#622 = DIRECTION('',(-1.,3.330669073875E-15,7.771561172376E-16));
#623 = ORIENTED_EDGE('',*,*,#254,.T.);
#624 = ORIENTED_EDGE('',*,*,#625,.T.);
#625 = EDGE_CURVE('',#257,#626,#628,.T.);
#626 = VERTEX_POINT('',#627);
#627 = CARTESIAN_POINT('',(10.,-101.,129.));
#628 = LINE('',#629,#630);
#629 = CARTESIAN_POINT('',(-4.115699795378E-13,-101.,129.));
#630 = VECTOR('',#631,1.);
#631 = DIRECTION('',(1.,-1.998401444325E-15,9.992007221626E-16));
#632 = ORIENTED_EDGE('',*,*,#633,.F.);
#633 = EDGE_CURVE('',#617,#626,#634,.T.);
#634 = LINE('',#635,#636);
#635 = CARTESIAN_POINT('',(10.,-101.,124.));
#636 = VECTOR('',#637,1.);
#637 = DIRECTION('',(-3.885780586188E-15,-3.330669073875E-16,1.));
#638 = PLANE('',#639);
#639 = AXIS2_PLACEMENT_3D('',#640,#641,#642);
#640 = CARTESIAN_POINT('',(5.,-101.,125.5));
#641 = DIRECTION('',(-4.702121045471E-16,1.,2.487508355463E-15));
#642 = DIRECTION('',(-2.331468351713E-15,-5.152043614563E-15,1.));
#643 = ADVANCED_FACE('',(#644),#662,.F.);
#644 = FACE_BOUND('',#645,.F.);
#645 = EDGE_LOOP('',(#646,#647,#655,#661));
#646 = ORIENTED_EDGE('',*,*,#625,.T.);
#647 = ORIENTED_EDGE('',*,*,#648,.T.);
#648 = EDGE_CURVE('',#626,#649,#651,.T.);
#649 = VERTEX_POINT('',#650);
#650 = CARTESIAN_POINT('',(10.,-88.,129.));
#651 = LINE('',#652,#653);
#652 = CARTESIAN_POINT('',(10.,-101.,129.));
#653 = VECTOR('',#654,1.);
#654 = DIRECTION('',(-1.110223024625E-15,1.,-2.775557561563E-15));
#655 = ORIENTED_EDGE('',*,*,#656,.F.);
#656 = EDGE_CURVE('',#321,#649,#657,.T.);
#657 = LINE('',#658,#659);
#658 = CARTESIAN_POINT('',(-4.231162989939E-13,-88.,129.));
#659 = VECTOR('',#660,1.);
#660 = DIRECTION('',(1.,-1.998401444325E-15,9.992007221626E-16));
#661 = ORIENTED_EDGE('',*,*,#328,.F.);
#662 = PLANE('',#663);
#663 = AXIS2_PLACEMENT_3D('',#664,#665,#666);
#664 = CARTESIAN_POINT('',(-4.115699795378E-13,-101.,129.));
#665 = DIRECTION('',(-3.663735981263E-15,-1.110223024625E-16,1.));
#666 = DIRECTION('',(-8.881784197001E-16,1.,-2.553512956638E-15));
#667 = ADVANCED_FACE('',(#668),#686,.T.);
#668 = FACE_BOUND('',#669,.T.);
#669 = EDGE_LOOP('',(#670,#671,#672,#680));
#670 = ORIENTED_EDGE('',*,*,#656,.F.);
#671 = ORIENTED_EDGE('',*,*,#320,.F.);
#672 = ORIENTED_EDGE('',*,*,#673,.T.);
#673 = EDGE_CURVE('',#313,#674,#676,.T.);
#674 = VERTEX_POINT('',#675);
#675 = CARTESIAN_POINT('',(10.,-88.,122.));
#676 = LINE('',#677,#678);
#677 = CARTESIAN_POINT('',(-2.213784711103E-13,-88.,122.));
#678 = VECTOR('',#679,1.);
#679 = DIRECTION('',(1.,-3.330669073875E-15,-7.771561172376E-16));
#680 = ORIENTED_EDGE('',*,*,#681,.T.);
#681 = EDGE_CURVE('',#674,#649,#682,.T.);
#682 = LINE('',#683,#684);
#683 = CARTESIAN_POINT('',(10.,-88.,122.));
#684 = VECTOR('',#685,1.);
#685 = DIRECTION('',(-3.219646771413E-15,-1.110223024625E-16,1.));
#686 = PLANE('',#687);
#687 = AXIS2_PLACEMENT_3D('',#688,#689,#690);
#688 = CARTESIAN_POINT('',(5.,-88.,125.5));
#689 = DIRECTION('',(4.702121045471E-16,-1.,-2.487508355463E-15));
#690 = DIRECTION('',(2.331468351713E-15,5.152043614563E-15,-1.));
#691 = ADVANCED_FACE('',(#692),#726,.F.);
#692 = FACE_BOUND('',#693,.F.);
#693 = EDGE_LOOP('',(#694,#695,#703,#711,#717,#718,#719,#725));
#694 = ORIENTED_EDGE('',*,*,#264,.F.);
#695 = ORIENTED_EDGE('',*,*,#696,.T.);
#696 = EDGE_CURVE('',#265,#697,#699,.T.);
#697 = VERTEX_POINT('',#698);
#698 = CARTESIAN_POINT('',(27.,-108.,122.));
#699 = LINE('',#700,#701);
#700 = CARTESIAN_POINT('',(-3.905764600631E-13,-108.,122.));
#701 = VECTOR('',#702,1.);
#702 = DIRECTION('',(1.,-3.774758283726E-15,-7.771561172376E-16));
#703 = ORIENTED_EDGE('',*,*,#704,.T.);
#704 = EDGE_CURVE('',#697,#705,#707,.T.);
#705 = VERTEX_POINT('',#706);
#706 = CARTESIAN_POINT('',(27.,-27.,122.));
#707 = LINE('',#708,#709);
#708 = CARTESIAN_POINT('',(27.,-108.,122.));
#709 = VECTOR('',#710,1.);
#710 = DIRECTION('',(-1.998401444325E-15,1.,-4.996003610813E-15));
#711 = ORIENTED_EDGE('',*,*,#712,.F.);
#712 = EDGE_CURVE('',#305,#705,#713,.T.);
#713 = LINE('',#714,#715);
#714 = CARTESIAN_POINT('',(-5.344613640546E-13,-27.,122.));
#715 = VECTOR('',#716,1.);
#716 = DIRECTION('',(1.,-3.774758283726E-15,-7.771561172376E-16));
#717 = ORIENTED_EDGE('',*,*,#312,.F.);
#718 = ORIENTED_EDGE('',*,*,#673,.T.);
#719 = ORIENTED_EDGE('',*,*,#720,.T.);
#720 = EDGE_CURVE('',#674,#617,#721,.T.);
#721 = LINE('',#722,#723);
#722 = CARTESIAN_POINT('',(10.,-88.,122.));
#723 = VECTOR('',#724,1.);
#724 = DIRECTION('',(1.33226762955E-15,-1.,3.885780586188E-15));
#725 = ORIENTED_EDGE('',*,*,#616,.T.);
#726 = PLANE('',#727);
#727 = AXIS2_PLACEMENT_3D('',#728,#729,#730);
#728 = CARTESIAN_POINT('',(-3.905764600631E-13,-108.,122.));
#729 = DIRECTION('',(-4.551914400963E-15,-5.551115123126E-16,1.));
#730 = DIRECTION('',(-1.7763568394E-15,1.,-4.773959005888E-15));
#731 = ADVANCED_FACE('',(#732),#750,.F.);
#732 = FACE_BOUND('',#733,.F.);
#733 = EDGE_LOOP('',(#734,#735,#743,#749));
#734 = ORIENTED_EDGE('',*,*,#712,.T.);
#735 = ORIENTED_EDGE('',*,*,#736,.T.);
#736 = EDGE_CURVE('',#705,#737,#739,.T.);
#737 = VERTEX_POINT('',#738);
#738 = CARTESIAN_POINT('',(27.,-27.,134.));
#739 = LINE('',#740,#741);
#740 = CARTESIAN_POINT('',(27.,-27.,122.));
#741 = VECTOR('',#742,1.);
#742 = DIRECTION('',(-4.996003610813E-15,-9.992007221626E-16,1.));
#743 = ORIENTED_EDGE('',*,*,#744,.F.);
#744 = EDGE_CURVE('',#297,#737,#745,.T.);
#745 = LINE('',#746,#747);
#746 = CARTESIAN_POINT('',(-5.917488721252E-13,-27.,134.));
#747 = VECTOR('',#748,1.);
#748 = DIRECTION('',(1.,-3.774758283726E-15,-7.771561172376E-16));
#749 = ORIENTED_EDGE('',*,*,#304,.F.);
#750 = PLANE('',#751);
#751 = AXIS2_PLACEMENT_3D('',#752,#753,#754);
#752 = CARTESIAN_POINT('',(-5.344613640546E-13,-27.,122.));
#753 = DIRECTION('',(1.554312234475E-15,-1.,4.551914400963E-15));
#754 = DIRECTION('',(-4.773959005888E-15,-7.771561172376E-16,1.));
#755 = ADVANCED_FACE('',(#756,#774,#808),#842,.F.);
#756 = FACE_BOUND('',#757,.F.);
#757 = EDGE_LOOP('',(#758,#759,#767,#773));
#758 = ORIENTED_EDGE('',*,*,#744,.T.);
#759 = ORIENTED_EDGE('',*,*,#760,.T.);
#760 = EDGE_CURVE('',#737,#761,#763,.T.);
#761 = VERTEX_POINT('',#762);
#762 = CARTESIAN_POINT('',(27.,27.,134.));
#763 = LINE('',#764,#765);
#764 = CARTESIAN_POINT('',(27.,-27.,134.));
#765 = VECTOR('',#766,1.);
#766 = DIRECTION('',(-1.998401444325E-15,1.,-4.996003610813E-15));
#767 = ORIENTED_EDGE('',*,*,#768,.F.);
#768 = EDGE_CURVE('',#289,#761,#769,.T.);
#769 = LINE('',#770,#771);
#770 = CARTESIAN_POINT('',(-6.876721414528E-13,27.,134.));
#771 = VECTOR('',#772,1.);
#772 = DIRECTION('',(1.,-3.774758283726E-15,-7.771561172376E-16));
#773 = ORIENTED_EDGE('',*,*,#296,.F.);
#774 = FACE_BOUND('',#775,.F.);
#775 = EDGE_LOOP('',(#776,#786,#794,#802));
#776 = ORIENTED_EDGE('',*,*,#777,.F.);
#777 = EDGE_CURVE('',#778,#780,#782,.T.);
#778 = VERTEX_POINT('',#779);
#779 = CARTESIAN_POINT('',(19.,-5.,134.));
#780 = VERTEX_POINT('',#781);
#781 = CARTESIAN_POINT('',(10.,-5.,134.));
#782 = LINE('',#783,#784);
#783 = CARTESIAN_POINT('',(19.,-5.,134.));
#784 = VECTOR('',#785,1.);
#785 = DIRECTION('',(-1.,2.22044604925E-16,-2.553512956638E-15));
#786 = ORIENTED_EDGE('',*,*,#787,.F.);
#787 = EDGE_CURVE('',#788,#778,#790,.T.);
#788 = VERTEX_POINT('',#789);
#789 = CARTESIAN_POINT('',(19.,-19.,134.));
#790 = LINE('',#791,#792);
#791 = CARTESIAN_POINT('',(19.,-19.,134.));
#792 = VECTOR('',#793,1.);
#793 = DIRECTION('',(-4.440892098501E-16,1.,-1.663289932013E-15));
#794 = ORIENTED_EDGE('',*,*,#795,.F.);
#795 = EDGE_CURVE('',#796,#788,#798,.T.);
#796 = VERTEX_POINT('',#797);
#797 = CARTESIAN_POINT('',(10.,-19.,134.));
#798 = LINE('',#799,#800);
#799 = CARTESIAN_POINT('',(10.,-19.,134.));
#800 = VECTOR('',#801,1.);
#801 = DIRECTION('',(1.,-2.22044604925E-16,2.553512956638E-15));
#802 = ORIENTED_EDGE('',*,*,#803,.F.);
#803 = EDGE_CURVE('',#780,#796,#804,.T.);
#804 = LINE('',#805,#806);
#805 = CARTESIAN_POINT('',(10.,-5.,134.));
#806 = VECTOR('',#807,1.);
#807 = DIRECTION('',(4.440892098501E-16,-1.,1.663289932013E-15));
#808 = FACE_BOUND('',#809,.F.);
#809 = EDGE_LOOP('',(#810,#820,#828,#836));
#810 = ORIENTED_EDGE('',*,*,#811,.F.);
#811 = EDGE_CURVE('',#812,#814,#816,.T.);
#812 = VERTEX_POINT('',#813);
#813 = CARTESIAN_POINT('',(20.6,20.,134.));
#814 = VERTEX_POINT('',#815);
#815 = CARTESIAN_POINT('',(8.6,20.,134.));
#816 = LINE('',#817,#818);
#817 = CARTESIAN_POINT('',(20.6,20.,134.));
#818 = VECTOR('',#819,1.);
#819 = DIRECTION('',(-1.,2.22044604925E-16,-2.553512956638E-15));
#820 = ORIENTED_EDGE('',*,*,#821,.F.);
#821 = EDGE_CURVE('',#822,#812,#824,.T.);
#822 = VERTEX_POINT('',#823);
#823 = CARTESIAN_POINT('',(20.6,10.,134.));
#824 = LINE('',#825,#826);
#825 = CARTESIAN_POINT('',(20.6,10.,134.));
#826 = VECTOR('',#827,1.);
#827 = DIRECTION('',(-4.440892098501E-16,1.,-1.663289932013E-15));
#828 = ORIENTED_EDGE('',*,*,#829,.F.);
#829 = EDGE_CURVE('',#830,#822,#832,.T.);
#830 = VERTEX_POINT('',#831);
#831 = CARTESIAN_POINT('',(8.6,10.,134.));
#832 = LINE('',#833,#834);
#833 = CARTESIAN_POINT('',(8.6,10.,134.));
#834 = VECTOR('',#835,1.);
#835 = DIRECTION('',(1.,-2.22044604925E-16,2.553512956638E-15));
#836 = ORIENTED_EDGE('',*,*,#837,.F.);
#837 = EDGE_CURVE('',#814,#830,#838,.T.);
#838 = LINE('',#839,#840);
#839 = CARTESIAN_POINT('',(8.6,20.,134.));
#840 = VECTOR('',#841,1.);
#841 = DIRECTION('',(4.440892098501E-16,-1.,1.663289932013E-15));
#842 = PLANE('',#843);
#843 = AXIS2_PLACEMENT_3D('',#844,#845,#846);
#844 = CARTESIAN_POINT('',(-5.917488721252E-13,-27.,134.));
#845 = DIRECTION('',(-4.551914400963E-15,-5.551115123126E-16,1.));
#846 = DIRECTION('',(-1.7763568394E-15,1.,-4.773959005888E-15));
#847 = ADVANCED_FACE('',(#848),#866,.F.);
#848 = FACE_BOUND('',#849,.F.);
#849 = EDGE_LOOP('',(#850,#851,#859,#865));
#850 = ORIENTED_EDGE('',*,*,#768,.T.);
#851 = ORIENTED_EDGE('',*,*,#852,.T.);
#852 = EDGE_CURVE('',#761,#853,#855,.T.);
#853 = VERTEX_POINT('',#854);
#854 = CARTESIAN_POINT('',(27.,27.,2.));
#855 = LINE('',#856,#857);
#856 = CARTESIAN_POINT('',(26.999999999999,27.,134.));
#857 = VECTOR('',#858,1.);
#858 = DIRECTION('',(4.996003610813E-15,9.992007221626E-16,-1.));
#859 = ORIENTED_EDGE('',*,*,#860,.F.);
#860 = EDGE_CURVE('',#281,#853,#861,.T.);
#861 = LINE('',#862,#863);
#862 = CARTESIAN_POINT('',(-5.750955267558E-14,27.,2.));
#863 = VECTOR('',#864,1.);
#864 = DIRECTION('',(1.,-3.774758283726E-15,-7.771561172376E-16));
#865 = ORIENTED_EDGE('',*,*,#288,.F.);
#866 = PLANE('',#867);
#867 = AXIS2_PLACEMENT_3D('',#868,#869,#870);
#868 = CARTESIAN_POINT('',(-6.876721414528E-13,27.,134.));
#869 = DIRECTION('',(-1.554312234475E-15,1.,-4.551914400963E-15));
#870 = DIRECTION('',(4.773959005888E-15,7.771561172376E-16,-1.));
#871 = ADVANCED_FACE('',(#872),#890,.F.);
#872 = FACE_BOUND('',#873,.F.);
#873 = EDGE_LOOP('',(#874,#875,#883,#889));
#874 = ORIENTED_EDGE('',*,*,#860,.T.);
#875 = ORIENTED_EDGE('',*,*,#876,.T.);
#876 = EDGE_CURVE('',#853,#877,#879,.T.);
#877 = VERTEX_POINT('',#878);
#878 = CARTESIAN_POINT('',(27.,-108.,2.));
#879 = LINE('',#880,#881);
#880 = CARTESIAN_POINT('',(27.,27.,2.));
#881 = VECTOR('',#882,1.);
#882 = DIRECTION('',(1.998401444325E-15,-1.,4.996003610813E-15));
#883 = ORIENTED_EDGE('',*,*,#884,.F.);
#884 = EDGE_CURVE('',#273,#877,#885,.T.);
#885 = LINE('',#886,#887);
#886 = CARTESIAN_POINT('',(1.822986206435E-13,-108.,2.000000000001));
#887 = VECTOR('',#888,1.);
#888 = DIRECTION('',(1.,-3.774758283726E-15,-7.771561172376E-16));
#889 = ORIENTED_EDGE('',*,*,#280,.F.);
#890 = PLANE('',#891);
#891 = AXIS2_PLACEMENT_3D('',#892,#893,#894);
#892 = CARTESIAN_POINT('',(-5.750955267558E-14,27.,2.));
#893 = DIRECTION('',(4.551914400963E-15,5.551115123126E-16,-1.));
#894 = DIRECTION('',(1.7763568394E-15,-1.,4.773959005888E-15));
#895 = ADVANCED_FACE('',(#896),#907,.F.);
#896 = FACE_BOUND('',#897,.F.);
#897 = EDGE_LOOP('',(#898,#899,#905,#906));
#898 = ORIENTED_EDGE('',*,*,#884,.T.);
#899 = ORIENTED_EDGE('',*,*,#900,.T.);
#900 = EDGE_CURVE('',#877,#697,#901,.T.);
#901 = LINE('',#902,#903);
#902 = CARTESIAN_POINT('',(27.,-108.,2.));
#903 = VECTOR('',#904,1.);
#904 = DIRECTION('',(-4.996003610813E-15,-9.992007221626E-16,1.));
#905 = ORIENTED_EDGE('',*,*,#696,.F.);
#906 = ORIENTED_EDGE('',*,*,#272,.F.);
#907 = PLANE('',#908);
#908 = AXIS2_PLACEMENT_3D('',#909,#910,#911);
#909 = CARTESIAN_POINT('',(1.822986206435E-13,-108.,2.000000000001));
#910 = DIRECTION('',(1.554312234475E-15,-1.,4.551914400963E-15));
#911 = DIRECTION('',(-4.773959005888E-15,-7.771561172376E-16,1.));
#912 = ADVANCED_FACE('',(#913),#932,.F.);
#913 = FACE_BOUND('',#914,.F.);
#914 = EDGE_LOOP('',(#915,#923,#930,#931));
#915 = ORIENTED_EDGE('',*,*,#916,.T.);
#916 = EDGE_CURVE('',#414,#917,#919,.T.);
#917 = VERTEX_POINT('',#918);
#918 = CARTESIAN_POINT('',(26.,18.75,15.));
#919 = LINE('',#920,#921);
#920 = CARTESIAN_POINT('',(30.,18.75,15.));
#921 = VECTOR('',#922,1.);
#922 = DIRECTION('',(-1.,2.442490654175E-15,1.110223024625E-16));
#923 = ORIENTED_EDGE('',*,*,#924,.T.);
#924 = EDGE_CURVE('',#917,#917,#925,.T.);
#925 = CIRCLE('',#926,3.75);
#926 = AXIS2_PLACEMENT_3D('',#927,#928,#929);
#927 = CARTESIAN_POINT('',(26.,15.,15.));
#928 = DIRECTION('',(1.,-6.661338147751E-16,1.665334536938E-15));
#929 = DIRECTION('',(6.661338147751E-16,1.,-1.665334536938E-15));
#930 = ORIENTED_EDGE('',*,*,#916,.F.);
#931 = ORIENTED_EDGE('',*,*,#413,.F.);
#932 = CYLINDRICAL_SURFACE('',#933,3.75);
#933 = AXIS2_PLACEMENT_3D('',#934,#935,#936);
#934 = CARTESIAN_POINT('',(30.,15.,15.));
#935 = DIRECTION('',(1.,-2.22044604925E-15,1.110223024625E-16));
#936 = DIRECTION('',(8.881784197001E-16,1.,-1.443289932013E-15));
#937 = ADVANCED_FACE('',(#938),#957,.F.);
#938 = FACE_BOUND('',#939,.F.);
#939 = EDGE_LOOP('',(#940,#948,#955,#956));
#940 = ORIENTED_EDGE('',*,*,#941,.T.);
#941 = EDGE_CURVE('',#425,#942,#944,.T.);
#942 = VERTEX_POINT('',#943);
#943 = CARTESIAN_POINT('',(26.,-11.25,15.));
#944 = LINE('',#945,#946);
#945 = CARTESIAN_POINT('',(30.,-11.25,15.));
#946 = VECTOR('',#947,1.);
#947 = DIRECTION('',(-1.,2.442490654175E-15,1.110223024625E-16));
#948 = ORIENTED_EDGE('',*,*,#949,.T.);
#949 = EDGE_CURVE('',#942,#942,#950,.T.);
#950 = CIRCLE('',#951,3.75);
#951 = AXIS2_PLACEMENT_3D('',#952,#953,#954);
#952 = CARTESIAN_POINT('',(26.,-15.,15.));
#953 = DIRECTION('',(1.,-6.661338147751E-16,1.665334536938E-15));
#954 = DIRECTION('',(6.661338147751E-16,1.,-1.665334536938E-15));
#955 = ORIENTED_EDGE('',*,*,#941,.F.);
#956 = ORIENTED_EDGE('',*,*,#424,.F.);
#957 = CYLINDRICAL_SURFACE('',#958,3.75);
#958 = AXIS2_PLACEMENT_3D('',#959,#960,#961);
#959 = CARTESIAN_POINT('',(30.,-15.,15.));
#960 = DIRECTION('',(1.,-2.22044604925E-15,1.110223024625E-16));
#961 = DIRECTION('',(8.881784197001E-16,1.,-1.443289932013E-15));
#962 = ADVANCED_FACE('',(#963),#982,.F.);
#963 = FACE_BOUND('',#964,.F.);
#964 = EDGE_LOOP('',(#965,#973,#980,#981));
#965 = ORIENTED_EDGE('',*,*,#966,.T.);
#966 = EDGE_CURVE('',#436,#967,#969,.T.);
#967 = VERTEX_POINT('',#968);
#968 = CARTESIAN_POINT('',(26.,18.75,105.));
#969 = LINE('',#970,#971);
#970 = CARTESIAN_POINT('',(30.,18.75,105.));
#971 = VECTOR('',#972,1.);
#972 = DIRECTION('',(-1.,2.442490654175E-15,1.110223024625E-16));
#973 = ORIENTED_EDGE('',*,*,#974,.T.);
#974 = EDGE_CURVE('',#967,#967,#975,.T.);
#975 = CIRCLE('',#976,3.75);
#976 = AXIS2_PLACEMENT_3D('',#977,#978,#979);
#977 = CARTESIAN_POINT('',(26.,15.,105.));
#978 = DIRECTION('',(1.,-6.661338147751E-16,1.665334536938E-15));
#979 = DIRECTION('',(6.661338147751E-16,1.,-1.665334536938E-15));
#980 = ORIENTED_EDGE('',*,*,#966,.F.);
#981 = ORIENTED_EDGE('',*,*,#435,.F.);
#982 = CYLINDRICAL_SURFACE('',#983,3.75);
#983 = AXIS2_PLACEMENT_3D('',#984,#985,#986);
#984 = CARTESIAN_POINT('',(30.,15.,105.));
#985 = DIRECTION('',(1.,-2.22044604925E-15,1.110223024625E-16));
#986 = DIRECTION('',(8.881784197001E-16,1.,-1.443289932013E-15));
#987 = ADVANCED_FACE('',(#988),#1007,.F.);
#988 = FACE_BOUND('',#989,.F.);
#989 = EDGE_LOOP('',(#990,#998,#1005,#1006));
#990 = ORIENTED_EDGE('',*,*,#991,.T.);
#991 = EDGE_CURVE('',#447,#992,#994,.T.);
#992 = VERTEX_POINT('',#993);
#993 = CARTESIAN_POINT('',(26.,-41.25,15.));
#994 = LINE('',#995,#996);
#995 = CARTESIAN_POINT('',(30.,-41.25,15.));
#996 = VECTOR('',#997,1.);
#997 = DIRECTION('',(-1.,2.442490654175E-15,1.110223024625E-16));
#998 = ORIENTED_EDGE('',*,*,#999,.T.);
#999 = EDGE_CURVE('',#992,#992,#1000,.T.);
#1000 = CIRCLE('',#1001,3.75);
#1001 = AXIS2_PLACEMENT_3D('',#1002,#1003,#1004);
#1002 = CARTESIAN_POINT('',(26.,-45.,15.));
#1003 = DIRECTION('',(1.,-6.661338147751E-16,1.665334536938E-15));
#1004 = DIRECTION('',(6.661338147751E-16,1.,-1.665334536938E-15));
#1005 = ORIENTED_EDGE('',*,*,#991,.F.);
#1006 = ORIENTED_EDGE('',*,*,#446,.F.);
#1007 = CYLINDRICAL_SURFACE('',#1008,3.75);
#1008 = AXIS2_PLACEMENT_3D('',#1009,#1010,#1011);
#1009 = CARTESIAN_POINT('',(30.,-45.,15.));
#1010 = DIRECTION('',(1.,-2.22044604925E-15,1.110223024625E-16));
#1011 = DIRECTION('',(8.881784197001E-16,1.,-1.443289932013E-15));
#1012 = ADVANCED_FACE('',(#1013),#1032,.F.);
#1013 = FACE_BOUND('',#1014,.F.);
#1014 = EDGE_LOOP('',(#1015,#1023,#1030,#1031));
#1015 = ORIENTED_EDGE('',*,*,#1016,.T.);
#1016 = EDGE_CURVE('',#458,#1017,#1019,.T.);
#1017 = VERTEX_POINT('',#1018);
#1018 = CARTESIAN_POINT('',(26.,-11.25,105.));
#1019 = LINE('',#1020,#1021);
#1020 = CARTESIAN_POINT('',(30.,-11.25,105.));
#1021 = VECTOR('',#1022,1.);
#1022 = DIRECTION('',(-1.,2.442490654175E-15,1.110223024625E-16));
#1023 = ORIENTED_EDGE('',*,*,#1024,.T.);
#1024 = EDGE_CURVE('',#1017,#1017,#1025,.T.);
#1025 = CIRCLE('',#1026,3.75);
#1026 = AXIS2_PLACEMENT_3D('',#1027,#1028,#1029);
#1027 = CARTESIAN_POINT('',(26.,-15.,105.));
#1028 = DIRECTION('',(1.,-6.661338147751E-16,1.665334536938E-15));
#1029 = DIRECTION('',(6.661338147751E-16,1.,-1.665334536938E-15));
#1030 = ORIENTED_EDGE('',*,*,#1016,.F.);
#1031 = ORIENTED_EDGE('',*,*,#457,.F.);
#1032 = CYLINDRICAL_SURFACE('',#1033,3.75);
#1033 = AXIS2_PLACEMENT_3D('',#1034,#1035,#1036);
#1034 = CARTESIAN_POINT('',(30.,-15.,105.));
#1035 = DIRECTION('',(1.,-2.22044604925E-15,1.110223024625E-16));
#1036 = DIRECTION('',(8.881784197001E-16,1.,-1.443289932013E-15));
#1037 = ADVANCED_FACE('',(#1038),#1057,.F.);
#1038 = FACE_BOUND('',#1039,.F.);
#1039 = EDGE_LOOP('',(#1040,#1048,#1055,#1056));
#1040 = ORIENTED_EDGE('',*,*,#1041,.T.);
#1041 = EDGE_CURVE('',#469,#1042,#1044,.T.);
#1042 = VERTEX_POINT('',#1043);
#1043 = CARTESIAN_POINT('',(26.,-41.25,105.));
#1044 = LINE('',#1045,#1046);
#1045 = CARTESIAN_POINT('',(30.,-41.25,105.));
#1046 = VECTOR('',#1047,1.);
#1047 = DIRECTION('',(-1.,2.442490654175E-15,1.110223024625E-16));
#1048 = ORIENTED_EDGE('',*,*,#1049,.T.);
#1049 = EDGE_CURVE('',#1042,#1042,#1050,.T.);
#1050 = CIRCLE('',#1051,3.75);
#1051 = AXIS2_PLACEMENT_3D('',#1052,#1053,#1054);
#1052 = CARTESIAN_POINT('',(26.,-45.,105.));
#1053 = DIRECTION('',(1.,-6.661338147751E-16,1.665334536938E-15));
#1054 = DIRECTION('',(6.661338147751E-16,1.,-1.665334536938E-15));
#1055 = ORIENTED_EDGE('',*,*,#1041,.F.);
#1056 = ORIENTED_EDGE('',*,*,#468,.F.);
#1057 = CYLINDRICAL_SURFACE('',#1058,3.75);
#1058 = AXIS2_PLACEMENT_3D('',#1059,#1060,#1061);
#1059 = CARTESIAN_POINT('',(30.,-45.,105.));
#1060 = DIRECTION('',(1.,-2.22044604925E-15,1.110223024625E-16));
#1061 = DIRECTION('',(8.881784197001E-16,1.,-1.443289932013E-15));
#1062 = ADVANCED_FACE('',(#1063),#1079,.F.);
#1063 = FACE_BOUND('',#1064,.F.);
#1064 = EDGE_LOOP('',(#1065,#1071,#1072,#1078));
#1065 = ORIENTED_EDGE('',*,*,#1066,.T.);
#1066 = EDGE_CURVE('',#543,#778,#1067,.T.);
#1067 = LINE('',#1068,#1069);
#1068 = CARTESIAN_POINT('',(19.,-5.,136.));
#1069 = VECTOR('',#1070,1.);
#1070 = DIRECTION('',(2.997602166488E-15,-1.219200722163E-15,-1.));
#1071 = ORIENTED_EDGE('',*,*,#777,.T.);
#1072 = ORIENTED_EDGE('',*,*,#1073,.F.);
#1073 = EDGE_CURVE('',#545,#780,#1074,.T.);
#1074 = LINE('',#1075,#1076);
#1075 = CARTESIAN_POINT('',(10.,-5.,136.));
#1076 = VECTOR('',#1077,1.);
#1077 = DIRECTION('',(2.997602166488E-15,-1.219200722163E-15,-1.));
#1078 = ORIENTED_EDGE('',*,*,#542,.F.);
#1079 = PLANE('',#1080);
#1080 = AXIS2_PLACEMENT_3D('',#1081,#1082,#1083);
#1081 = CARTESIAN_POINT('',(19.,-5.,136.));
#1082 = DIRECTION('',(6.82807912044E-32,1.,-1.219200722163E-15));
#1083 = DIRECTION('',(-1.,-3.315680992257E-30,-2.775557561563E-15));
#1084 = ADVANCED_FACE('',(#1085),#1096,.F.);
#1085 = FACE_BOUND('',#1086,.F.);
#1086 = EDGE_LOOP('',(#1087,#1088,#1089,#1095));
#1087 = ORIENTED_EDGE('',*,*,#1073,.T.);
#1088 = ORIENTED_EDGE('',*,*,#803,.T.);
#1089 = ORIENTED_EDGE('',*,*,#1090,.F.);
#1090 = EDGE_CURVE('',#561,#796,#1091,.T.);
#1091 = LINE('',#1092,#1093);
#1092 = CARTESIAN_POINT('',(10.,-19.,136.));
#1093 = VECTOR('',#1094,1.);
#1094 = DIRECTION('',(2.997602166488E-15,-1.219200722163E-15,-1.));
#1095 = ORIENTED_EDGE('',*,*,#568,.F.);
#1096 = PLANE('',#1097);
#1097 = AXIS2_PLACEMENT_3D('',#1098,#1099,#1100);
#1098 = CARTESIAN_POINT('',(10.,-5.,136.));
#1099 = DIRECTION('',(-1.,-2.22044604925E-16,-2.997602166488E-15));
#1100 = DIRECTION('',(2.22044604925E-16,-1.,1.441245327088E-15));
#1101 = ADVANCED_FACE('',(#1102),#1113,.F.);
#1102 = FACE_BOUND('',#1103,.F.);
#1103 = EDGE_LOOP('',(#1104,#1105,#1106,#1112));
#1104 = ORIENTED_EDGE('',*,*,#1090,.T.);
#1105 = ORIENTED_EDGE('',*,*,#795,.T.);
#1106 = ORIENTED_EDGE('',*,*,#1107,.F.);
#1107 = EDGE_CURVE('',#553,#788,#1108,.T.);
#1108 = LINE('',#1109,#1110);
#1109 = CARTESIAN_POINT('',(19.,-19.,136.));
#1110 = VECTOR('',#1111,1.);
#1111 = DIRECTION('',(2.997602166488E-15,-1.219200722163E-15,-1.));
#1112 = ORIENTED_EDGE('',*,*,#560,.F.);
#1113 = PLANE('',#1114);
#1114 = AXIS2_PLACEMENT_3D('',#1115,#1116,#1117);
#1115 = CARTESIAN_POINT('',(10.,-19.,136.));
#1116 = DIRECTION('',(-6.82807912044E-32,-1.,1.219200722163E-15));
#1117 = DIRECTION('',(1.,3.315680992257E-30,2.775557561563E-15));
#1118 = ADVANCED_FACE('',(#1119),#1125,.F.);
#1119 = FACE_BOUND('',#1120,.F.);
#1120 = EDGE_LOOP('',(#1121,#1122,#1123,#1124));
#1121 = ORIENTED_EDGE('',*,*,#1107,.T.);
#1122 = ORIENTED_EDGE('',*,*,#787,.T.);
#1123 = ORIENTED_EDGE('',*,*,#1066,.F.);
#1124 = ORIENTED_EDGE('',*,*,#552,.F.);
#1125 = PLANE('',#1126);
#1126 = AXIS2_PLACEMENT_3D('',#1127,#1128,#1129);
#1127 = CARTESIAN_POINT('',(19.,-19.,136.));
#1128 = DIRECTION('',(1.,2.22044604925E-16,2.997602166488E-15));
#1129 = DIRECTION('',(-2.22044604925E-16,1.,-1.441245327088E-15));
#1130 = ADVANCED_FACE('',(#1131),#1147,.F.);
#1131 = FACE_BOUND('',#1132,.F.);
#1132 = EDGE_LOOP('',(#1133,#1139,#1140,#1146));
#1133 = ORIENTED_EDGE('',*,*,#1134,.T.);
#1134 = EDGE_CURVE('',#577,#812,#1135,.T.);
#1135 = LINE('',#1136,#1137);
#1136 = CARTESIAN_POINT('',(20.6,20.,136.));
#1137 = VECTOR('',#1138,1.);
#1138 = DIRECTION('',(2.997602166488E-15,-1.219200722163E-15,-1.));
#1139 = ORIENTED_EDGE('',*,*,#811,.T.);
#1140 = ORIENTED_EDGE('',*,*,#1141,.F.);
#1141 = EDGE_CURVE('',#579,#814,#1142,.T.);
#1142 = LINE('',#1143,#1144);
#1143 = CARTESIAN_POINT('',(8.6,20.,136.));
#1144 = VECTOR('',#1145,1.);
#1145 = DIRECTION('',(2.997602166488E-15,-1.219200722163E-15,-1.));
#1146 = ORIENTED_EDGE('',*,*,#576,.F.);
#1147 = PLANE('',#1148);
#1148 = AXIS2_PLACEMENT_3D('',#1149,#1150,#1151);
#1149 = CARTESIAN_POINT('',(20.6,20.,136.));
#1150 = DIRECTION('',(6.82807912044E-32,1.,-1.219200722163E-15));
#1151 = DIRECTION('',(-1.,-3.315680992257E-30,-2.775557561563E-15));
#1152 = ADVANCED_FACE('',(#1153),#1164,.F.);
#1153 = FACE_BOUND('',#1154,.F.);
#1154 = EDGE_LOOP('',(#1155,#1156,#1157,#1163));
#1155 = ORIENTED_EDGE('',*,*,#1141,.T.);
#1156 = ORIENTED_EDGE('',*,*,#837,.T.);
#1157 = ORIENTED_EDGE('',*,*,#1158,.F.);
#1158 = EDGE_CURVE('',#595,#830,#1159,.T.);
#1159 = LINE('',#1160,#1161);
#1160 = CARTESIAN_POINT('',(8.6,10.,136.));
#1161 = VECTOR('',#1162,1.);
#1162 = DIRECTION('',(2.997602166488E-15,-1.219200722163E-15,-1.));
#1163 = ORIENTED_EDGE('',*,*,#602,.F.);
#1164 = PLANE('',#1165);
#1165 = AXIS2_PLACEMENT_3D('',#1166,#1167,#1168);
#1166 = CARTESIAN_POINT('',(8.6,20.,136.));
#1167 = DIRECTION('',(-1.,-2.22044604925E-16,-2.997602166488E-15));
#1168 = DIRECTION('',(2.22044604925E-16,-1.,1.441245327088E-15));
#1169 = ADVANCED_FACE('',(#1170),#1181,.F.);
#1170 = FACE_BOUND('',#1171,.F.);
#1171 = EDGE_LOOP('',(#1172,#1173,#1174,#1180));
#1172 = ORIENTED_EDGE('',*,*,#1158,.T.);
#1173 = ORIENTED_EDGE('',*,*,#829,.T.);
#1174 = ORIENTED_EDGE('',*,*,#1175,.F.);
#1175 = EDGE_CURVE('',#587,#822,#1176,.T.);
#1176 = LINE('',#1177,#1178);
#1177 = CARTESIAN_POINT('',(20.6,10.,136.));
#1178 = VECTOR('',#1179,1.);
#1179 = DIRECTION('',(2.997602166488E-15,-1.219200722163E-15,-1.));
#1180 = ORIENTED_EDGE('',*,*,#594,.F.);
#1181 = PLANE('',#1182);
#1182 = AXIS2_PLACEMENT_3D('',#1183,#1184,#1185);
#1183 = CARTESIAN_POINT('',(8.6,10.,136.));
#1184 = DIRECTION('',(-6.82807912044E-32,-1.,1.219200722163E-15));
#1185 = DIRECTION('',(1.,3.315680992257E-30,2.775557561563E-15));
#1186 = ADVANCED_FACE('',(#1187),#1193,.F.);
#1187 = FACE_BOUND('',#1188,.F.);
#1188 = EDGE_LOOP('',(#1189,#1190,#1191,#1192));
#1189 = ORIENTED_EDGE('',*,*,#1175,.T.);
#1190 = ORIENTED_EDGE('',*,*,#821,.T.);
#1191 = ORIENTED_EDGE('',*,*,#1134,.F.);
#1192 = ORIENTED_EDGE('',*,*,#586,.F.);
#1193 = PLANE('',#1194);
#1194 = AXIS2_PLACEMENT_3D('',#1195,#1196,#1197);
#1195 = CARTESIAN_POINT('',(20.6,10.,136.));
#1196 = DIRECTION('',(1.,2.22044604925E-16,2.997602166488E-15));
#1197 = DIRECTION('',(-2.22044604925E-16,1.,-1.441245327088E-15));
#1198 = ADVANCED_FACE('',(#1199),#1205,.T.);
#1199 = FACE_BOUND('',#1200,.T.);
#1200 = EDGE_LOOP('',(#1201,#1202,#1203,#1204));
#1201 = ORIENTED_EDGE('',*,*,#720,.T.);
#1202 = ORIENTED_EDGE('',*,*,#633,.T.);
#1203 = ORIENTED_EDGE('',*,*,#648,.T.);
#1204 = ORIENTED_EDGE('',*,*,#681,.F.);
#1205 = PLANE('',#1206);
#1206 = AXIS2_PLACEMENT_3D('',#1207,#1208,#1209);
#1207 = CARTESIAN_POINT('',(10.,-94.5,125.5));
#1208 = DIRECTION('',(-1.,1.7763568394E-15,-2.790360535225E-15));
#1209 = DIRECTION('',(5.454895794325E-15,3.330669073875E-16,-1.));
#1210 = ADVANCED_FACE('',(#1211,#1219,#1230,#1241,#1252,#1263,#1274),
  #1285,.F.);
#1211 = FACE_BOUND('',#1212,.F.);
#1212 = EDGE_LOOP('',(#1213,#1214,#1215,#1216,#1217,#1218));
#1213 = ORIENTED_EDGE('',*,*,#704,.F.);
#1214 = ORIENTED_EDGE('',*,*,#900,.F.);
#1215 = ORIENTED_EDGE('',*,*,#876,.F.);
#1216 = ORIENTED_EDGE('',*,*,#852,.F.);
#1217 = ORIENTED_EDGE('',*,*,#760,.F.);
#1218 = ORIENTED_EDGE('',*,*,#736,.F.);
#1219 = FACE_BOUND('',#1220,.F.);
#1220 = EDGE_LOOP('',(#1221));
#1221 = ORIENTED_EDGE('',*,*,#1222,.T.);
#1222 = EDGE_CURVE('',#1223,#1223,#1225,.T.);
#1223 = VERTEX_POINT('',#1224);
#1224 = CARTESIAN_POINT('',(27.,20.5,15.));
#1225 = CIRCLE('',#1226,5.5);
#1226 = AXIS2_PLACEMENT_3D('',#1227,#1228,#1229);
#1227 = CARTESIAN_POINT('',(27.,15.,15.));
#1228 = DIRECTION('',(-1.,-2.576123893612E-30,-2.331468351713E-15));
#1229 = DIRECTION('',(2.859620781426E-30,1.,-2.331468351713E-15));
#1230 = FACE_BOUND('',#1231,.F.);
#1231 = EDGE_LOOP('',(#1232));
#1232 = ORIENTED_EDGE('',*,*,#1233,.T.);
#1233 = EDGE_CURVE('',#1234,#1234,#1236,.T.);
#1234 = VERTEX_POINT('',#1235);
#1235 = CARTESIAN_POINT('',(27.,-9.5,15.));
#1236 = CIRCLE('',#1237,5.5);
#1237 = AXIS2_PLACEMENT_3D('',#1238,#1239,#1240);
#1238 = CARTESIAN_POINT('',(27.,-15.,15.));
#1239 = DIRECTION('',(-1.,-2.576123893612E-30,-2.331468351713E-15));
#1240 = DIRECTION('',(2.859620781426E-30,1.,-2.331468351713E-15));
#1241 = FACE_BOUND('',#1242,.F.);
#1242 = EDGE_LOOP('',(#1243));
#1243 = ORIENTED_EDGE('',*,*,#1244,.T.);
#1244 = EDGE_CURVE('',#1245,#1245,#1247,.T.);
#1245 = VERTEX_POINT('',#1246);
#1246 = CARTESIAN_POINT('',(27.,20.5,105.));
#1247 = CIRCLE('',#1248,5.5);
#1248 = AXIS2_PLACEMENT_3D('',#1249,#1250,#1251);
#1249 = CARTESIAN_POINT('',(27.,15.,105.));
#1250 = DIRECTION('',(-1.,-2.576123893612E-30,-2.331468351713E-15));
#1251 = DIRECTION('',(2.859620781426E-30,1.,-2.331468351713E-15));
#1252 = FACE_BOUND('',#1253,.F.);
#1253 = EDGE_LOOP('',(#1254));
#1254 = ORIENTED_EDGE('',*,*,#1255,.T.);
#1255 = EDGE_CURVE('',#1256,#1256,#1258,.T.);
#1256 = VERTEX_POINT('',#1257);
#1257 = CARTESIAN_POINT('',(27.,-39.5,15.));
#1258 = CIRCLE('',#1259,5.5);
#1259 = AXIS2_PLACEMENT_3D('',#1260,#1261,#1262);
#1260 = CARTESIAN_POINT('',(27.,-45.,15.));
#1261 = DIRECTION('',(-1.,-2.576123893612E-30,-2.331468351713E-15));
#1262 = DIRECTION('',(2.859620781426E-30,1.,-2.331468351713E-15));
#1263 = FACE_BOUND('',#1264,.F.);
#1264 = EDGE_LOOP('',(#1265));
#1265 = ORIENTED_EDGE('',*,*,#1266,.T.);
#1266 = EDGE_CURVE('',#1267,#1267,#1269,.T.);
#1267 = VERTEX_POINT('',#1268);
#1268 = CARTESIAN_POINT('',(27.,-9.5,105.));
#1269 = CIRCLE('',#1270,5.5);
#1270 = AXIS2_PLACEMENT_3D('',#1271,#1272,#1273);
#1271 = CARTESIAN_POINT('',(27.,-15.,105.));
#1272 = DIRECTION('',(-1.,-2.576123893612E-30,-2.331468351713E-15));
#1273 = DIRECTION('',(2.859620781426E-30,1.,-2.331468351713E-15));
#1274 = FACE_BOUND('',#1275,.F.);
#1275 = EDGE_LOOP('',(#1276));
#1276 = ORIENTED_EDGE('',*,*,#1277,.T.);
#1277 = EDGE_CURVE('',#1278,#1278,#1280,.T.);
#1278 = VERTEX_POINT('',#1279);
#1279 = CARTESIAN_POINT('',(27.,-39.5,105.));
#1280 = CIRCLE('',#1281,5.5);
#1281 = AXIS2_PLACEMENT_3D('',#1282,#1283,#1284);
#1282 = CARTESIAN_POINT('',(27.,-45.,105.));
#1283 = DIRECTION('',(-1.,-2.576123893612E-30,-2.331468351713E-15));
#1284 = DIRECTION('',(2.859620781426E-30,1.,-2.331468351713E-15));
#1285 = PLANE('',#1286);
#1286 = AXIS2_PLACEMENT_3D('',#1287,#1288,#1289);
#1287 = CARTESIAN_POINT('',(27.,-38.67977528089,66.179775280899));
#1288 = DIRECTION('',(1.,-3.996802888651E-15,-9.992007221626E-16));
#1289 = DIRECTION('',(-4.996003610813E-15,-9.992007221626E-16,1.));
#1290 = ADVANCED_FACE('',(#1291,#1294),#1305,.T.);
#1291 = FACE_BOUND('',#1292,.T.);
#1292 = EDGE_LOOP('',(#1293));
#1293 = ORIENTED_EDGE('',*,*,#924,.T.);
#1294 = FACE_BOUND('',#1295,.T.);
#1295 = EDGE_LOOP('',(#1296));
#1296 = ORIENTED_EDGE('',*,*,#1297,.F.);
#1297 = EDGE_CURVE('',#1298,#1298,#1300,.T.);
#1298 = VERTEX_POINT('',#1299);
#1299 = CARTESIAN_POINT('',(26.,17.25,15.));
#1300 = CIRCLE('',#1301,2.25);
#1301 = AXIS2_PLACEMENT_3D('',#1302,#1303,#1304);
#1302 = CARTESIAN_POINT('',(26.,15.,15.));
#1303 = DIRECTION('',(1.,-8.881784197001E-16,9.992007221626E-16));
#1304 = DIRECTION('',(8.881784197001E-16,1.,-9.992007221626E-16));
#1305 = PLANE('',#1306);
#1306 = AXIS2_PLACEMENT_3D('',#1307,#1308,#1309);
#1307 = CARTESIAN_POINT('',(26.,-15.,60.));
#1308 = DIRECTION('',(1.,-2.6759280239E-15,-3.330669073875E-16));
#1309 = DIRECTION('',(6.775265795752E-16,1.,-1.665334536938E-15));
#1310 = ADVANCED_FACE('',(#1311,#1314),#1325,.T.);
#1311 = FACE_BOUND('',#1312,.T.);
#1312 = EDGE_LOOP('',(#1313));
#1313 = ORIENTED_EDGE('',*,*,#949,.T.);
#1314 = FACE_BOUND('',#1315,.T.);
#1315 = EDGE_LOOP('',(#1316));
#1316 = ORIENTED_EDGE('',*,*,#1317,.F.);
#1317 = EDGE_CURVE('',#1318,#1318,#1320,.T.);
#1318 = VERTEX_POINT('',#1319);
#1319 = CARTESIAN_POINT('',(26.,-12.75,15.));
#1320 = CIRCLE('',#1321,2.25);
#1321 = AXIS2_PLACEMENT_3D('',#1322,#1323,#1324);
#1322 = CARTESIAN_POINT('',(26.,-15.,15.));
#1323 = DIRECTION('',(1.,-8.881784197001E-16,9.992007221626E-16));
#1324 = DIRECTION('',(8.881784197001E-16,1.,-9.992007221626E-16));
#1325 = PLANE('',#1326);
#1326 = AXIS2_PLACEMENT_3D('',#1327,#1328,#1329);
#1327 = CARTESIAN_POINT('',(26.,-15.,60.));
#1328 = DIRECTION('',(1.,-2.6759280239E-15,-3.330669073875E-16));
#1329 = DIRECTION('',(6.775265795752E-16,1.,-1.665334536938E-15));
#1330 = ADVANCED_FACE('',(#1331,#1334),#1345,.T.);
#1331 = FACE_BOUND('',#1332,.T.);
#1332 = EDGE_LOOP('',(#1333));
#1333 = ORIENTED_EDGE('',*,*,#974,.T.);
#1334 = FACE_BOUND('',#1335,.T.);
#1335 = EDGE_LOOP('',(#1336));
#1336 = ORIENTED_EDGE('',*,*,#1337,.F.);
#1337 = EDGE_CURVE('',#1338,#1338,#1340,.T.);
#1338 = VERTEX_POINT('',#1339);
#1339 = CARTESIAN_POINT('',(26.,17.25,105.));
#1340 = CIRCLE('',#1341,2.25);
#1341 = AXIS2_PLACEMENT_3D('',#1342,#1343,#1344);
#1342 = CARTESIAN_POINT('',(26.,15.,105.));
#1343 = DIRECTION('',(1.,-8.881784197001E-16,9.992007221626E-16));
#1344 = DIRECTION('',(8.881784197001E-16,1.,-9.992007221626E-16));
#1345 = PLANE('',#1346);
#1346 = AXIS2_PLACEMENT_3D('',#1347,#1348,#1349);
#1347 = CARTESIAN_POINT('',(26.,-15.,60.));
#1348 = DIRECTION('',(1.,-2.6759280239E-15,-3.330669073875E-16));
#1349 = DIRECTION('',(6.775265795752E-16,1.,-1.665334536938E-15));
#1350 = ADVANCED_FACE('',(#1351,#1354),#1365,.T.);
#1351 = FACE_BOUND('',#1352,.T.);
#1352 = EDGE_LOOP('',(#1353));
#1353 = ORIENTED_EDGE('',*,*,#999,.T.);
#1354 = FACE_BOUND('',#1355,.T.);
#1355 = EDGE_LOOP('',(#1356));
#1356 = ORIENTED_EDGE('',*,*,#1357,.F.);
#1357 = EDGE_CURVE('',#1358,#1358,#1360,.T.);
#1358 = VERTEX_POINT('',#1359);
#1359 = CARTESIAN_POINT('',(26.,-42.75,15.));
#1360 = CIRCLE('',#1361,2.25);
#1361 = AXIS2_PLACEMENT_3D('',#1362,#1363,#1364);
#1362 = CARTESIAN_POINT('',(26.,-45.,15.));
#1363 = DIRECTION('',(1.,-8.881784197001E-16,9.992007221626E-16));
#1364 = DIRECTION('',(8.881784197001E-16,1.,-9.992007221626E-16));
#1365 = PLANE('',#1366);
#1366 = AXIS2_PLACEMENT_3D('',#1367,#1368,#1369);
#1367 = CARTESIAN_POINT('',(26.,-15.,60.));
#1368 = DIRECTION('',(1.,-2.6759280239E-15,-3.330669073875E-16));
#1369 = DIRECTION('',(6.775265795752E-16,1.,-1.665334536938E-15));
#1370 = ADVANCED_FACE('',(#1371,#1374),#1385,.T.);
#1371 = FACE_BOUND('',#1372,.T.);
#1372 = EDGE_LOOP('',(#1373));
#1373 = ORIENTED_EDGE('',*,*,#1024,.T.);
#1374 = FACE_BOUND('',#1375,.T.);
#1375 = EDGE_LOOP('',(#1376));
#1376 = ORIENTED_EDGE('',*,*,#1377,.F.);
#1377 = EDGE_CURVE('',#1378,#1378,#1380,.T.);
#1378 = VERTEX_POINT('',#1379);
#1379 = CARTESIAN_POINT('',(26.,-12.75,105.));
#1380 = CIRCLE('',#1381,2.25);
#1381 = AXIS2_PLACEMENT_3D('',#1382,#1383,#1384);
#1382 = CARTESIAN_POINT('',(26.,-15.,105.));
#1383 = DIRECTION('',(1.,-8.881784197001E-16,9.992007221626E-16));
#1384 = DIRECTION('',(8.881784197001E-16,1.,-9.992007221626E-16));
#1385 = PLANE('',#1386);
#1386 = AXIS2_PLACEMENT_3D('',#1387,#1388,#1389);
#1387 = CARTESIAN_POINT('',(26.,-15.,60.));
#1388 = DIRECTION('',(1.,-2.6759280239E-15,-3.330669073875E-16));
#1389 = DIRECTION('',(6.775265795752E-16,1.,-1.665334536938E-15));
#1390 = ADVANCED_FACE('',(#1391,#1394),#1405,.T.);
#1391 = FACE_BOUND('',#1392,.T.);
#1392 = EDGE_LOOP('',(#1393));
#1393 = ORIENTED_EDGE('',*,*,#1049,.T.);
#1394 = FACE_BOUND('',#1395,.T.);
#1395 = EDGE_LOOP('',(#1396));
#1396 = ORIENTED_EDGE('',*,*,#1397,.F.);
#1397 = EDGE_CURVE('',#1398,#1398,#1400,.T.);
#1398 = VERTEX_POINT('',#1399);
#1399 = CARTESIAN_POINT('',(26.,-42.75,105.));
#1400 = CIRCLE('',#1401,2.25);
#1401 = AXIS2_PLACEMENT_3D('',#1402,#1403,#1404);
#1402 = CARTESIAN_POINT('',(26.,-45.,105.));
#1403 = DIRECTION('',(1.,-8.881784197001E-16,9.992007221626E-16));
#1404 = DIRECTION('',(8.881784197001E-16,1.,-9.992007221626E-16));
#1405 = PLANE('',#1406);
#1406 = AXIS2_PLACEMENT_3D('',#1407,#1408,#1409);
#1407 = CARTESIAN_POINT('',(26.,-15.,60.));
#1408 = DIRECTION('',(1.,-2.6759280239E-15,-3.330669073875E-16));
#1409 = DIRECTION('',(6.775265795752E-16,1.,-1.665334536938E-15));
#1410 = ADVANCED_FACE('',(#1411),#1430,.T.);
#1411 = FACE_BOUND('',#1412,.F.);
#1412 = EDGE_LOOP('',(#1413,#1421,#1428,#1429));
#1413 = ORIENTED_EDGE('',*,*,#1414,.T.);
#1414 = EDGE_CURVE('',#1223,#1415,#1417,.T.);
#1415 = VERTEX_POINT('',#1416);
#1416 = CARTESIAN_POINT('',(24.,20.5,15.));
#1417 = LINE('',#1418,#1419);
#1418 = CARTESIAN_POINT('',(27.,20.5,15.));
#1419 = VECTOR('',#1420,1.);
#1420 = DIRECTION('',(-1.,2.553512956638E-15,1.110223024625E-16));
#1421 = ORIENTED_EDGE('',*,*,#1422,.T.);
#1422 = EDGE_CURVE('',#1415,#1415,#1423,.T.);
#1423 = CIRCLE('',#1424,5.5);
#1424 = AXIS2_PLACEMENT_3D('',#1425,#1426,#1427);
#1425 = CARTESIAN_POINT('',(24.,15.,15.));
#1426 = DIRECTION('',(-1.,-2.576123893612E-30,-2.331468351713E-15));
#1427 = DIRECTION('',(2.859620781426E-30,1.,-2.331468351713E-15));
#1428 = ORIENTED_EDGE('',*,*,#1414,.F.);
#1429 = ORIENTED_EDGE('',*,*,#1222,.F.);
#1430 = CYLINDRICAL_SURFACE('',#1431,5.5);
#1431 = AXIS2_PLACEMENT_3D('',#1432,#1433,#1434);
#1432 = CARTESIAN_POINT('',(27.,15.,15.));
#1433 = DIRECTION('',(1.,-2.22044604925E-15,1.110223024625E-16));
#1434 = DIRECTION('',(2.22044604925E-16,1.,-2.109423746788E-15));
#1435 = ADVANCED_FACE('',(#1436),#1455,.T.);
#1436 = FACE_BOUND('',#1437,.F.);
#1437 = EDGE_LOOP('',(#1438,#1446,#1453,#1454));
#1438 = ORIENTED_EDGE('',*,*,#1439,.T.);
#1439 = EDGE_CURVE('',#1234,#1440,#1442,.T.);
#1440 = VERTEX_POINT('',#1441);
#1441 = CARTESIAN_POINT('',(24.,-9.5,15.));
#1442 = LINE('',#1443,#1444);
#1443 = CARTESIAN_POINT('',(27.,-9.5,15.));
#1444 = VECTOR('',#1445,1.);
#1445 = DIRECTION('',(-1.,2.553512956638E-15,1.110223024625E-16));
#1446 = ORIENTED_EDGE('',*,*,#1447,.T.);
#1447 = EDGE_CURVE('',#1440,#1440,#1448,.T.);
#1448 = CIRCLE('',#1449,5.5);
#1449 = AXIS2_PLACEMENT_3D('',#1450,#1451,#1452);
#1450 = CARTESIAN_POINT('',(24.,-15.,15.));
#1451 = DIRECTION('',(-1.,-2.576123893612E-30,-2.331468351713E-15));
#1452 = DIRECTION('',(2.859620781426E-30,1.,-2.331468351713E-15));
#1453 = ORIENTED_EDGE('',*,*,#1439,.F.);
#1454 = ORIENTED_EDGE('',*,*,#1233,.F.);
#1455 = CYLINDRICAL_SURFACE('',#1456,5.5);
#1456 = AXIS2_PLACEMENT_3D('',#1457,#1458,#1459);
#1457 = CARTESIAN_POINT('',(27.,-15.,15.));
#1458 = DIRECTION('',(1.,-2.22044604925E-15,1.110223024625E-16));
#1459 = DIRECTION('',(2.22044604925E-16,1.,-2.109423746788E-15));
#1460 = ADVANCED_FACE('',(#1461),#1480,.T.);
#1461 = FACE_BOUND('',#1462,.F.);
#1462 = EDGE_LOOP('',(#1463,#1471,#1478,#1479));
#1463 = ORIENTED_EDGE('',*,*,#1464,.T.);
#1464 = EDGE_CURVE('',#1245,#1465,#1467,.T.);
#1465 = VERTEX_POINT('',#1466);
#1466 = CARTESIAN_POINT('',(24.,20.5,105.));
#1467 = LINE('',#1468,#1469);
#1468 = CARTESIAN_POINT('',(27.,20.5,105.));
#1469 = VECTOR('',#1470,1.);
#1470 = DIRECTION('',(-1.,2.553512956638E-15,1.110223024625E-16));
#1471 = ORIENTED_EDGE('',*,*,#1472,.T.);
#1472 = EDGE_CURVE('',#1465,#1465,#1473,.T.);
#1473 = CIRCLE('',#1474,5.5);
#1474 = AXIS2_PLACEMENT_3D('',#1475,#1476,#1477);
#1475 = CARTESIAN_POINT('',(24.,15.,105.));
#1476 = DIRECTION('',(-1.,-2.576123893612E-30,-2.331468351713E-15));
#1477 = DIRECTION('',(2.859620781426E-30,1.,-2.331468351713E-15));
#1478 = ORIENTED_EDGE('',*,*,#1464,.F.);
#1479 = ORIENTED_EDGE('',*,*,#1244,.F.);
#1480 = CYLINDRICAL_SURFACE('',#1481,5.5);
#1481 = AXIS2_PLACEMENT_3D('',#1482,#1483,#1484);
#1482 = CARTESIAN_POINT('',(27.,15.,105.));
#1483 = DIRECTION('',(1.,-2.22044604925E-15,1.110223024625E-16));
#1484 = DIRECTION('',(2.22044604925E-16,1.,-2.109423746788E-15));
#1485 = ADVANCED_FACE('',(#1486),#1505,.T.);
#1486 = FACE_BOUND('',#1487,.F.);
#1487 = EDGE_LOOP('',(#1488,#1496,#1503,#1504));
#1488 = ORIENTED_EDGE('',*,*,#1489,.T.);
#1489 = EDGE_CURVE('',#1256,#1490,#1492,.T.);
#1490 = VERTEX_POINT('',#1491);
#1491 = CARTESIAN_POINT('',(24.,-39.5,15.));
#1492 = LINE('',#1493,#1494);
#1493 = CARTESIAN_POINT('',(27.,-39.5,15.));
#1494 = VECTOR('',#1495,1.);
#1495 = DIRECTION('',(-1.,2.553512956638E-15,1.110223024625E-16));
#1496 = ORIENTED_EDGE('',*,*,#1497,.T.);
#1497 = EDGE_CURVE('',#1490,#1490,#1498,.T.);
#1498 = CIRCLE('',#1499,5.5);
#1499 = AXIS2_PLACEMENT_3D('',#1500,#1501,#1502);
#1500 = CARTESIAN_POINT('',(24.,-45.,15.));
#1501 = DIRECTION('',(-1.,-2.576123893612E-30,-2.331468351713E-15));
#1502 = DIRECTION('',(2.859620781426E-30,1.,-2.331468351713E-15));
#1503 = ORIENTED_EDGE('',*,*,#1489,.F.);
#1504 = ORIENTED_EDGE('',*,*,#1255,.F.);
#1505 = CYLINDRICAL_SURFACE('',#1506,5.5);
#1506 = AXIS2_PLACEMENT_3D('',#1507,#1508,#1509);
#1507 = CARTESIAN_POINT('',(27.,-45.,15.));
#1508 = DIRECTION('',(1.,-2.22044604925E-15,1.110223024625E-16));
#1509 = DIRECTION('',(2.22044604925E-16,1.,-2.109423746788E-15));
#1510 = ADVANCED_FACE('',(#1511),#1530,.T.);
#1511 = FACE_BOUND('',#1512,.F.);
#1512 = EDGE_LOOP('',(#1513,#1521,#1528,#1529));
#1513 = ORIENTED_EDGE('',*,*,#1514,.T.);
#1514 = EDGE_CURVE('',#1267,#1515,#1517,.T.);
#1515 = VERTEX_POINT('',#1516);
#1516 = CARTESIAN_POINT('',(24.,-9.5,105.));
#1517 = LINE('',#1518,#1519);
#1518 = CARTESIAN_POINT('',(27.,-9.5,105.));
#1519 = VECTOR('',#1520,1.);
#1520 = DIRECTION('',(-1.,2.553512956638E-15,1.110223024625E-16));
#1521 = ORIENTED_EDGE('',*,*,#1522,.T.);
#1522 = EDGE_CURVE('',#1515,#1515,#1523,.T.);
#1523 = CIRCLE('',#1524,5.5);
#1524 = AXIS2_PLACEMENT_3D('',#1525,#1526,#1527);
#1525 = CARTESIAN_POINT('',(24.,-15.,105.));
#1526 = DIRECTION('',(-1.,-2.576123893612E-30,-2.331468351713E-15));
#1527 = DIRECTION('',(2.859620781426E-30,1.,-2.331468351713E-15));
#1528 = ORIENTED_EDGE('',*,*,#1514,.F.);
#1529 = ORIENTED_EDGE('',*,*,#1266,.F.);
#1530 = CYLINDRICAL_SURFACE('',#1531,5.5);
#1531 = AXIS2_PLACEMENT_3D('',#1532,#1533,#1534);
#1532 = CARTESIAN_POINT('',(27.,-15.,105.));
#1533 = DIRECTION('',(1.,-2.22044604925E-15,1.110223024625E-16));
#1534 = DIRECTION('',(2.22044604925E-16,1.,-2.109423746788E-15));
#1535 = ADVANCED_FACE('',(#1536),#1555,.T.);
#1536 = FACE_BOUND('',#1537,.F.);
#1537 = EDGE_LOOP('',(#1538,#1546,#1553,#1554));
#1538 = ORIENTED_EDGE('',*,*,#1539,.T.);
#1539 = EDGE_CURVE('',#1278,#1540,#1542,.T.);
#1540 = VERTEX_POINT('',#1541);
#1541 = CARTESIAN_POINT('',(24.,-39.5,105.));
#1542 = LINE('',#1543,#1544);
#1543 = CARTESIAN_POINT('',(27.,-39.5,105.));
#1544 = VECTOR('',#1545,1.);
#1545 = DIRECTION('',(-1.,2.553512956638E-15,1.110223024625E-16));
#1546 = ORIENTED_EDGE('',*,*,#1547,.T.);
#1547 = EDGE_CURVE('',#1540,#1540,#1548,.T.);
#1548 = CIRCLE('',#1549,5.5);
#1549 = AXIS2_PLACEMENT_3D('',#1550,#1551,#1552);
#1550 = CARTESIAN_POINT('',(24.,-45.,105.));
#1551 = DIRECTION('',(-1.,-2.576123893612E-30,-2.331468351713E-15));
#1552 = DIRECTION('',(2.859620781426E-30,1.,-2.331468351713E-15));
#1553 = ORIENTED_EDGE('',*,*,#1539,.F.);
#1554 = ORIENTED_EDGE('',*,*,#1277,.F.);
#1555 = CYLINDRICAL_SURFACE('',#1556,5.5);
#1556 = AXIS2_PLACEMENT_3D('',#1557,#1558,#1559);
#1557 = CARTESIAN_POINT('',(27.,-45.,105.));
#1558 = DIRECTION('',(1.,-2.22044604925E-15,1.110223024625E-16));
#1559 = DIRECTION('',(2.22044604925E-16,1.,-2.109423746788E-15));
#1560 = ADVANCED_FACE('',(#1561),#1580,.F.);
#1561 = FACE_BOUND('',#1562,.F.);
#1562 = EDGE_LOOP('',(#1563,#1571,#1578,#1579));
#1563 = ORIENTED_EDGE('',*,*,#1564,.T.);
#1564 = EDGE_CURVE('',#1298,#1565,#1567,.T.);
#1565 = VERTEX_POINT('',#1566);
#1566 = CARTESIAN_POINT('',(24.,17.25,15.));
#1567 = LINE('',#1568,#1569);
#1568 = CARTESIAN_POINT('',(26.,17.25,15.));
#1569 = VECTOR('',#1570,1.);
#1570 = DIRECTION('',(-1.,2.109423746788E-15,1.110223024625E-16));
#1571 = ORIENTED_EDGE('',*,*,#1572,.T.);
#1572 = EDGE_CURVE('',#1565,#1565,#1573,.T.);
#1573 = CIRCLE('',#1574,2.25);
#1574 = AXIS2_PLACEMENT_3D('',#1575,#1576,#1577);
#1575 = CARTESIAN_POINT('',(24.,15.,15.));
#1576 = DIRECTION('',(1.,-8.881784197001E-16,9.992007221626E-16));
#1577 = DIRECTION('',(8.881784197001E-16,1.,-9.992007221626E-16));
#1578 = ORIENTED_EDGE('',*,*,#1564,.F.);
#1579 = ORIENTED_EDGE('',*,*,#1297,.F.);
#1580 = CYLINDRICAL_SURFACE('',#1581,2.25);
#1581 = AXIS2_PLACEMENT_3D('',#1582,#1583,#1584);
#1582 = CARTESIAN_POINT('',(26.,15.,15.));
#1583 = DIRECTION('',(1.,-1.7763568394E-15,1.110223024625E-16));
#1584 = DIRECTION('',(1.110223024625E-15,1.,-7.771561172376E-16));
#1585 = ADVANCED_FACE('',(#1586),#1605,.F.);
#1586 = FACE_BOUND('',#1587,.F.);
#1587 = EDGE_LOOP('',(#1588,#1596,#1603,#1604));
#1588 = ORIENTED_EDGE('',*,*,#1589,.T.);
#1589 = EDGE_CURVE('',#1318,#1590,#1592,.T.);
#1590 = VERTEX_POINT('',#1591);
#1591 = CARTESIAN_POINT('',(24.,-12.75,15.));
#1592 = LINE('',#1593,#1594);
#1593 = CARTESIAN_POINT('',(26.,-12.75,15.));
#1594 = VECTOR('',#1595,1.);
#1595 = DIRECTION('',(-1.,2.109423746788E-15,1.110223024625E-16));
#1596 = ORIENTED_EDGE('',*,*,#1597,.T.);
#1597 = EDGE_CURVE('',#1590,#1590,#1598,.T.);
#1598 = CIRCLE('',#1599,2.25);
#1599 = AXIS2_PLACEMENT_3D('',#1600,#1601,#1602);
#1600 = CARTESIAN_POINT('',(24.,-15.,15.));
#1601 = DIRECTION('',(1.,-8.881784197001E-16,9.992007221626E-16));
#1602 = DIRECTION('',(8.881784197001E-16,1.,-9.992007221626E-16));
#1603 = ORIENTED_EDGE('',*,*,#1589,.F.);
#1604 = ORIENTED_EDGE('',*,*,#1317,.F.);
#1605 = CYLINDRICAL_SURFACE('',#1606,2.25);
#1606 = AXIS2_PLACEMENT_3D('',#1607,#1608,#1609);
#1607 = CARTESIAN_POINT('',(26.,-15.,15.));
#1608 = DIRECTION('',(1.,-1.7763568394E-15,1.110223024625E-16));
#1609 = DIRECTION('',(1.110223024625E-15,1.,-7.771561172376E-16));
#1610 = ADVANCED_FACE('',(#1611),#1630,.F.);
#1611 = FACE_BOUND('',#1612,.F.);
#1612 = EDGE_LOOP('',(#1613,#1621,#1628,#1629));
#1613 = ORIENTED_EDGE('',*,*,#1614,.T.);
#1614 = EDGE_CURVE('',#1338,#1615,#1617,.T.);
#1615 = VERTEX_POINT('',#1616);
#1616 = CARTESIAN_POINT('',(24.,17.25,105.));
#1617 = LINE('',#1618,#1619);
#1618 = CARTESIAN_POINT('',(26.,17.25,105.));
#1619 = VECTOR('',#1620,1.);
#1620 = DIRECTION('',(-1.,2.109423746788E-15,1.110223024625E-16));
#1621 = ORIENTED_EDGE('',*,*,#1622,.T.);
#1622 = EDGE_CURVE('',#1615,#1615,#1623,.T.);
#1623 = CIRCLE('',#1624,2.25);
#1624 = AXIS2_PLACEMENT_3D('',#1625,#1626,#1627);
#1625 = CARTESIAN_POINT('',(24.,15.,105.));
#1626 = DIRECTION('',(1.,-8.881784197001E-16,9.992007221626E-16));
#1627 = DIRECTION('',(8.881784197001E-16,1.,-9.992007221626E-16));
#1628 = ORIENTED_EDGE('',*,*,#1614,.F.);
#1629 = ORIENTED_EDGE('',*,*,#1337,.F.);
#1630 = CYLINDRICAL_SURFACE('',#1631,2.25);
#1631 = AXIS2_PLACEMENT_3D('',#1632,#1633,#1634);
#1632 = CARTESIAN_POINT('',(26.,15.,105.));
#1633 = DIRECTION('',(1.,-1.7763568394E-15,1.110223024625E-16));
#1634 = DIRECTION('',(1.110223024625E-15,1.,-7.771561172376E-16));
#1635 = ADVANCED_FACE('',(#1636),#1655,.F.);
#1636 = FACE_BOUND('',#1637,.F.);
#1637 = EDGE_LOOP('',(#1638,#1646,#1653,#1654));
#1638 = ORIENTED_EDGE('',*,*,#1639,.T.);
#1639 = EDGE_CURVE('',#1358,#1640,#1642,.T.);
#1640 = VERTEX_POINT('',#1641);
#1641 = CARTESIAN_POINT('',(24.,-42.75,15.));
#1642 = LINE('',#1643,#1644);
#1643 = CARTESIAN_POINT('',(26.,-42.75,15.));
#1644 = VECTOR('',#1645,1.);
#1645 = DIRECTION('',(-1.,2.109423746788E-15,1.110223024625E-16));
#1646 = ORIENTED_EDGE('',*,*,#1647,.T.);
#1647 = EDGE_CURVE('',#1640,#1640,#1648,.T.);
#1648 = CIRCLE('',#1649,2.25);
#1649 = AXIS2_PLACEMENT_3D('',#1650,#1651,#1652);
#1650 = CARTESIAN_POINT('',(24.,-45.,15.));
#1651 = DIRECTION('',(1.,-8.881784197001E-16,9.992007221626E-16));
#1652 = DIRECTION('',(8.881784197001E-16,1.,-9.992007221626E-16));
#1653 = ORIENTED_EDGE('',*,*,#1639,.F.);
#1654 = ORIENTED_EDGE('',*,*,#1357,.F.);
#1655 = CYLINDRICAL_SURFACE('',#1656,2.25);
#1656 = AXIS2_PLACEMENT_3D('',#1657,#1658,#1659);
#1657 = CARTESIAN_POINT('',(26.,-45.,15.));
#1658 = DIRECTION('',(1.,-1.7763568394E-15,1.110223024625E-16));
#1659 = DIRECTION('',(1.110223024625E-15,1.,-7.771561172376E-16));
#1660 = ADVANCED_FACE('',(#1661),#1680,.F.);
#1661 = FACE_BOUND('',#1662,.F.);
#1662 = EDGE_LOOP('',(#1663,#1671,#1678,#1679));
#1663 = ORIENTED_EDGE('',*,*,#1664,.T.);
#1664 = EDGE_CURVE('',#1378,#1665,#1667,.T.);
#1665 = VERTEX_POINT('',#1666);
#1666 = CARTESIAN_POINT('',(24.,-12.75,105.));
#1667 = LINE('',#1668,#1669);
#1668 = CARTESIAN_POINT('',(26.,-12.75,105.));
#1669 = VECTOR('',#1670,1.);
#1670 = DIRECTION('',(-1.,2.109423746788E-15,1.110223024625E-16));
#1671 = ORIENTED_EDGE('',*,*,#1672,.T.);
#1672 = EDGE_CURVE('',#1665,#1665,#1673,.T.);
#1673 = CIRCLE('',#1674,2.25);
#1674 = AXIS2_PLACEMENT_3D('',#1675,#1676,#1677);
#1675 = CARTESIAN_POINT('',(24.,-15.,105.));
#1676 = DIRECTION('',(1.,-8.881784197001E-16,9.992007221626E-16));
#1677 = DIRECTION('',(8.881784197001E-16,1.,-9.992007221626E-16));
#1678 = ORIENTED_EDGE('',*,*,#1664,.F.);
#1679 = ORIENTED_EDGE('',*,*,#1377,.F.);
#1680 = CYLINDRICAL_SURFACE('',#1681,2.25);
#1681 = AXIS2_PLACEMENT_3D('',#1682,#1683,#1684);
#1682 = CARTESIAN_POINT('',(26.,-15.,105.));
#1683 = DIRECTION('',(1.,-1.7763568394E-15,1.110223024625E-16));
#1684 = DIRECTION('',(1.110223024625E-15,1.,-7.771561172376E-16));
#1685 = ADVANCED_FACE('',(#1686),#1705,.F.);
#1686 = FACE_BOUND('',#1687,.F.);
#1687 = EDGE_LOOP('',(#1688,#1696,#1703,#1704));
#1688 = ORIENTED_EDGE('',*,*,#1689,.T.);
#1689 = EDGE_CURVE('',#1398,#1690,#1692,.T.);
#1690 = VERTEX_POINT('',#1691);
#1691 = CARTESIAN_POINT('',(24.,-42.75,105.));
#1692 = LINE('',#1693,#1694);
#1693 = CARTESIAN_POINT('',(26.,-42.75,105.));
#1694 = VECTOR('',#1695,1.);
#1695 = DIRECTION('',(-1.,2.109423746788E-15,1.110223024625E-16));
#1696 = ORIENTED_EDGE('',*,*,#1697,.T.);
#1697 = EDGE_CURVE('',#1690,#1690,#1698,.T.);
#1698 = CIRCLE('',#1699,2.25);
#1699 = AXIS2_PLACEMENT_3D('',#1700,#1701,#1702);
#1700 = CARTESIAN_POINT('',(24.,-45.,105.));
#1701 = DIRECTION('',(1.,-8.881784197001E-16,9.992007221626E-16));
#1702 = DIRECTION('',(8.881784197001E-16,1.,-9.992007221626E-16));
#1703 = ORIENTED_EDGE('',*,*,#1689,.F.);
#1704 = ORIENTED_EDGE('',*,*,#1397,.F.);
#1705 = CYLINDRICAL_SURFACE('',#1706,2.25);
#1706 = AXIS2_PLACEMENT_3D('',#1707,#1708,#1709);
#1707 = CARTESIAN_POINT('',(26.,-45.,105.));
#1708 = DIRECTION('',(1.,-1.7763568394E-15,1.110223024625E-16));
#1709 = DIRECTION('',(1.110223024625E-15,1.,-7.771561172376E-16));
#1710 = ADVANCED_FACE('',(#1711,#1714),#1717,.F.);
#1711 = FACE_BOUND('',#1712,.F.);
#1712 = EDGE_LOOP('',(#1713));
#1713 = ORIENTED_EDGE('',*,*,#1422,.F.);
#1714 = FACE_BOUND('',#1715,.F.);
#1715 = EDGE_LOOP('',(#1716));
#1716 = ORIENTED_EDGE('',*,*,#1572,.F.);
#1717 = PLANE('',#1718);
#1718 = AXIS2_PLACEMENT_3D('',#1719,#1720,#1721);
#1719 = CARTESIAN_POINT('',(24.,-15.,60.));
#1720 = DIRECTION('',(1.,-2.665638237562E-15,-4.440892098501E-16));
#1721 = DIRECTION('',(1.10297846155E-18,1.,-2.22044604925E-15));
#1722 = ADVANCED_FACE('',(#1723,#1726),#1729,.F.);
#1723 = FACE_BOUND('',#1724,.F.);
#1724 = EDGE_LOOP('',(#1725));
#1725 = ORIENTED_EDGE('',*,*,#1447,.F.);
#1726 = FACE_BOUND('',#1727,.F.);
#1727 = EDGE_LOOP('',(#1728));
#1728 = ORIENTED_EDGE('',*,*,#1597,.F.);
#1729 = PLANE('',#1730);
#1730 = AXIS2_PLACEMENT_3D('',#1731,#1732,#1733);
#1731 = CARTESIAN_POINT('',(24.,-15.,60.));
#1732 = DIRECTION('',(1.,-2.665638237562E-15,-4.440892098501E-16));
#1733 = DIRECTION('',(1.10297846155E-18,1.,-2.22044604925E-15));
#1734 = ADVANCED_FACE('',(#1735,#1738),#1741,.F.);
#1735 = FACE_BOUND('',#1736,.F.);
#1736 = EDGE_LOOP('',(#1737));
#1737 = ORIENTED_EDGE('',*,*,#1472,.F.);
#1738 = FACE_BOUND('',#1739,.F.);
#1739 = EDGE_LOOP('',(#1740));
#1740 = ORIENTED_EDGE('',*,*,#1622,.F.);
#1741 = PLANE('',#1742);
#1742 = AXIS2_PLACEMENT_3D('',#1743,#1744,#1745);
#1743 = CARTESIAN_POINT('',(24.,-15.,60.));
#1744 = DIRECTION('',(1.,-2.665638237562E-15,-4.440892098501E-16));
#1745 = DIRECTION('',(1.10297846155E-18,1.,-2.22044604925E-15));
#1746 = ADVANCED_FACE('',(#1747,#1750),#1753,.F.);
#1747 = FACE_BOUND('',#1748,.F.);
#1748 = EDGE_LOOP('',(#1749));
#1749 = ORIENTED_EDGE('',*,*,#1497,.F.);
#1750 = FACE_BOUND('',#1751,.F.);
#1751 = EDGE_LOOP('',(#1752));
#1752 = ORIENTED_EDGE('',*,*,#1647,.F.);
#1753 = PLANE('',#1754);
#1754 = AXIS2_PLACEMENT_3D('',#1755,#1756,#1757);
#1755 = CARTESIAN_POINT('',(24.,-15.,60.));
#1756 = DIRECTION('',(1.,-2.665638237562E-15,-4.440892098501E-16));
#1757 = DIRECTION('',(1.10297846155E-18,1.,-2.22044604925E-15));
#1758 = ADVANCED_FACE('',(#1759,#1762),#1765,.F.);
#1759 = FACE_BOUND('',#1760,.F.);
#1760 = EDGE_LOOP('',(#1761));
#1761 = ORIENTED_EDGE('',*,*,#1522,.F.);
#1762 = FACE_BOUND('',#1763,.F.);
#1763 = EDGE_LOOP('',(#1764));
#1764 = ORIENTED_EDGE('',*,*,#1672,.F.);
#1765 = PLANE('',#1766);
#1766 = AXIS2_PLACEMENT_3D('',#1767,#1768,#1769);
#1767 = CARTESIAN_POINT('',(24.,-15.,60.));
#1768 = DIRECTION('',(1.,-2.665638237562E-15,-4.440892098501E-16));
#1769 = DIRECTION('',(1.10297846155E-18,1.,-2.22044604925E-15));
#1770 = ADVANCED_FACE('',(#1771,#1774),#1777,.F.);
#1771 = FACE_BOUND('',#1772,.F.);
#1772 = EDGE_LOOP('',(#1773));
#1773 = ORIENTED_EDGE('',*,*,#1547,.F.);
#1774 = FACE_BOUND('',#1775,.F.);
#1775 = EDGE_LOOP('',(#1776));
#1776 = ORIENTED_EDGE('',*,*,#1697,.F.);
#1777 = PLANE('',#1778);
#1778 = AXIS2_PLACEMENT_3D('',#1779,#1780,#1781);
#1779 = CARTESIAN_POINT('',(24.,-15.,60.));
#1780 = DIRECTION('',(1.,-2.665638237562E-15,-4.440892098501E-16));
#1781 = DIRECTION('',(1.10297846155E-18,1.,-2.22044604925E-15));
#1782 = ( GEOMETRIC_REPRESENTATION_CONTEXT(3) 
GLOBAL_UNCERTAINTY_ASSIGNED_CONTEXT((#1786)) 
GLOBAL_UNIT_ASSIGNED_CONTEXT((#1783,#1784,#1785)) REPRESENTATION_CONTEXT
('Context #1','3D Context with UNIT and UNCERTAINTY') );
#1783 = ( LENGTH_UNIT() NAMED_UNIT(*) SI_UNIT(.MILLI.,.METRE.) );
#1784 = ( NAMED_UNIT(*) PLANE_ANGLE_UNIT() SI_UNIT($,.RADIAN.) );
#1785 = ( NAMED_UNIT(*) SI_UNIT($,.STERADIAN.) SOLID_ANGLE_UNIT() );
#1786 = UNCERTAINTY_MEASURE_WITH_UNIT(LENGTH_MEASURE(1.E-07),#1783,
  'distance_accuracy_value','confusion accuracy');
#1787 = PRODUCT_RELATED_PRODUCT_CATEGORY('part',$,(#7));
#1788 = MECHANICAL_DESIGN_GEOMETRIC_PRESENTATION_REPRESENTATION('',(
    #1789),#1782);
#1789 = STYLED_ITEM('color',(#1790),#15);
#1790 = PRESENTATION_STYLE_ASSIGNMENT((#1791,#1797));
#1791 = SURFACE_STYLE_USAGE(.BOTH.,#1792);
#1792 = SURFACE_SIDE_STYLE('',(#1793));
#1793 = SURFACE_STYLE_FILL_AREA(#1794);
#1794 = FILL_AREA_STYLE('',(#1795));
#1795 = FILL_AREA_STYLE_COLOUR('',#1796);
#1796 = COLOUR_RGB('',0.447058818107,0.474509808674,0.501960817233);
#1797 = CURVE_STYLE('',#1798,POSITIVE_LENGTH_MEASURE(0.1),#1799);
#1798 = DRAUGHTING_PRE_DEFINED_CURVE_FONT('continuous');
#1799 = COLOUR_RGB('',9.803921802644E-02,9.803921802644E-02,
  9.803921802644E-02);
ENDSEC;
END-ISO-10303-21;
