ISO-10303-21;
HEADER;
FILE_DESCRIPTION(('FreeCAD Model'),'2;1');
FILE_NAME('Open CASCADE Shape Model','2026-01-10T17:19:14',(''),(''),
  'Open CASCADE STEP processor 7.7','FreeCAD','Unknown');
FILE_SCHEMA(('AUTOMOTIVE_DESIGN { 1 0 10303 214 1 1 1 1 }'));
ENDSEC;
DATA;
#1 = APPLICATION_PROTOCOL_DEFINITION('international standard',
  'automotive_design',2000,#2);
#2 = APPLICATION_CONTEXT(
  'core data for automotive mechanical design processes');
#3 = SHAPE_DEFINITION_REPRESENTATION(#4,#10);
#4 = PRODUCT_DEFINITION_SHAPE('','',#5);
#5 = PRODUCT_DEFINITION('design','',#6,#9);
#6 = PRODUCT_DEFINITION_FORMATION('','',#7);
#7 = PRODUCT('fan_attachment','fan_attachment','',(#8));
#8 = PRODUCT_CONTEXT('',#2,'mechanical');
#9 = PRODUCT_DEFINITION_CONTEXT('part definition',#2,'design');
#10 = ADVANCED_BREP_SHAPE_REPRESENTATION('',(#11,#15),#1821);
#11 = AXIS2_PLACEMENT_3D('',#12,#13,#14);
#12 = CARTESIAN_POINT('',(0.,0.,0.));
#13 = DIRECTION('',(0.,0.,1.));
#14 = DIRECTION('',(1.,0.,-0.));
#15 = MANIFOLD_SOLID_BREP('',#16);
#16 = CLOSED_SHELL('',(#17,#57,#88,#119,#434,#485,#531,#562,#586,#610,
    #634,#658,#675,#706,#730,#754,#778,#802,#819,#850,#874,#898,#922,
    #946,#963,#1017,#1041,#1065,#1089,#1113,#1153,#1227,#1251,#1275,
    #1299,#1323,#1349,#1380,#1404,#1428,#1452,#1476,#1493,#1515,#1532,
    #1549,#1561,#1586,#1611,#1636,#1659,#1682,#1705,#1728,#1753,#1770,
    #1787,#1804));
#17 = ADVANCED_FACE('',(#18),#52,.F.);
#18 = FACE_BOUND('',#19,.F.);
#19 = EDGE_LOOP('',(#20,#30,#38,#46));
#20 = ORIENTED_EDGE('',*,*,#21,.T.);
#21 = EDGE_CURVE('',#22,#24,#26,.T.);
#22 = VERTEX_POINT('',#23);
#23 = CARTESIAN_POINT('',(-62.,0.,-0.));
#24 = VERTEX_POINT('',#25);
#25 = CARTESIAN_POINT('',(-62.,-31.,0.));
#26 = LINE('',#27,#28);
#27 = CARTESIAN_POINT('',(-62.,0.,0.));
#28 = VECTOR('',#29,1.);
#29 = DIRECTION('',(0.,-1.,2.2E-16));
#30 = ORIENTED_EDGE('',*,*,#31,.T.);
#31 = EDGE_CURVE('',#24,#32,#34,.T.);
#32 = VERTEX_POINT('',#33);
#33 = CARTESIAN_POINT('',(62.,-31.,0.));
#34 = LINE('',#35,#36);
#35 = CARTESIAN_POINT('',(-62.,-31.,-7.105427357601E-15));
#36 = VECTOR('',#37,1.);
#37 = DIRECTION('',(1.,0.,0.));
#38 = ORIENTED_EDGE('',*,*,#39,.F.);
#39 = EDGE_CURVE('',#40,#32,#42,.T.);
#40 = VERTEX_POINT('',#41);
#41 = CARTESIAN_POINT('',(62.,0.,0.));
#42 = LINE('',#43,#44);
#43 = CARTESIAN_POINT('',(62.,0.,0.));
#44 = VECTOR('',#45,1.);
#45 = DIRECTION('',(0.,-1.,2.2E-16));
#46 = ORIENTED_EDGE('',*,*,#47,.F.);
#47 = EDGE_CURVE('',#22,#40,#48,.T.);
#48 = LINE('',#49,#50);
#49 = CARTESIAN_POINT('',(-62.,0.,0.));
#50 = VECTOR('',#51,1.);
#51 = DIRECTION('',(1.,0.,0.));
#52 = PLANE('',#53);
#53 = AXIS2_PLACEMENT_3D('',#54,#55,#56);
#54 = CARTESIAN_POINT('',(-62.,0.,0.));
#55 = DIRECTION('',(0.,2.2E-16,1.));
#56 = DIRECTION('',(1.,0.,0.));
#57 = ADVANCED_FACE('',(#58),#83,.F.);
#58 = FACE_BOUND('',#59,.F.);
#59 = EDGE_LOOP('',(#60,#70,#76,#77));
#60 = ORIENTED_EDGE('',*,*,#61,.T.);
#61 = EDGE_CURVE('',#62,#64,#66,.T.);
#62 = VERTEX_POINT('',#63);
#63 = CARTESIAN_POINT('',(-62.,0.,124.));
#64 = VERTEX_POINT('',#65);
#65 = CARTESIAN_POINT('',(-62.,-31.,124.));
#66 = LINE('',#67,#68);
#67 = CARTESIAN_POINT('',(-62.,2.753E-14,124.));
#68 = VECTOR('',#69,1.);
#69 = DIRECTION('',(0.,-1.,2.2E-16));
#70 = ORIENTED_EDGE('',*,*,#71,.T.);
#71 = EDGE_CURVE('',#64,#24,#72,.T.);
#72 = LINE('',#73,#74);
#73 = CARTESIAN_POINT('',(-62.,-31.,124.));
#74 = VECTOR('',#75,1.);
#75 = DIRECTION('',(0.,2.2E-16,-1.));
#76 = ORIENTED_EDGE('',*,*,#21,.F.);
#77 = ORIENTED_EDGE('',*,*,#78,.F.);
#78 = EDGE_CURVE('',#62,#22,#79,.T.);
#79 = LINE('',#80,#81);
#80 = CARTESIAN_POINT('',(-62.,-2.753E-14,124.));
#81 = VECTOR('',#82,1.);
#82 = DIRECTION('',(0.,2.2E-16,-1.));
#83 = PLANE('',#84);
#84 = AXIS2_PLACEMENT_3D('',#85,#86,#87);
#85 = CARTESIAN_POINT('',(-62.,2.753E-14,124.));
#86 = DIRECTION('',(1.,0.,0.));
#87 = DIRECTION('',(0.,-2.2E-16,-1.));
#88 = ADVANCED_FACE('',(#89),#114,.F.);
#89 = FACE_BOUND('',#90,.F.);
#90 = EDGE_LOOP('',(#91,#92,#100,#108));
#91 = ORIENTED_EDGE('',*,*,#39,.T.);
#92 = ORIENTED_EDGE('',*,*,#93,.T.);
#93 = EDGE_CURVE('',#32,#94,#96,.T.);
#94 = VERTEX_POINT('',#95);
#95 = CARTESIAN_POINT('',(62.,-31.,124.));
#96 = LINE('',#97,#98);
#97 = CARTESIAN_POINT('',(62.,-31.,-7.105427357601E-15));
#98 = VECTOR('',#99,1.);
#99 = DIRECTION('',(0.,-2.2E-16,1.));
#100 = ORIENTED_EDGE('',*,*,#101,.F.);
#101 = EDGE_CURVE('',#102,#94,#104,.T.);
#102 = VERTEX_POINT('',#103);
#103 = CARTESIAN_POINT('',(62.,0.,124.));
#104 = LINE('',#105,#106);
#105 = CARTESIAN_POINT('',(62.,2.753E-14,124.));
#106 = VECTOR('',#107,1.);
#107 = DIRECTION('',(0.,-1.,2.2E-16));
#108 = ORIENTED_EDGE('',*,*,#109,.F.);
#109 = EDGE_CURVE('',#40,#102,#110,.T.);
#110 = LINE('',#111,#112);
#111 = CARTESIAN_POINT('',(62.,0.,0.));
#112 = VECTOR('',#113,1.);
#113 = DIRECTION('',(0.,-2.2E-16,1.));
#114 = PLANE('',#115);
#115 = AXIS2_PLACEMENT_3D('',#116,#117,#118);
#116 = CARTESIAN_POINT('',(62.,0.,0.));
#117 = DIRECTION('',(-1.,0.,0.));
#118 = DIRECTION('',(0.,2.2E-16,1.));
#119 = ADVANCED_FACE('',(#120,#131,#181,#231,#281,#379),#429,.T.);
#120 = FACE_BOUND('',#121,.T.);
#121 = EDGE_LOOP('',(#122,#123,#124,#130));
#122 = ORIENTED_EDGE('',*,*,#47,.F.);
#123 = ORIENTED_EDGE('',*,*,#78,.F.);
#124 = ORIENTED_EDGE('',*,*,#125,.F.);
#125 = EDGE_CURVE('',#102,#62,#126,.T.);
#126 = LINE('',#127,#128);
#127 = CARTESIAN_POINT('',(62.,-2.753E-14,124.));
#128 = VECTOR('',#129,1.);
#129 = DIRECTION('',(-1.,0.,0.));
#130 = ORIENTED_EDGE('',*,*,#109,.F.);
#131 = FACE_BOUND('',#132,.T.);
#132 = EDGE_LOOP('',(#133,#143,#151,#159,#167,#175));
#133 = ORIENTED_EDGE('',*,*,#134,.F.);
#134 = EDGE_CURVE('',#135,#137,#139,.T.);
#135 = VERTEX_POINT('',#136);
#136 = CARTESIAN_POINT('',(-48.75,1.1E-14,7.084936490539));
#137 = VERTEX_POINT('',#138);
#138 = CARTESIAN_POINT('',(-52.5,1.2E-14,4.919872981078));
#139 = LINE('',#140,#141);
#140 = CARTESIAN_POINT('',(-48.75,1.219E-14,7.084936490539));
#141 = VECTOR('',#142,1.);
#142 = DIRECTION('',(-0.866025403784,1.1E-16,-0.5));
#143 = ORIENTED_EDGE('',*,*,#144,.F.);
#144 = EDGE_CURVE('',#145,#135,#147,.T.);
#145 = VERTEX_POINT('',#146);
#146 = CARTESIAN_POINT('',(-48.75,9.E-15,11.415063509461));
#147 = LINE('',#148,#149);
#148 = CARTESIAN_POINT('',(-48.75,1.123E-14,11.415063509461));
#149 = VECTOR('',#150,1.);
#150 = DIRECTION('',(0.,2.2E-16,-1.));
#151 = ORIENTED_EDGE('',*,*,#152,.F.);
#152 = EDGE_CURVE('',#153,#145,#155,.T.);
#153 = VERTEX_POINT('',#154);
#154 = CARTESIAN_POINT('',(-52.5,8.E-15,13.580127018922));
#155 = LINE('',#156,#157);
#156 = CARTESIAN_POINT('',(-52.5,1.075E-14,13.580127018922));
#157 = VECTOR('',#158,1.);
#158 = DIRECTION('',(0.866025403784,1.1E-16,-0.5));
#159 = ORIENTED_EDGE('',*,*,#160,.F.);
#160 = EDGE_CURVE('',#161,#153,#163,.T.);
#161 = VERTEX_POINT('',#162);
#162 = CARTESIAN_POINT('',(-56.25,9.E-15,11.415063509461));
#163 = LINE('',#164,#165);
#164 = CARTESIAN_POINT('',(-56.25,1.123E-14,11.415063509461));
#165 = VECTOR('',#166,1.);
#166 = DIRECTION('',(0.866025403784,-1.1E-16,0.5));
#167 = ORIENTED_EDGE('',*,*,#168,.F.);
#168 = EDGE_CURVE('',#169,#161,#171,.T.);
#169 = VERTEX_POINT('',#170);
#170 = CARTESIAN_POINT('',(-56.25,1.1E-14,7.084936490539));
#171 = LINE('',#172,#173);
#172 = CARTESIAN_POINT('',(-56.25,1.219E-14,7.084936490539));
#173 = VECTOR('',#174,1.);
#174 = DIRECTION('',(0.,-2.2E-16,1.));
#175 = ORIENTED_EDGE('',*,*,#176,.F.);
#176 = EDGE_CURVE('',#137,#169,#177,.T.);
#177 = LINE('',#178,#179);
#178 = CARTESIAN_POINT('',(-52.5,1.267E-14,4.919872981078));
#179 = VECTOR('',#180,1.);
#180 = DIRECTION('',(-0.866025403784,-1.1E-16,0.5));
#181 = FACE_BOUND('',#182,.T.);
#182 = EDGE_LOOP('',(#183,#193,#201,#209,#217,#225));
#183 = ORIENTED_EDGE('',*,*,#184,.F.);
#184 = EDGE_CURVE('',#185,#187,#189,.T.);
#185 = VERTEX_POINT('',#186);
#186 = CARTESIAN_POINT('',(-48.75,-3.6E-14,112.08493649053));
#187 = VERTEX_POINT('',#188);
#188 = CARTESIAN_POINT('',(-52.5,-3.5E-14,109.91987298107));
#189 = LINE('',#190,#191);
#190 = CARTESIAN_POINT('',(-48.75,-1.112E-14,112.08493649053));
#191 = VECTOR('',#192,1.);
#192 = DIRECTION('',(-0.866025403784,1.1E-16,-0.5));
#193 = ORIENTED_EDGE('',*,*,#194,.F.);
#194 = EDGE_CURVE('',#195,#185,#197,.T.);
#195 = VERTEX_POINT('',#196);
#196 = CARTESIAN_POINT('',(-48.75,-3.8E-14,116.41506350946));
#197 = LINE('',#198,#199);
#198 = CARTESIAN_POINT('',(-48.75,-1.208E-14,116.41506350946));
#199 = VECTOR('',#200,1.);
#200 = DIRECTION('',(0.,2.2E-16,-1.));
#201 = ORIENTED_EDGE('',*,*,#202,.F.);
#202 = EDGE_CURVE('',#203,#195,#205,.T.);
#203 = VERTEX_POINT('',#204);
#204 = CARTESIAN_POINT('',(-52.5,-3.9E-14,118.58012701892));
#205 = LINE('',#206,#207);
#206 = CARTESIAN_POINT('',(-52.5,-1.256E-14,118.58012701892));
#207 = VECTOR('',#208,1.);
#208 = DIRECTION('',(0.866025403784,1.1E-16,-0.5));
#209 = ORIENTED_EDGE('',*,*,#210,.F.);
#210 = EDGE_CURVE('',#211,#203,#213,.T.);
#211 = VERTEX_POINT('',#212);
#212 = CARTESIAN_POINT('',(-56.25,-3.8E-14,116.41506350946));
#213 = LINE('',#214,#215);
#214 = CARTESIAN_POINT('',(-56.25,-1.208E-14,116.41506350946));
#215 = VECTOR('',#216,1.);
#216 = DIRECTION('',(0.866025403784,-1.1E-16,0.5));
#217 = ORIENTED_EDGE('',*,*,#218,.F.);
#218 = EDGE_CURVE('',#219,#211,#221,.T.);
#219 = VERTEX_POINT('',#220);
#220 = CARTESIAN_POINT('',(-56.25,-3.6E-14,112.08493649053));
#221 = LINE('',#222,#223);
#222 = CARTESIAN_POINT('',(-56.25,-1.112E-14,112.08493649053));
#223 = VECTOR('',#224,1.);
#224 = DIRECTION('',(0.,-2.2E-16,1.));
#225 = ORIENTED_EDGE('',*,*,#226,.F.);
#226 = EDGE_CURVE('',#187,#219,#227,.T.);
#227 = LINE('',#228,#229);
#228 = CARTESIAN_POINT('',(-52.5,-1.064E-14,109.91987298107));
#229 = VECTOR('',#230,1.);
#230 = DIRECTION('',(-0.866025403784,-1.1E-16,0.5));
#231 = FACE_BOUND('',#232,.T.);
#232 = EDGE_LOOP('',(#233,#243,#251,#259,#267,#275));
#233 = ORIENTED_EDGE('',*,*,#234,.F.);
#234 = EDGE_CURVE('',#235,#237,#239,.T.);
#235 = VERTEX_POINT('',#236);
#236 = CARTESIAN_POINT('',(52.5,1.2E-14,4.919872981078));
#237 = VERTEX_POINT('',#238);
#238 = CARTESIAN_POINT('',(48.75,1.1E-14,7.084936490539));
#239 = LINE('',#240,#241);
#240 = CARTESIAN_POINT('',(52.5,1.267E-14,4.919872981078));
#241 = VECTOR('',#242,1.);
#242 = DIRECTION('',(-0.866025403784,-1.1E-16,0.5));
#243 = ORIENTED_EDGE('',*,*,#244,.F.);
#244 = EDGE_CURVE('',#245,#235,#247,.T.);
#245 = VERTEX_POINT('',#246);
#246 = CARTESIAN_POINT('',(56.25,1.1E-14,7.084936490539));
#247 = LINE('',#248,#249);
#248 = CARTESIAN_POINT('',(56.25,1.219E-14,7.084936490539));
#249 = VECTOR('',#250,1.);
#250 = DIRECTION('',(-0.866025403784,1.1E-16,-0.5));
#251 = ORIENTED_EDGE('',*,*,#252,.F.);
#252 = EDGE_CURVE('',#253,#245,#255,.T.);
#253 = VERTEX_POINT('',#254);
#254 = CARTESIAN_POINT('',(56.25,9.E-15,11.415063509461));
#255 = LINE('',#256,#257);
#256 = CARTESIAN_POINT('',(56.25,1.123E-14,11.415063509461));
#257 = VECTOR('',#258,1.);
#258 = DIRECTION('',(0.,2.2E-16,-1.));
#259 = ORIENTED_EDGE('',*,*,#260,.F.);
#260 = EDGE_CURVE('',#261,#253,#263,.T.);
#261 = VERTEX_POINT('',#262);
#262 = CARTESIAN_POINT('',(52.5,8.E-15,13.580127018922));
#263 = LINE('',#264,#265);
#264 = CARTESIAN_POINT('',(52.5,1.075E-14,13.580127018922));
#265 = VECTOR('',#266,1.);
#266 = DIRECTION('',(0.866025403784,1.1E-16,-0.5));
#267 = ORIENTED_EDGE('',*,*,#268,.F.);
#268 = EDGE_CURVE('',#269,#261,#271,.T.);
#269 = VERTEX_POINT('',#270);
#270 = CARTESIAN_POINT('',(48.75,9.E-15,11.415063509461));
#271 = LINE('',#272,#273);
#272 = CARTESIAN_POINT('',(48.75,1.123E-14,11.415063509461));
#273 = VECTOR('',#274,1.);
#274 = DIRECTION('',(0.866025403784,-1.1E-16,0.5));
#275 = ORIENTED_EDGE('',*,*,#276,.F.);
#276 = EDGE_CURVE('',#237,#269,#277,.T.);
#277 = LINE('',#278,#279);
#278 = CARTESIAN_POINT('',(48.75,1.219E-14,7.084936490539));
#279 = VECTOR('',#280,1.);
#280 = DIRECTION('',(0.,-2.2E-16,1.));
#281 = FACE_BOUND('',#282,.T.);
#282 = EDGE_LOOP('',(#283,#293,#301,#309,#317,#325,#333,#341,#349,#357,
    #365,#373));
#283 = ORIENTED_EDGE('',*,*,#284,.F.);
#284 = EDGE_CURVE('',#285,#287,#289,.T.);
#285 = VERTEX_POINT('',#286);
#286 = CARTESIAN_POINT('',(-60.24999999998,7.E-15,16.749999999981));
#287 = VERTEX_POINT('',#288);
#288 = CARTESIAN_POINT('',(-60.24999999998,7.E-15,107.24999999998));
#289 = LINE('',#290,#291);
#290 = CARTESIAN_POINT('',(-60.24999999998,1.3E-15,16.749999999981));
#291 = VECTOR('',#292,1.);
#292 = DIRECTION('',(0.,-2.2E-16,1.));
#293 = ORIENTED_EDGE('',*,*,#294,.T.);
#294 = EDGE_CURVE('',#285,#295,#297,.T.);
#295 = VERTEX_POINT('',#296);
#296 = CARTESIAN_POINT('',(-45.25,7.E-15,16.749999999981));
#297 = LINE('',#298,#299);
#298 = CARTESIAN_POINT('',(-60.24999999998,1.3E-15,16.749999999981));
#299 = VECTOR('',#300,1.);
#300 = DIRECTION('',(1.,0.,0.));
#301 = ORIENTED_EDGE('',*,*,#302,.T.);
#302 = EDGE_CURVE('',#295,#303,#305,.T.);
#303 = VERTEX_POINT('',#304);
#304 = CARTESIAN_POINT('',(-45.25,7.E-15,1.75));
#305 = LINE('',#306,#307);
#306 = CARTESIAN_POINT('',(-45.25,1.3E-15,16.749999999981));
#307 = VECTOR('',#308,1.);
#308 = DIRECTION('',(0.,2.2E-16,-1.));
#309 = ORIENTED_EDGE('',*,*,#310,.F.);
#310 = EDGE_CURVE('',#311,#303,#313,.T.);
#311 = VERTEX_POINT('',#312);
#312 = CARTESIAN_POINT('',(45.25,7.E-15,1.75));
#313 = LINE('',#314,#315);
#314 = CARTESIAN_POINT('',(45.25,4.63E-15,1.75));
#315 = VECTOR('',#316,1.);
#316 = DIRECTION('',(-1.,0.,0.));
#317 = ORIENTED_EDGE('',*,*,#318,.F.);
#318 = EDGE_CURVE('',#319,#311,#321,.T.);
#319 = VERTEX_POINT('',#320);
#320 = CARTESIAN_POINT('',(45.25,7.E-15,16.75));
#321 = LINE('',#322,#323);
#322 = CARTESIAN_POINT('',(45.25,1.3E-15,16.75));
#323 = VECTOR('',#324,1.);
#324 = DIRECTION('',(0.,2.2E-16,-1.));
#325 = ORIENTED_EDGE('',*,*,#326,.F.);
#326 = EDGE_CURVE('',#327,#319,#329,.T.);
#327 = VERTEX_POINT('',#328);
#328 = CARTESIAN_POINT('',(60.25,7.E-15,16.75));
#329 = LINE('',#330,#331);
#330 = CARTESIAN_POINT('',(60.25,1.3E-15,16.75));
#331 = VECTOR('',#332,1.);
#332 = DIRECTION('',(-1.,0.,0.));
#333 = ORIENTED_EDGE('',*,*,#334,.F.);
#334 = EDGE_CURVE('',#335,#327,#337,.T.);
#335 = VERTEX_POINT('',#336);
#336 = CARTESIAN_POINT('',(60.25,7.E-15,107.24999999998));
#337 = LINE('',#338,#339);
#338 = CARTESIAN_POINT('',(60.25,-1.879E-14,107.24999999998));
#339 = VECTOR('',#340,1.);
#340 = DIRECTION('',(0.,2.2E-16,-1.));
#341 = ORIENTED_EDGE('',*,*,#342,.F.);
#342 = EDGE_CURVE('',#343,#335,#345,.T.);
#343 = VERTEX_POINT('',#344);
#344 = CARTESIAN_POINT('',(45.250000000009,7.E-15,107.24999999998));
#345 = LINE('',#346,#347);
#346 = CARTESIAN_POINT('',(45.250000000009,-1.879E-14,107.24999999998));
#347 = VECTOR('',#348,1.);
#348 = DIRECTION('',(1.,0.,0.));
#349 = ORIENTED_EDGE('',*,*,#350,.F.);
#350 = EDGE_CURVE('',#351,#343,#353,.T.);
#351 = VERTEX_POINT('',#352);
#352 = CARTESIAN_POINT('',(45.250000000009,7.E-15,122.24999999997));
#353 = LINE('',#354,#355);
#354 = CARTESIAN_POINT('',(45.250000000009,-2.212E-14,122.24999999997));
#355 = VECTOR('',#356,1.);
#356 = DIRECTION('',(0.,2.2E-16,-1.));
#357 = ORIENTED_EDGE('',*,*,#358,.F.);
#358 = EDGE_CURVE('',#359,#351,#361,.T.);
#359 = VERTEX_POINT('',#360);
#360 = CARTESIAN_POINT('',(-45.24999999999,7.E-15,122.24999999997));
#361 = LINE('',#362,#363);
#362 = CARTESIAN_POINT('',(-45.24999999999,-2.212E-14,122.24999999997));
#363 = VECTOR('',#364,1.);
#364 = DIRECTION('',(1.,0.,0.));
#365 = ORIENTED_EDGE('',*,*,#366,.T.);
#366 = EDGE_CURVE('',#359,#367,#369,.T.);
#367 = VERTEX_POINT('',#368);
#368 = CARTESIAN_POINT('',(-45.24999999999,7.E-15,107.24999999998));
#369 = LINE('',#370,#371);
#370 = CARTESIAN_POINT('',(-45.24999999999,-2.212E-14,122.24999999997));
#371 = VECTOR('',#372,1.);
#372 = DIRECTION('',(0.,2.2E-16,-1.));
#373 = ORIENTED_EDGE('',*,*,#374,.F.);
#374 = EDGE_CURVE('',#287,#367,#375,.T.);
#375 = LINE('',#376,#377);
#376 = CARTESIAN_POINT('',(-60.24999999998,-1.879E-14,107.24999999998));
#377 = VECTOR('',#378,1.);
#378 = DIRECTION('',(1.,0.,0.));
#379 = FACE_BOUND('',#380,.T.);
#380 = EDGE_LOOP('',(#381,#391,#399,#407,#415,#423));
#381 = ORIENTED_EDGE('',*,*,#382,.F.);
#382 = EDGE_CURVE('',#383,#385,#387,.T.);
#383 = VERTEX_POINT('',#384);
#384 = CARTESIAN_POINT('',(56.25,-3.6E-14,112.08493649053));
#385 = VERTEX_POINT('',#386);
#386 = CARTESIAN_POINT('',(52.5,-3.5E-14,109.91987298107));
#387 = LINE('',#388,#389);
#388 = CARTESIAN_POINT('',(56.25,-1.112E-14,112.08493649053));
#389 = VECTOR('',#390,1.);
#390 = DIRECTION('',(-0.866025403784,1.1E-16,-0.5));
#391 = ORIENTED_EDGE('',*,*,#392,.F.);
#392 = EDGE_CURVE('',#393,#383,#395,.T.);
#393 = VERTEX_POINT('',#394);
#394 = CARTESIAN_POINT('',(56.25,-3.8E-14,116.41506350946));
#395 = LINE('',#396,#397);
#396 = CARTESIAN_POINT('',(56.25,-1.208E-14,116.41506350946));
#397 = VECTOR('',#398,1.);
#398 = DIRECTION('',(0.,2.2E-16,-1.));
#399 = ORIENTED_EDGE('',*,*,#400,.F.);
#400 = EDGE_CURVE('',#401,#393,#403,.T.);
#401 = VERTEX_POINT('',#402);
#402 = CARTESIAN_POINT('',(52.5,-3.9E-14,118.58012701892));
#403 = LINE('',#404,#405);
#404 = CARTESIAN_POINT('',(52.5,-1.256E-14,118.58012701892));
#405 = VECTOR('',#406,1.);
#406 = DIRECTION('',(0.866025403784,1.1E-16,-0.5));
#407 = ORIENTED_EDGE('',*,*,#408,.F.);
#408 = EDGE_CURVE('',#409,#401,#411,.T.);
#409 = VERTEX_POINT('',#410);
#410 = CARTESIAN_POINT('',(48.75,-3.8E-14,116.41506350946));
#411 = LINE('',#412,#413);
#412 = CARTESIAN_POINT('',(48.75,-1.208E-14,116.41506350946));
#413 = VECTOR('',#414,1.);
#414 = DIRECTION('',(0.866025403784,-1.1E-16,0.5));
#415 = ORIENTED_EDGE('',*,*,#416,.F.);
#416 = EDGE_CURVE('',#417,#409,#419,.T.);
#417 = VERTEX_POINT('',#418);
#418 = CARTESIAN_POINT('',(48.75,-3.6E-14,112.08493649053));
#419 = LINE('',#420,#421);
#420 = CARTESIAN_POINT('',(48.75,-1.112E-14,112.08493649053));
#421 = VECTOR('',#422,1.);
#422 = DIRECTION('',(0.,-2.2E-16,1.));
#423 = ORIENTED_EDGE('',*,*,#424,.F.);
#424 = EDGE_CURVE('',#385,#417,#425,.T.);
#425 = LINE('',#426,#427);
#426 = CARTESIAN_POINT('',(52.5,-1.064E-14,109.91987298107));
#427 = VECTOR('',#428,1.);
#428 = DIRECTION('',(-0.866025403784,-1.1E-16,0.5));
#429 = PLANE('',#430);
#430 = AXIS2_PLACEMENT_3D('',#431,#432,#433);
#431 = CARTESIAN_POINT('',(0.,0.,62.));
#432 = DIRECTION('',(0.,1.,2.2E-16));
#433 = DIRECTION('',(0.,-2.2E-16,1.));
#434 = ADVANCED_FACE('',(#435,#446),#480,.F.);
#435 = FACE_BOUND('',#436,.F.);
#436 = EDGE_LOOP('',(#437,#438,#439,#445));
#437 = ORIENTED_EDGE('',*,*,#31,.F.);
#438 = ORIENTED_EDGE('',*,*,#71,.F.);
#439 = ORIENTED_EDGE('',*,*,#440,.F.);
#440 = EDGE_CURVE('',#94,#64,#441,.T.);
#441 = LINE('',#442,#443);
#442 = CARTESIAN_POINT('',(62.,-31.,124.));
#443 = VECTOR('',#444,1.);
#444 = DIRECTION('',(-1.,0.,0.));
#445 = ORIENTED_EDGE('',*,*,#93,.F.);
#446 = FACE_BOUND('',#447,.F.);
#447 = EDGE_LOOP('',(#448,#458,#466,#474));
#448 = ORIENTED_EDGE('',*,*,#449,.T.);
#449 = EDGE_CURVE('',#450,#452,#454,.T.);
#450 = VERTEX_POINT('',#451);
#451 = CARTESIAN_POINT('',(-60.25,-31.,122.25));
#452 = VERTEX_POINT('',#453);
#453 = CARTESIAN_POINT('',(-60.25,-31.,1.75));
#454 = LINE('',#455,#456);
#455 = CARTESIAN_POINT('',(-60.25,-31.,122.25));
#456 = VECTOR('',#457,1.);
#457 = DIRECTION('',(0.,2.2E-16,-1.));
#458 = ORIENTED_EDGE('',*,*,#459,.T.);
#459 = EDGE_CURVE('',#452,#460,#462,.T.);
#460 = VERTEX_POINT('',#461);
#461 = CARTESIAN_POINT('',(60.25,-31.,1.75));
#462 = LINE('',#463,#464);
#463 = CARTESIAN_POINT('',(-60.25,-31.,1.75));
#464 = VECTOR('',#465,1.);
#465 = DIRECTION('',(1.,0.,0.));
#466 = ORIENTED_EDGE('',*,*,#467,.T.);
#467 = EDGE_CURVE('',#460,#468,#470,.T.);
#468 = VERTEX_POINT('',#469);
#469 = CARTESIAN_POINT('',(60.25,-31.,122.25));
#470 = LINE('',#471,#472);
#471 = CARTESIAN_POINT('',(60.25,-31.,1.75));
#472 = VECTOR('',#473,1.);
#473 = DIRECTION('',(0.,-2.2E-16,1.));
#474 = ORIENTED_EDGE('',*,*,#475,.T.);
#475 = EDGE_CURVE('',#468,#450,#476,.T.);
#476 = LINE('',#477,#478);
#477 = CARTESIAN_POINT('',(60.25,-31.,122.25));
#478 = VECTOR('',#479,1.);
#479 = DIRECTION('',(-1.,0.,0.));
#480 = PLANE('',#481);
#481 = AXIS2_PLACEMENT_3D('',#482,#483,#484);
#482 = CARTESIAN_POINT('',(0.,-31.,62.));
#483 = DIRECTION('',(0.,1.,2.2E-16));
#484 = DIRECTION('',(0.,-2.2E-16,1.));
#485 = ADVANCED_FACE('',(#486,#492),#526,.F.);
#486 = FACE_BOUND('',#487,.F.);
#487 = EDGE_LOOP('',(#488,#489,#490,#491));
#488 = ORIENTED_EDGE('',*,*,#101,.T.);
#489 = ORIENTED_EDGE('',*,*,#440,.T.);
#490 = ORIENTED_EDGE('',*,*,#61,.F.);
#491 = ORIENTED_EDGE('',*,*,#125,.F.);
#492 = FACE_BOUND('',#493,.F.);
#493 = EDGE_LOOP('',(#494,#504,#512,#520));
#494 = ORIENTED_EDGE('',*,*,#495,.T.);
#495 = EDGE_CURVE('',#496,#498,#500,.T.);
#496 = VERTEX_POINT('',#497);
#497 = CARTESIAN_POINT('',(-53.,-21.,124.));
#498 = VERTEX_POINT('',#499);
#499 = CARTESIAN_POINT('',(-35.,-21.,124.));
#500 = LINE('',#501,#502);
#501 = CARTESIAN_POINT('',(-53.,-21.,124.));
#502 = VECTOR('',#503,1.);
#503 = DIRECTION('',(1.,0.,0.));
#504 = ORIENTED_EDGE('',*,*,#505,.T.);
#505 = EDGE_CURVE('',#498,#506,#508,.T.);
#506 = VERTEX_POINT('',#507);
#507 = CARTESIAN_POINT('',(-35.,-9.,124.));
#508 = LINE('',#509,#510);
#509 = CARTESIAN_POINT('',(-35.,-21.,124.));
#510 = VECTOR('',#511,1.);
#511 = DIRECTION('',(0.,1.,2.2E-16));
#512 = ORIENTED_EDGE('',*,*,#513,.T.);
#513 = EDGE_CURVE('',#506,#514,#516,.T.);
#514 = VERTEX_POINT('',#515);
#515 = CARTESIAN_POINT('',(-53.,-9.,124.));
#516 = LINE('',#517,#518);
#517 = CARTESIAN_POINT('',(-35.,-9.,124.));
#518 = VECTOR('',#519,1.);
#519 = DIRECTION('',(-1.,0.,0.));
#520 = ORIENTED_EDGE('',*,*,#521,.T.);
#521 = EDGE_CURVE('',#514,#496,#522,.T.);
#522 = LINE('',#523,#524);
#523 = CARTESIAN_POINT('',(-53.,-9.,124.));
#524 = VECTOR('',#525,1.);
#525 = DIRECTION('',(-0.,-1.,-2.2E-16));
#526 = PLANE('',#527);
#527 = AXIS2_PLACEMENT_3D('',#528,#529,#530);
#528 = CARTESIAN_POINT('',(62.,2.753E-14,124.));
#529 = DIRECTION('',(0.,-2.2E-16,-1.));
#530 = DIRECTION('',(-1.,0.,0.));
#531 = ADVANCED_FACE('',(#532),#557,.F.);
#532 = FACE_BOUND('',#533,.F.);
#533 = EDGE_LOOP('',(#534,#542,#550,#556));
#534 = ORIENTED_EDGE('',*,*,#535,.T.);
#535 = EDGE_CURVE('',#135,#536,#538,.T.);
#536 = VERTEX_POINT('',#537);
#537 = CARTESIAN_POINT('',(-48.75,-2.,7.084936490539));
#538 = LINE('',#539,#540);
#539 = CARTESIAN_POINT('',(-48.75,1.219E-14,7.084936490539));
#540 = VECTOR('',#541,1.);
#541 = DIRECTION('',(0.,-1.,-2.2E-16));
#542 = ORIENTED_EDGE('',*,*,#543,.T.);
#543 = EDGE_CURVE('',#536,#544,#546,.T.);
#544 = VERTEX_POINT('',#545);
#545 = CARTESIAN_POINT('',(-52.5,-2.,4.919872981078));
#546 = LINE('',#547,#548);
#547 = CARTESIAN_POINT('',(-48.75,-2.,7.084936490539));
#548 = VECTOR('',#549,1.);
#549 = DIRECTION('',(-0.866025403784,1.1E-16,-0.5));
#550 = ORIENTED_EDGE('',*,*,#551,.F.);
#551 = EDGE_CURVE('',#137,#544,#552,.T.);
#552 = LINE('',#553,#554);
#553 = CARTESIAN_POINT('',(-52.5,1.267E-14,4.919872981078));
#554 = VECTOR('',#555,1.);
#555 = DIRECTION('',(0.,-1.,-2.2E-16));
#556 = ORIENTED_EDGE('',*,*,#134,.F.);
#557 = PLANE('',#558);
#558 = AXIS2_PLACEMENT_3D('',#559,#560,#561);
#559 = CARTESIAN_POINT('',(-48.75,1.219E-14,7.084936490539));
#560 = DIRECTION('',(0.5,1.9E-16,-0.866025403784));
#561 = DIRECTION('',(-0.866025403784,1.1E-16,-0.5));
#562 = ADVANCED_FACE('',(#563),#581,.F.);
#563 = FACE_BOUND('',#564,.F.);
#564 = EDGE_LOOP('',(#565,#566,#574,#580));
#565 = ORIENTED_EDGE('',*,*,#551,.T.);
#566 = ORIENTED_EDGE('',*,*,#567,.T.);
#567 = EDGE_CURVE('',#544,#568,#570,.T.);
#568 = VERTEX_POINT('',#569);
#569 = CARTESIAN_POINT('',(-56.25,-2.,7.084936490539));
#570 = LINE('',#571,#572);
#571 = CARTESIAN_POINT('',(-52.5,-2.,4.919872981078));
#572 = VECTOR('',#573,1.);
#573 = DIRECTION('',(-0.866025403784,-1.1E-16,0.5));
#574 = ORIENTED_EDGE('',*,*,#575,.F.);
#575 = EDGE_CURVE('',#169,#568,#576,.T.);
#576 = LINE('',#577,#578);
#577 = CARTESIAN_POINT('',(-56.25,1.219E-14,7.084936490539));
#578 = VECTOR('',#579,1.);
#579 = DIRECTION('',(0.,-1.,-2.2E-16));
#580 = ORIENTED_EDGE('',*,*,#176,.F.);
#581 = PLANE('',#582);
#582 = AXIS2_PLACEMENT_3D('',#583,#584,#585);
#583 = CARTESIAN_POINT('',(-52.5,1.267E-14,4.919872981078));
#584 = DIRECTION('',(-0.5,1.9E-16,-0.866025403784));
#585 = DIRECTION('',(-0.866025403784,-1.1E-16,0.5));
#586 = ADVANCED_FACE('',(#587),#605,.F.);
#587 = FACE_BOUND('',#588,.F.);
#588 = EDGE_LOOP('',(#589,#590,#598,#604));
#589 = ORIENTED_EDGE('',*,*,#575,.T.);
#590 = ORIENTED_EDGE('',*,*,#591,.T.);
#591 = EDGE_CURVE('',#568,#592,#594,.T.);
#592 = VERTEX_POINT('',#593);
#593 = CARTESIAN_POINT('',(-56.25,-2.,11.415063509461));
#594 = LINE('',#595,#596);
#595 = CARTESIAN_POINT('',(-56.25,-2.,7.084936490539));
#596 = VECTOR('',#597,1.);
#597 = DIRECTION('',(0.,-2.2E-16,1.));
#598 = ORIENTED_EDGE('',*,*,#599,.F.);
#599 = EDGE_CURVE('',#161,#592,#600,.T.);
#600 = LINE('',#601,#602);
#601 = CARTESIAN_POINT('',(-56.25,1.123E-14,11.415063509461));
#602 = VECTOR('',#603,1.);
#603 = DIRECTION('',(0.,-1.,-2.2E-16));
#604 = ORIENTED_EDGE('',*,*,#168,.F.);
#605 = PLANE('',#606);
#606 = AXIS2_PLACEMENT_3D('',#607,#608,#609);
#607 = CARTESIAN_POINT('',(-56.25,1.219E-14,7.084936490539));
#608 = DIRECTION('',(-1.,0.,0.));
#609 = DIRECTION('',(0.,-2.2E-16,1.));
#610 = ADVANCED_FACE('',(#611),#629,.F.);
#611 = FACE_BOUND('',#612,.F.);
#612 = EDGE_LOOP('',(#613,#614,#622,#628));
#613 = ORIENTED_EDGE('',*,*,#599,.T.);
#614 = ORIENTED_EDGE('',*,*,#615,.T.);
#615 = EDGE_CURVE('',#592,#616,#618,.T.);
#616 = VERTEX_POINT('',#617);
#617 = CARTESIAN_POINT('',(-52.5,-2.,13.580127018922));
#618 = LINE('',#619,#620);
#619 = CARTESIAN_POINT('',(-56.25,-2.,11.415063509461));
#620 = VECTOR('',#621,1.);
#621 = DIRECTION('',(0.866025403784,-1.1E-16,0.5));
#622 = ORIENTED_EDGE('',*,*,#623,.F.);
#623 = EDGE_CURVE('',#153,#616,#624,.T.);
#624 = LINE('',#625,#626);
#625 = CARTESIAN_POINT('',(-52.5,1.075E-14,13.580127018922));
#626 = VECTOR('',#627,1.);
#627 = DIRECTION('',(0.,-1.,-2.2E-16));
#628 = ORIENTED_EDGE('',*,*,#160,.F.);
#629 = PLANE('',#630);
#630 = AXIS2_PLACEMENT_3D('',#631,#632,#633);
#631 = CARTESIAN_POINT('',(-56.25,1.123E-14,11.415063509461));
#632 = DIRECTION('',(-0.5,-1.9E-16,0.866025403784));
#633 = DIRECTION('',(0.866025403784,-1.1E-16,0.5));
#634 = ADVANCED_FACE('',(#635),#653,.F.);
#635 = FACE_BOUND('',#636,.F.);
#636 = EDGE_LOOP('',(#637,#638,#646,#652));
#637 = ORIENTED_EDGE('',*,*,#623,.T.);
#638 = ORIENTED_EDGE('',*,*,#639,.T.);
#639 = EDGE_CURVE('',#616,#640,#642,.T.);
#640 = VERTEX_POINT('',#641);
#641 = CARTESIAN_POINT('',(-48.75,-2.,11.415063509461));
#642 = LINE('',#643,#644);
#643 = CARTESIAN_POINT('',(-52.5,-2.,13.580127018922));
#644 = VECTOR('',#645,1.);
#645 = DIRECTION('',(0.866025403784,1.1E-16,-0.5));
#646 = ORIENTED_EDGE('',*,*,#647,.F.);
#647 = EDGE_CURVE('',#145,#640,#648,.T.);
#648 = LINE('',#649,#650);
#649 = CARTESIAN_POINT('',(-48.75,1.123E-14,11.415063509461));
#650 = VECTOR('',#651,1.);
#651 = DIRECTION('',(0.,-1.,-2.2E-16));
#652 = ORIENTED_EDGE('',*,*,#152,.F.);
#653 = PLANE('',#654);
#654 = AXIS2_PLACEMENT_3D('',#655,#656,#657);
#655 = CARTESIAN_POINT('',(-52.5,1.075E-14,13.580127018922));
#656 = DIRECTION('',(0.5,-1.9E-16,0.866025403784));
#657 = DIRECTION('',(0.866025403784,1.1E-16,-0.5));
#658 = ADVANCED_FACE('',(#659),#670,.F.);
#659 = FACE_BOUND('',#660,.F.);
#660 = EDGE_LOOP('',(#661,#662,#668,#669));
#661 = ORIENTED_EDGE('',*,*,#647,.T.);
#662 = ORIENTED_EDGE('',*,*,#663,.T.);
#663 = EDGE_CURVE('',#640,#536,#664,.T.);
#664 = LINE('',#665,#666);
#665 = CARTESIAN_POINT('',(-48.75,-2.,11.415063509461));
#666 = VECTOR('',#667,1.);
#667 = DIRECTION('',(0.,2.2E-16,-1.));
#668 = ORIENTED_EDGE('',*,*,#535,.F.);
#669 = ORIENTED_EDGE('',*,*,#144,.F.);
#670 = PLANE('',#671);
#671 = AXIS2_PLACEMENT_3D('',#672,#673,#674);
#672 = CARTESIAN_POINT('',(-48.75,1.123E-14,11.415063509461));
#673 = DIRECTION('',(1.,0.,0.));
#674 = DIRECTION('',(0.,2.2E-16,-1.));
#675 = ADVANCED_FACE('',(#676),#701,.F.);
#676 = FACE_BOUND('',#677,.F.);
#677 = EDGE_LOOP('',(#678,#686,#694,#700));
#678 = ORIENTED_EDGE('',*,*,#679,.T.);
#679 = EDGE_CURVE('',#185,#680,#682,.T.);
#680 = VERTEX_POINT('',#681);
#681 = CARTESIAN_POINT('',(-48.75,-2.,112.08493649053));
#682 = LINE('',#683,#684);
#683 = CARTESIAN_POINT('',(-48.75,-1.112E-14,112.08493649053));
#684 = VECTOR('',#685,1.);
#685 = DIRECTION('',(0.,-1.,-2.2E-16));
#686 = ORIENTED_EDGE('',*,*,#687,.T.);
#687 = EDGE_CURVE('',#680,#688,#690,.T.);
#688 = VERTEX_POINT('',#689);
#689 = CARTESIAN_POINT('',(-52.5,-2.,109.91987298107));
#690 = LINE('',#691,#692);
#691 = CARTESIAN_POINT('',(-48.75,-2.,112.08493649053));
#692 = VECTOR('',#693,1.);
#693 = DIRECTION('',(-0.866025403784,1.1E-16,-0.5));
#694 = ORIENTED_EDGE('',*,*,#695,.F.);
#695 = EDGE_CURVE('',#187,#688,#696,.T.);
#696 = LINE('',#697,#698);
#697 = CARTESIAN_POINT('',(-52.5,-1.064E-14,109.91987298107));
#698 = VECTOR('',#699,1.);
#699 = DIRECTION('',(0.,-1.,-2.2E-16));
#700 = ORIENTED_EDGE('',*,*,#184,.F.);
#701 = PLANE('',#702);
#702 = AXIS2_PLACEMENT_3D('',#703,#704,#705);
#703 = CARTESIAN_POINT('',(-48.75,-1.112E-14,112.08493649053));
#704 = DIRECTION('',(0.5,1.9E-16,-0.866025403784));
#705 = DIRECTION('',(-0.866025403784,1.1E-16,-0.5));
#706 = ADVANCED_FACE('',(#707),#725,.F.);
#707 = FACE_BOUND('',#708,.F.);
#708 = EDGE_LOOP('',(#709,#710,#718,#724));
#709 = ORIENTED_EDGE('',*,*,#695,.T.);
#710 = ORIENTED_EDGE('',*,*,#711,.T.);
#711 = EDGE_CURVE('',#688,#712,#714,.T.);
#712 = VERTEX_POINT('',#713);
#713 = CARTESIAN_POINT('',(-56.25,-2.,112.08493649053));
#714 = LINE('',#715,#716);
#715 = CARTESIAN_POINT('',(-52.5,-2.,109.91987298107));
#716 = VECTOR('',#717,1.);
#717 = DIRECTION('',(-0.866025403784,-1.1E-16,0.5));
#718 = ORIENTED_EDGE('',*,*,#719,.F.);
#719 = EDGE_CURVE('',#219,#712,#720,.T.);
#720 = LINE('',#721,#722);
#721 = CARTESIAN_POINT('',(-56.25,-1.112E-14,112.08493649053));
#722 = VECTOR('',#723,1.);
#723 = DIRECTION('',(0.,-1.,-2.2E-16));
#724 = ORIENTED_EDGE('',*,*,#226,.F.);
#725 = PLANE('',#726);
#726 = AXIS2_PLACEMENT_3D('',#727,#728,#729);
#727 = CARTESIAN_POINT('',(-52.5,-1.064E-14,109.91987298107));
#728 = DIRECTION('',(-0.5,1.9E-16,-0.866025403784));
#729 = DIRECTION('',(-0.866025403784,-1.1E-16,0.5));
#730 = ADVANCED_FACE('',(#731),#749,.F.);
#731 = FACE_BOUND('',#732,.F.);
#732 = EDGE_LOOP('',(#733,#734,#742,#748));
#733 = ORIENTED_EDGE('',*,*,#719,.T.);
#734 = ORIENTED_EDGE('',*,*,#735,.T.);
#735 = EDGE_CURVE('',#712,#736,#738,.T.);
#736 = VERTEX_POINT('',#737);
#737 = CARTESIAN_POINT('',(-56.25,-2.,116.41506350946));
#738 = LINE('',#739,#740);
#739 = CARTESIAN_POINT('',(-56.25,-2.,112.08493649053));
#740 = VECTOR('',#741,1.);
#741 = DIRECTION('',(0.,-2.2E-16,1.));
#742 = ORIENTED_EDGE('',*,*,#743,.F.);
#743 = EDGE_CURVE('',#211,#736,#744,.T.);
#744 = LINE('',#745,#746);
#745 = CARTESIAN_POINT('',(-56.25,-1.208E-14,116.41506350946));
#746 = VECTOR('',#747,1.);
#747 = DIRECTION('',(0.,-1.,-2.2E-16));
#748 = ORIENTED_EDGE('',*,*,#218,.F.);
#749 = PLANE('',#750);
#750 = AXIS2_PLACEMENT_3D('',#751,#752,#753);
#751 = CARTESIAN_POINT('',(-56.25,-1.112E-14,112.08493649053));
#752 = DIRECTION('',(-1.,0.,0.));
#753 = DIRECTION('',(0.,-2.2E-16,1.));
#754 = ADVANCED_FACE('',(#755),#773,.F.);
#755 = FACE_BOUND('',#756,.F.);
#756 = EDGE_LOOP('',(#757,#758,#766,#772));
#757 = ORIENTED_EDGE('',*,*,#743,.T.);
#758 = ORIENTED_EDGE('',*,*,#759,.T.);
#759 = EDGE_CURVE('',#736,#760,#762,.T.);
#760 = VERTEX_POINT('',#761);
#761 = CARTESIAN_POINT('',(-52.5,-2.,118.58012701892));
#762 = LINE('',#763,#764);
#763 = CARTESIAN_POINT('',(-56.25,-2.,116.41506350946));
#764 = VECTOR('',#765,1.);
#765 = DIRECTION('',(0.866025403784,-1.1E-16,0.5));
#766 = ORIENTED_EDGE('',*,*,#767,.F.);
#767 = EDGE_CURVE('',#203,#760,#768,.T.);
#768 = LINE('',#769,#770);
#769 = CARTESIAN_POINT('',(-52.5,-1.256E-14,118.58012701892));
#770 = VECTOR('',#771,1.);
#771 = DIRECTION('',(0.,-1.,-2.2E-16));
#772 = ORIENTED_EDGE('',*,*,#210,.F.);
#773 = PLANE('',#774);
#774 = AXIS2_PLACEMENT_3D('',#775,#776,#777);
#775 = CARTESIAN_POINT('',(-56.25,-1.208E-14,116.41506350946));
#776 = DIRECTION('',(-0.5,-1.9E-16,0.866025403784));
#777 = DIRECTION('',(0.866025403784,-1.1E-16,0.5));
#778 = ADVANCED_FACE('',(#779),#797,.F.);
#779 = FACE_BOUND('',#780,.F.);
#780 = EDGE_LOOP('',(#781,#782,#790,#796));
#781 = ORIENTED_EDGE('',*,*,#767,.T.);
#782 = ORIENTED_EDGE('',*,*,#783,.T.);
#783 = EDGE_CURVE('',#760,#784,#786,.T.);
#784 = VERTEX_POINT('',#785);
#785 = CARTESIAN_POINT('',(-48.75,-2.,116.41506350946));
#786 = LINE('',#787,#788);
#787 = CARTESIAN_POINT('',(-52.5,-2.,118.58012701892));
#788 = VECTOR('',#789,1.);
#789 = DIRECTION('',(0.866025403784,1.1E-16,-0.5));
#790 = ORIENTED_EDGE('',*,*,#791,.F.);
#791 = EDGE_CURVE('',#195,#784,#792,.T.);
#792 = LINE('',#793,#794);
#793 = CARTESIAN_POINT('',(-48.75,-1.208E-14,116.41506350946));
#794 = VECTOR('',#795,1.);
#795 = DIRECTION('',(0.,-1.,-2.2E-16));
#796 = ORIENTED_EDGE('',*,*,#202,.F.);
#797 = PLANE('',#798);
#798 = AXIS2_PLACEMENT_3D('',#799,#800,#801);
#799 = CARTESIAN_POINT('',(-52.5,-1.256E-14,118.58012701892));
#800 = DIRECTION('',(0.5,-1.9E-16,0.866025403784));
#801 = DIRECTION('',(0.866025403784,1.1E-16,-0.5));
#802 = ADVANCED_FACE('',(#803),#814,.F.);
#803 = FACE_BOUND('',#804,.F.);
#804 = EDGE_LOOP('',(#805,#806,#812,#813));
#805 = ORIENTED_EDGE('',*,*,#791,.T.);
#806 = ORIENTED_EDGE('',*,*,#807,.T.);
#807 = EDGE_CURVE('',#784,#680,#808,.T.);
#808 = LINE('',#809,#810);
#809 = CARTESIAN_POINT('',(-48.75,-2.,116.41506350946));
#810 = VECTOR('',#811,1.);
#811 = DIRECTION('',(0.,2.2E-16,-1.));
#812 = ORIENTED_EDGE('',*,*,#679,.F.);
#813 = ORIENTED_EDGE('',*,*,#194,.F.);
#814 = PLANE('',#815);
#815 = AXIS2_PLACEMENT_3D('',#816,#817,#818);
#816 = CARTESIAN_POINT('',(-48.75,-1.208E-14,116.41506350946));
#817 = DIRECTION('',(1.,0.,0.));
#818 = DIRECTION('',(0.,2.2E-16,-1.));
#819 = ADVANCED_FACE('',(#820),#845,.F.);
#820 = FACE_BOUND('',#821,.F.);
#821 = EDGE_LOOP('',(#822,#830,#838,#844));
#822 = ORIENTED_EDGE('',*,*,#823,.T.);
#823 = EDGE_CURVE('',#235,#824,#826,.T.);
#824 = VERTEX_POINT('',#825);
#825 = CARTESIAN_POINT('',(52.5,-2.,4.919872981078));
#826 = LINE('',#827,#828);
#827 = CARTESIAN_POINT('',(52.5,1.267E-14,4.919872981078));
#828 = VECTOR('',#829,1.);
#829 = DIRECTION('',(0.,-1.,-2.2E-16));
#830 = ORIENTED_EDGE('',*,*,#831,.T.);
#831 = EDGE_CURVE('',#824,#832,#834,.T.);
#832 = VERTEX_POINT('',#833);
#833 = CARTESIAN_POINT('',(48.75,-2.,7.084936490539));
#834 = LINE('',#835,#836);
#835 = CARTESIAN_POINT('',(52.5,-2.,4.919872981078));
#836 = VECTOR('',#837,1.);
#837 = DIRECTION('',(-0.866025403784,-1.1E-16,0.5));
#838 = ORIENTED_EDGE('',*,*,#839,.F.);
#839 = EDGE_CURVE('',#237,#832,#840,.T.);
#840 = LINE('',#841,#842);
#841 = CARTESIAN_POINT('',(48.75,1.219E-14,7.084936490539));
#842 = VECTOR('',#843,1.);
#843 = DIRECTION('',(0.,-1.,-2.2E-16));
#844 = ORIENTED_EDGE('',*,*,#234,.F.);
#845 = PLANE('',#846);
#846 = AXIS2_PLACEMENT_3D('',#847,#848,#849);
#847 = CARTESIAN_POINT('',(52.5,1.267E-14,4.919872981078));
#848 = DIRECTION('',(-0.5,1.9E-16,-0.866025403784));
#849 = DIRECTION('',(-0.866025403784,-1.1E-16,0.5));
#850 = ADVANCED_FACE('',(#851),#869,.F.);
#851 = FACE_BOUND('',#852,.F.);
#852 = EDGE_LOOP('',(#853,#854,#862,#868));
#853 = ORIENTED_EDGE('',*,*,#839,.T.);
#854 = ORIENTED_EDGE('',*,*,#855,.T.);
#855 = EDGE_CURVE('',#832,#856,#858,.T.);
#856 = VERTEX_POINT('',#857);
#857 = CARTESIAN_POINT('',(48.75,-2.,11.415063509461));
#858 = LINE('',#859,#860);
#859 = CARTESIAN_POINT('',(48.75,-2.,7.084936490539));
#860 = VECTOR('',#861,1.);
#861 = DIRECTION('',(0.,-2.2E-16,1.));
#862 = ORIENTED_EDGE('',*,*,#863,.F.);
#863 = EDGE_CURVE('',#269,#856,#864,.T.);
#864 = LINE('',#865,#866);
#865 = CARTESIAN_POINT('',(48.75,1.123E-14,11.415063509461));
#866 = VECTOR('',#867,1.);
#867 = DIRECTION('',(0.,-1.,-2.2E-16));
#868 = ORIENTED_EDGE('',*,*,#276,.F.);
#869 = PLANE('',#870);
#870 = AXIS2_PLACEMENT_3D('',#871,#872,#873);
#871 = CARTESIAN_POINT('',(48.75,1.219E-14,7.084936490539));
#872 = DIRECTION('',(-1.,0.,0.));
#873 = DIRECTION('',(0.,-2.2E-16,1.));
#874 = ADVANCED_FACE('',(#875),#893,.F.);
#875 = FACE_BOUND('',#876,.F.);
#876 = EDGE_LOOP('',(#877,#878,#886,#892));
#877 = ORIENTED_EDGE('',*,*,#863,.T.);
#878 = ORIENTED_EDGE('',*,*,#879,.T.);
#879 = EDGE_CURVE('',#856,#880,#882,.T.);
#880 = VERTEX_POINT('',#881);
#881 = CARTESIAN_POINT('',(52.5,-2.,13.580127018922));
#882 = LINE('',#883,#884);
#883 = CARTESIAN_POINT('',(48.75,-2.,11.415063509461));
#884 = VECTOR('',#885,1.);
#885 = DIRECTION('',(0.866025403784,-1.1E-16,0.5));
#886 = ORIENTED_EDGE('',*,*,#887,.F.);
#887 = EDGE_CURVE('',#261,#880,#888,.T.);
#888 = LINE('',#889,#890);
#889 = CARTESIAN_POINT('',(52.5,1.075E-14,13.580127018922));
#890 = VECTOR('',#891,1.);
#891 = DIRECTION('',(0.,-1.,-2.2E-16));
#892 = ORIENTED_EDGE('',*,*,#268,.F.);
#893 = PLANE('',#894);
#894 = AXIS2_PLACEMENT_3D('',#895,#896,#897);
#895 = CARTESIAN_POINT('',(48.75,1.123E-14,11.415063509461));
#896 = DIRECTION('',(-0.5,-1.9E-16,0.866025403784));
#897 = DIRECTION('',(0.866025403784,-1.1E-16,0.5));
#898 = ADVANCED_FACE('',(#899),#917,.F.);
#899 = FACE_BOUND('',#900,.F.);
#900 = EDGE_LOOP('',(#901,#902,#910,#916));
#901 = ORIENTED_EDGE('',*,*,#887,.T.);
#902 = ORIENTED_EDGE('',*,*,#903,.T.);
#903 = EDGE_CURVE('',#880,#904,#906,.T.);
#904 = VERTEX_POINT('',#905);
#905 = CARTESIAN_POINT('',(56.25,-2.,11.415063509461));
#906 = LINE('',#907,#908);
#907 = CARTESIAN_POINT('',(52.5,-2.,13.580127018922));
#908 = VECTOR('',#909,1.);
#909 = DIRECTION('',(0.866025403784,1.1E-16,-0.5));
#910 = ORIENTED_EDGE('',*,*,#911,.F.);
#911 = EDGE_CURVE('',#253,#904,#912,.T.);
#912 = LINE('',#913,#914);
#913 = CARTESIAN_POINT('',(56.25,1.123E-14,11.415063509461));
#914 = VECTOR('',#915,1.);
#915 = DIRECTION('',(0.,-1.,-2.2E-16));
#916 = ORIENTED_EDGE('',*,*,#260,.F.);
#917 = PLANE('',#918);
#918 = AXIS2_PLACEMENT_3D('',#919,#920,#921);
#919 = CARTESIAN_POINT('',(52.5,1.075E-14,13.580127018922));
#920 = DIRECTION('',(0.5,-1.9E-16,0.866025403784));
#921 = DIRECTION('',(0.866025403784,1.1E-16,-0.5));
#922 = ADVANCED_FACE('',(#923),#941,.F.);
#923 = FACE_BOUND('',#924,.F.);
#924 = EDGE_LOOP('',(#925,#926,#934,#940));
#925 = ORIENTED_EDGE('',*,*,#911,.T.);
#926 = ORIENTED_EDGE('',*,*,#927,.T.);
#927 = EDGE_CURVE('',#904,#928,#930,.T.);
#928 = VERTEX_POINT('',#929);
#929 = CARTESIAN_POINT('',(56.25,-2.,7.084936490539));
#930 = LINE('',#931,#932);
#931 = CARTESIAN_POINT('',(56.25,-2.,11.415063509461));
#932 = VECTOR('',#933,1.);
#933 = DIRECTION('',(0.,2.2E-16,-1.));
#934 = ORIENTED_EDGE('',*,*,#935,.F.);
#935 = EDGE_CURVE('',#245,#928,#936,.T.);
#936 = LINE('',#937,#938);
#937 = CARTESIAN_POINT('',(56.25,1.219E-14,7.084936490539));
#938 = VECTOR('',#939,1.);
#939 = DIRECTION('',(0.,-1.,-2.2E-16));
#940 = ORIENTED_EDGE('',*,*,#252,.F.);
#941 = PLANE('',#942);
#942 = AXIS2_PLACEMENT_3D('',#943,#944,#945);
#943 = CARTESIAN_POINT('',(56.25,1.123E-14,11.415063509461));
#944 = DIRECTION('',(1.,0.,0.));
#945 = DIRECTION('',(0.,2.2E-16,-1.));
#946 = ADVANCED_FACE('',(#947),#958,.F.);
#947 = FACE_BOUND('',#948,.F.);
#948 = EDGE_LOOP('',(#949,#950,#956,#957));
#949 = ORIENTED_EDGE('',*,*,#935,.T.);
#950 = ORIENTED_EDGE('',*,*,#951,.T.);
#951 = EDGE_CURVE('',#928,#824,#952,.T.);
#952 = LINE('',#953,#954);
#953 = CARTESIAN_POINT('',(56.25,-2.,7.084936490539));
#954 = VECTOR('',#955,1.);
#955 = DIRECTION('',(-0.866025403784,1.1E-16,-0.5));
#956 = ORIENTED_EDGE('',*,*,#823,.F.);
#957 = ORIENTED_EDGE('',*,*,#244,.F.);
#958 = PLANE('',#959);
#959 = AXIS2_PLACEMENT_3D('',#960,#961,#962);
#960 = CARTESIAN_POINT('',(56.25,1.219E-14,7.084936490539));
#961 = DIRECTION('',(0.5,1.9E-16,-0.866025403784));
#962 = DIRECTION('',(-0.866025403784,1.1E-16,-0.5));
#963 = ADVANCED_FACE('',(#964),#1012,.T.);
#964 = FACE_BOUND('',#965,.T.);
#965 = EDGE_LOOP('',(#966,#974,#975,#983,#991,#997,#998,#1006));
#966 = ORIENTED_EDGE('',*,*,#967,.T.);
#967 = EDGE_CURVE('',#968,#285,#970,.T.);
#968 = VERTEX_POINT('',#969);
#969 = CARTESIAN_POINT('',(-60.24999999998,-6.,16.749999999981));
#970 = LINE('',#971,#972);
#971 = CARTESIAN_POINT('',(-60.24999999998,-6.,16.749999999981));
#972 = VECTOR('',#973,1.);
#973 = DIRECTION('',(0.,1.,-2.2E-16));
#974 = ORIENTED_EDGE('',*,*,#284,.T.);
#975 = ORIENTED_EDGE('',*,*,#976,.F.);
#976 = EDGE_CURVE('',#977,#287,#979,.T.);
#977 = VERTEX_POINT('',#978);
#978 = CARTESIAN_POINT('',(-60.24999999998,-6.,107.24999999998));
#979 = LINE('',#980,#981);
#980 = CARTESIAN_POINT('',(-60.24999999998,-6.,107.24999999998));
#981 = VECTOR('',#982,1.);
#982 = DIRECTION('',(0.,1.,-2.2E-16));
#983 = ORIENTED_EDGE('',*,*,#984,.F.);
#984 = EDGE_CURVE('',#985,#977,#987,.T.);
#985 = VERTEX_POINT('',#986);
#986 = CARTESIAN_POINT('',(-60.25,-6.,122.25));
#987 = LINE('',#988,#989);
#988 = CARTESIAN_POINT('',(-60.25,-6.,122.25));
#989 = VECTOR('',#990,1.);
#990 = DIRECTION('',(0.,2.2E-16,-1.));
#991 = ORIENTED_EDGE('',*,*,#992,.F.);
#992 = EDGE_CURVE('',#450,#985,#993,.T.);
#993 = LINE('',#994,#995);
#994 = CARTESIAN_POINT('',(-60.25,-31.,122.25));
#995 = VECTOR('',#996,1.);
#996 = DIRECTION('',(0.,1.,-2.2E-16));
#997 = ORIENTED_EDGE('',*,*,#449,.T.);
#998 = ORIENTED_EDGE('',*,*,#999,.T.);
#999 = EDGE_CURVE('',#452,#1000,#1002,.T.);
#1000 = VERTEX_POINT('',#1001);
#1001 = CARTESIAN_POINT('',(-60.25,-6.,1.75));
#1002 = LINE('',#1003,#1004);
#1003 = CARTESIAN_POINT('',(-60.25,-31.,1.75));
#1004 = VECTOR('',#1005,1.);
#1005 = DIRECTION('',(0.,1.,-2.2E-16));
#1006 = ORIENTED_EDGE('',*,*,#1007,.F.);
#1007 = EDGE_CURVE('',#968,#1000,#1008,.T.);
#1008 = LINE('',#1009,#1010);
#1009 = CARTESIAN_POINT('',(-60.25,-6.,122.25));
#1010 = VECTOR('',#1011,1.);
#1011 = DIRECTION('',(0.,2.2E-16,-1.));
#1012 = PLANE('',#1013);
#1013 = AXIS2_PLACEMENT_3D('',#1014,#1015,#1016);
#1014 = CARTESIAN_POINT('',(-60.24999999999,-16.09405940594,
    61.999999999999));
#1015 = DIRECTION('',(1.,-4.6466E-13,0.));
#1016 = DIRECTION('',(-4.6466E-13,-1.,-2.2E-16));
#1017 = ADVANCED_FACE('',(#1018),#1036,.F.);
#1018 = FACE_BOUND('',#1019,.F.);
#1019 = EDGE_LOOP('',(#1020,#1021,#1022,#1030));
#1020 = ORIENTED_EDGE('',*,*,#967,.T.);
#1021 = ORIENTED_EDGE('',*,*,#294,.T.);
#1022 = ORIENTED_EDGE('',*,*,#1023,.F.);
#1023 = EDGE_CURVE('',#1024,#295,#1026,.T.);
#1024 = VERTEX_POINT('',#1025);
#1025 = CARTESIAN_POINT('',(-45.25,-6.,16.749999999981));
#1026 = LINE('',#1027,#1028);
#1027 = CARTESIAN_POINT('',(-45.25,-6.,16.749999999981));
#1028 = VECTOR('',#1029,1.);
#1029 = DIRECTION('',(0.,1.,-2.2E-16));
#1030 = ORIENTED_EDGE('',*,*,#1031,.F.);
#1031 = EDGE_CURVE('',#968,#1024,#1032,.T.);
#1032 = LINE('',#1033,#1034);
#1033 = CARTESIAN_POINT('',(-60.24999999998,-6.,16.749999999981));
#1034 = VECTOR('',#1035,1.);
#1035 = DIRECTION('',(1.,0.,0.));
#1036 = PLANE('',#1037);
#1037 = AXIS2_PLACEMENT_3D('',#1038,#1039,#1040);
#1038 = CARTESIAN_POINT('',(-60.24999999998,-6.,16.749999999981));
#1039 = DIRECTION('',(0.,-2.2E-16,-1.));
#1040 = DIRECTION('',(1.,0.,0.));
#1041 = ADVANCED_FACE('',(#1042),#1060,.T.);
#1042 = FACE_BOUND('',#1043,.T.);
#1043 = EDGE_LOOP('',(#1044,#1045,#1046,#1054));
#1044 = ORIENTED_EDGE('',*,*,#976,.T.);
#1045 = ORIENTED_EDGE('',*,*,#374,.T.);
#1046 = ORIENTED_EDGE('',*,*,#1047,.F.);
#1047 = EDGE_CURVE('',#1048,#367,#1050,.T.);
#1048 = VERTEX_POINT('',#1049);
#1049 = CARTESIAN_POINT('',(-45.24999999999,-6.,107.24999999998));
#1050 = LINE('',#1051,#1052);
#1051 = CARTESIAN_POINT('',(-45.24999999999,-6.,107.24999999998));
#1052 = VECTOR('',#1053,1.);
#1053 = DIRECTION('',(0.,1.,-2.2E-16));
#1054 = ORIENTED_EDGE('',*,*,#1055,.F.);
#1055 = EDGE_CURVE('',#977,#1048,#1056,.T.);
#1056 = LINE('',#1057,#1058);
#1057 = CARTESIAN_POINT('',(-60.24999999998,-6.,107.24999999998));
#1058 = VECTOR('',#1059,1.);
#1059 = DIRECTION('',(1.,0.,0.));
#1060 = PLANE('',#1061);
#1061 = AXIS2_PLACEMENT_3D('',#1062,#1063,#1064);
#1062 = CARTESIAN_POINT('',(-60.24999999998,-6.,107.24999999998));
#1063 = DIRECTION('',(0.,-2.2E-16,-1.));
#1064 = DIRECTION('',(1.,0.,0.));
#1065 = ADVANCED_FACE('',(#1066),#1084,.F.);
#1066 = FACE_BOUND('',#1067,.F.);
#1067 = EDGE_LOOP('',(#1068,#1069,#1070,#1078));
#1068 = ORIENTED_EDGE('',*,*,#1023,.T.);
#1069 = ORIENTED_EDGE('',*,*,#302,.T.);
#1070 = ORIENTED_EDGE('',*,*,#1071,.F.);
#1071 = EDGE_CURVE('',#1072,#303,#1074,.T.);
#1072 = VERTEX_POINT('',#1073);
#1073 = CARTESIAN_POINT('',(-45.25,-6.,1.75));
#1074 = LINE('',#1075,#1076);
#1075 = CARTESIAN_POINT('',(-45.25,-6.,1.75));
#1076 = VECTOR('',#1077,1.);
#1077 = DIRECTION('',(0.,1.,-2.2E-16));
#1078 = ORIENTED_EDGE('',*,*,#1079,.F.);
#1079 = EDGE_CURVE('',#1024,#1072,#1080,.T.);
#1080 = LINE('',#1081,#1082);
#1081 = CARTESIAN_POINT('',(-45.25,-6.,16.749999999981));
#1082 = VECTOR('',#1083,1.);
#1083 = DIRECTION('',(0.,2.2E-16,-1.));
#1084 = PLANE('',#1085);
#1085 = AXIS2_PLACEMENT_3D('',#1086,#1087,#1088);
#1086 = CARTESIAN_POINT('',(-45.25,-6.,16.749999999981));
#1087 = DIRECTION('',(-1.,0.,0.));
#1088 = DIRECTION('',(0.,-2.2E-16,-1.));
#1089 = ADVANCED_FACE('',(#1090),#1108,.F.);
#1090 = FACE_BOUND('',#1091,.F.);
#1091 = EDGE_LOOP('',(#1092,#1100,#1101,#1102));
#1092 = ORIENTED_EDGE('',*,*,#1093,.T.);
#1093 = EDGE_CURVE('',#1094,#359,#1096,.T.);
#1094 = VERTEX_POINT('',#1095);
#1095 = CARTESIAN_POINT('',(-45.24999999999,-6.,122.24999999997));
#1096 = LINE('',#1097,#1098);
#1097 = CARTESIAN_POINT('',(-45.24999999999,-6.,122.24999999997));
#1098 = VECTOR('',#1099,1.);
#1099 = DIRECTION('',(0.,1.,-2.2E-16));
#1100 = ORIENTED_EDGE('',*,*,#366,.T.);
#1101 = ORIENTED_EDGE('',*,*,#1047,.F.);
#1102 = ORIENTED_EDGE('',*,*,#1103,.F.);
#1103 = EDGE_CURVE('',#1094,#1048,#1104,.T.);
#1104 = LINE('',#1105,#1106);
#1105 = CARTESIAN_POINT('',(-45.24999999999,-6.,122.24999999997));
#1106 = VECTOR('',#1107,1.);
#1107 = DIRECTION('',(0.,2.2E-16,-1.));
#1108 = PLANE('',#1109);
#1109 = AXIS2_PLACEMENT_3D('',#1110,#1111,#1112);
#1110 = CARTESIAN_POINT('',(-45.24999999999,-6.,122.24999999997));
#1111 = DIRECTION('',(-1.,0.,0.));
#1112 = DIRECTION('',(0.,-2.2E-16,-1.));
#1113 = ADVANCED_FACE('',(#1114),#1148,.T.);
#1114 = FACE_BOUND('',#1115,.T.);
#1115 = EDGE_LOOP('',(#1116,#1124,#1125,#1126,#1132,#1133,#1134,#1142));
#1116 = ORIENTED_EDGE('',*,*,#1117,.T.);
#1117 = EDGE_CURVE('',#1118,#311,#1120,.T.);
#1118 = VERTEX_POINT('',#1119);
#1119 = CARTESIAN_POINT('',(45.25,-6.,1.75));
#1120 = LINE('',#1121,#1122);
#1121 = CARTESIAN_POINT('',(45.25,-6.,1.75));
#1122 = VECTOR('',#1123,1.);
#1123 = DIRECTION('',(0.,1.,-2.2E-16));
#1124 = ORIENTED_EDGE('',*,*,#310,.T.);
#1125 = ORIENTED_EDGE('',*,*,#1071,.F.);
#1126 = ORIENTED_EDGE('',*,*,#1127,.F.);
#1127 = EDGE_CURVE('',#1000,#1072,#1128,.T.);
#1128 = LINE('',#1129,#1130);
#1129 = CARTESIAN_POINT('',(-60.25,-6.,1.75));
#1130 = VECTOR('',#1131,1.);
#1131 = DIRECTION('',(1.,0.,0.));
#1132 = ORIENTED_EDGE('',*,*,#999,.F.);
#1133 = ORIENTED_EDGE('',*,*,#459,.T.);
#1134 = ORIENTED_EDGE('',*,*,#1135,.T.);
#1135 = EDGE_CURVE('',#460,#1136,#1138,.T.);
#1136 = VERTEX_POINT('',#1137);
#1137 = CARTESIAN_POINT('',(60.25,-6.,1.75));
#1138 = LINE('',#1139,#1140);
#1139 = CARTESIAN_POINT('',(60.25,-31.,1.75));
#1140 = VECTOR('',#1141,1.);
#1141 = DIRECTION('',(0.,1.,-2.2E-16));
#1142 = ORIENTED_EDGE('',*,*,#1143,.F.);
#1143 = EDGE_CURVE('',#1118,#1136,#1144,.T.);
#1144 = LINE('',#1145,#1146);
#1145 = CARTESIAN_POINT('',(-60.25,-6.,1.75));
#1146 = VECTOR('',#1147,1.);
#1147 = DIRECTION('',(1.,0.,0.));
#1148 = PLANE('',#1149);
#1149 = AXIS2_PLACEMENT_3D('',#1150,#1151,#1152);
#1150 = CARTESIAN_POINT('',(-9.E-15,-16.09405940594,1.75));
#1151 = DIRECTION('',(0.,5.E-17,1.));
#1152 = DIRECTION('',(0.,-1.,5.E-17));
#1153 = ADVANCED_FACE('',(#1154,#1188),#1222,.T.);
#1154 = FACE_BOUND('',#1155,.T.);
#1155 = EDGE_LOOP('',(#1156,#1157,#1158,#1166,#1174,#1180,#1181,#1182));
#1156 = ORIENTED_EDGE('',*,*,#1093,.T.);
#1157 = ORIENTED_EDGE('',*,*,#358,.T.);
#1158 = ORIENTED_EDGE('',*,*,#1159,.F.);
#1159 = EDGE_CURVE('',#1160,#351,#1162,.T.);
#1160 = VERTEX_POINT('',#1161);
#1161 = CARTESIAN_POINT('',(45.250000000009,-6.,122.24999999997));
#1162 = LINE('',#1163,#1164);
#1163 = CARTESIAN_POINT('',(45.250000000009,-6.,122.24999999997));
#1164 = VECTOR('',#1165,1.);
#1165 = DIRECTION('',(0.,1.,-2.2E-16));
#1166 = ORIENTED_EDGE('',*,*,#1167,.F.);
#1167 = EDGE_CURVE('',#1168,#1160,#1170,.T.);
#1168 = VERTEX_POINT('',#1169);
#1169 = CARTESIAN_POINT('',(60.25,-6.,122.25));
#1170 = LINE('',#1171,#1172);
#1171 = CARTESIAN_POINT('',(60.25,-6.,122.25));
#1172 = VECTOR('',#1173,1.);
#1173 = DIRECTION('',(-1.,0.,0.));
#1174 = ORIENTED_EDGE('',*,*,#1175,.F.);
#1175 = EDGE_CURVE('',#468,#1168,#1176,.T.);
#1176 = LINE('',#1177,#1178);
#1177 = CARTESIAN_POINT('',(60.25,-31.,122.25));
#1178 = VECTOR('',#1179,1.);
#1179 = DIRECTION('',(0.,1.,-2.2E-16));
#1180 = ORIENTED_EDGE('',*,*,#475,.T.);
#1181 = ORIENTED_EDGE('',*,*,#992,.T.);
#1182 = ORIENTED_EDGE('',*,*,#1183,.F.);
#1183 = EDGE_CURVE('',#1094,#985,#1184,.T.);
#1184 = LINE('',#1185,#1186);
#1185 = CARTESIAN_POINT('',(60.25,-6.,122.25));
#1186 = VECTOR('',#1187,1.);
#1187 = DIRECTION('',(-1.,0.,0.));
#1188 = FACE_BOUND('',#1189,.T.);
#1189 = EDGE_LOOP('',(#1190,#1200,#1208,#1216));
#1190 = ORIENTED_EDGE('',*,*,#1191,.T.);
#1191 = EDGE_CURVE('',#1192,#1194,#1196,.T.);
#1192 = VERTEX_POINT('',#1193);
#1193 = CARTESIAN_POINT('',(-53.,-21.,122.25));
#1194 = VERTEX_POINT('',#1195);
#1195 = CARTESIAN_POINT('',(-35.,-21.,122.25));
#1196 = LINE('',#1197,#1198);
#1197 = CARTESIAN_POINT('',(-53.,-21.,122.25));
#1198 = VECTOR('',#1199,1.);
#1199 = DIRECTION('',(1.,0.,0.));
#1200 = ORIENTED_EDGE('',*,*,#1201,.T.);
#1201 = EDGE_CURVE('',#1194,#1202,#1204,.T.);
#1202 = VERTEX_POINT('',#1203);
#1203 = CARTESIAN_POINT('',(-35.,-9.,122.25));
#1204 = LINE('',#1205,#1206);
#1205 = CARTESIAN_POINT('',(-35.,-21.,122.25));
#1206 = VECTOR('',#1207,1.);
#1207 = DIRECTION('',(0.,1.,2.2E-16));
#1208 = ORIENTED_EDGE('',*,*,#1209,.T.);
#1209 = EDGE_CURVE('',#1202,#1210,#1212,.T.);
#1210 = VERTEX_POINT('',#1211);
#1211 = CARTESIAN_POINT('',(-53.,-9.,122.25));
#1212 = LINE('',#1213,#1214);
#1213 = CARTESIAN_POINT('',(-35.,-9.,122.25));
#1214 = VECTOR('',#1215,1.);
#1215 = DIRECTION('',(-1.,0.,0.));
#1216 = ORIENTED_EDGE('',*,*,#1217,.T.);
#1217 = EDGE_CURVE('',#1210,#1192,#1218,.T.);
#1218 = LINE('',#1219,#1220);
#1219 = CARTESIAN_POINT('',(-53.,-9.,122.25));
#1220 = VECTOR('',#1221,1.);
#1221 = DIRECTION('',(-0.,-1.,-2.2E-16));
#1222 = PLANE('',#1223);
#1223 = AXIS2_PLACEMENT_3D('',#1224,#1225,#1226);
#1224 = CARTESIAN_POINT('',(3.6939E-13,-16.09405940594,122.24999999999)
  );
#1225 = DIRECTION('',(0.,-7.0467E-13,-1.));
#1226 = DIRECTION('',(0.,1.,-7.0467E-13));
#1227 = ADVANCED_FACE('',(#1228),#1246,.T.);
#1228 = FACE_BOUND('',#1229,.T.);
#1229 = EDGE_LOOP('',(#1230,#1238,#1239,#1240));
#1230 = ORIENTED_EDGE('',*,*,#1231,.T.);
#1231 = EDGE_CURVE('',#1232,#319,#1234,.T.);
#1232 = VERTEX_POINT('',#1233);
#1233 = CARTESIAN_POINT('',(45.25,-6.,16.75));
#1234 = LINE('',#1235,#1236);
#1235 = CARTESIAN_POINT('',(45.25,-6.,16.75));
#1236 = VECTOR('',#1237,1.);
#1237 = DIRECTION('',(0.,1.,-2.2E-16));
#1238 = ORIENTED_EDGE('',*,*,#318,.T.);
#1239 = ORIENTED_EDGE('',*,*,#1117,.F.);
#1240 = ORIENTED_EDGE('',*,*,#1241,.F.);
#1241 = EDGE_CURVE('',#1232,#1118,#1242,.T.);
#1242 = LINE('',#1243,#1244);
#1243 = CARTESIAN_POINT('',(45.25,-6.,16.75));
#1244 = VECTOR('',#1245,1.);
#1245 = DIRECTION('',(0.,2.2E-16,-1.));
#1246 = PLANE('',#1247);
#1247 = AXIS2_PLACEMENT_3D('',#1248,#1249,#1250);
#1248 = CARTESIAN_POINT('',(45.25,-6.,16.75));
#1249 = DIRECTION('',(-1.,0.,0.));
#1250 = DIRECTION('',(0.,-2.2E-16,-1.));
#1251 = ADVANCED_FACE('',(#1252),#1270,.T.);
#1252 = FACE_BOUND('',#1253,.T.);
#1253 = EDGE_LOOP('',(#1254,#1255,#1256,#1264));
#1254 = ORIENTED_EDGE('',*,*,#1159,.T.);
#1255 = ORIENTED_EDGE('',*,*,#350,.T.);
#1256 = ORIENTED_EDGE('',*,*,#1257,.F.);
#1257 = EDGE_CURVE('',#1258,#343,#1260,.T.);
#1258 = VERTEX_POINT('',#1259);
#1259 = CARTESIAN_POINT('',(45.250000000009,-6.,107.24999999998));
#1260 = LINE('',#1261,#1262);
#1261 = CARTESIAN_POINT('',(45.250000000009,-6.,107.24999999998));
#1262 = VECTOR('',#1263,1.);
#1263 = DIRECTION('',(0.,1.,-2.2E-16));
#1264 = ORIENTED_EDGE('',*,*,#1265,.F.);
#1265 = EDGE_CURVE('',#1160,#1258,#1266,.T.);
#1266 = LINE('',#1267,#1268);
#1267 = CARTESIAN_POINT('',(45.250000000009,-6.,122.24999999997));
#1268 = VECTOR('',#1269,1.);
#1269 = DIRECTION('',(0.,2.2E-16,-1.));
#1270 = PLANE('',#1271);
#1271 = AXIS2_PLACEMENT_3D('',#1272,#1273,#1274);
#1272 = CARTESIAN_POINT('',(45.250000000009,-6.,122.24999999997));
#1273 = DIRECTION('',(-1.,0.,0.));
#1274 = DIRECTION('',(0.,-2.2E-16,-1.));
#1275 = ADVANCED_FACE('',(#1276),#1294,.T.);
#1276 = FACE_BOUND('',#1277,.T.);
#1277 = EDGE_LOOP('',(#1278,#1286,#1287,#1288));
#1278 = ORIENTED_EDGE('',*,*,#1279,.T.);
#1279 = EDGE_CURVE('',#1280,#327,#1282,.T.);
#1280 = VERTEX_POINT('',#1281);
#1281 = CARTESIAN_POINT('',(60.25,-6.,16.75));
#1282 = LINE('',#1283,#1284);
#1283 = CARTESIAN_POINT('',(60.25,-6.,16.75));
#1284 = VECTOR('',#1285,1.);
#1285 = DIRECTION('',(0.,1.,-2.2E-16));
#1286 = ORIENTED_EDGE('',*,*,#326,.T.);
#1287 = ORIENTED_EDGE('',*,*,#1231,.F.);
#1288 = ORIENTED_EDGE('',*,*,#1289,.F.);
#1289 = EDGE_CURVE('',#1280,#1232,#1290,.T.);
#1290 = LINE('',#1291,#1292);
#1291 = CARTESIAN_POINT('',(60.25,-6.,16.75));
#1292 = VECTOR('',#1293,1.);
#1293 = DIRECTION('',(-1.,0.,0.));
#1294 = PLANE('',#1295);
#1295 = AXIS2_PLACEMENT_3D('',#1296,#1297,#1298);
#1296 = CARTESIAN_POINT('',(60.25,-6.,16.75));
#1297 = DIRECTION('',(0.,2.2E-16,1.));
#1298 = DIRECTION('',(-1.,0.,0.));
#1299 = ADVANCED_FACE('',(#1300),#1318,.T.);
#1300 = FACE_BOUND('',#1301,.T.);
#1301 = EDGE_LOOP('',(#1302,#1303,#1304,#1312));
#1302 = ORIENTED_EDGE('',*,*,#1257,.T.);
#1303 = ORIENTED_EDGE('',*,*,#342,.T.);
#1304 = ORIENTED_EDGE('',*,*,#1305,.F.);
#1305 = EDGE_CURVE('',#1306,#335,#1308,.T.);
#1306 = VERTEX_POINT('',#1307);
#1307 = CARTESIAN_POINT('',(60.25,-6.,107.24999999998));
#1308 = LINE('',#1309,#1310);
#1309 = CARTESIAN_POINT('',(60.25,-6.,107.24999999998));
#1310 = VECTOR('',#1311,1.);
#1311 = DIRECTION('',(0.,1.,-2.2E-16));
#1312 = ORIENTED_EDGE('',*,*,#1313,.F.);
#1313 = EDGE_CURVE('',#1258,#1306,#1314,.T.);
#1314 = LINE('',#1315,#1316);
#1315 = CARTESIAN_POINT('',(45.250000000009,-6.,107.24999999998));
#1316 = VECTOR('',#1317,1.);
#1317 = DIRECTION('',(1.,0.,0.));
#1318 = PLANE('',#1319);
#1319 = AXIS2_PLACEMENT_3D('',#1320,#1321,#1322);
#1320 = CARTESIAN_POINT('',(45.250000000009,-6.,107.24999999998));
#1321 = DIRECTION('',(0.,-2.2E-16,-1.));
#1322 = DIRECTION('',(1.,0.,0.));
#1323 = ADVANCED_FACE('',(#1324),#1344,.T.);
#1324 = FACE_BOUND('',#1325,.T.);
#1325 = EDGE_LOOP('',(#1326,#1327,#1328,#1329,#1335,#1336,#1337,#1338));
#1326 = ORIENTED_EDGE('',*,*,#1305,.T.);
#1327 = ORIENTED_EDGE('',*,*,#334,.T.);
#1328 = ORIENTED_EDGE('',*,*,#1279,.F.);
#1329 = ORIENTED_EDGE('',*,*,#1330,.F.);
#1330 = EDGE_CURVE('',#1136,#1280,#1331,.T.);
#1331 = LINE('',#1332,#1333);
#1332 = CARTESIAN_POINT('',(60.25,-6.,1.75));
#1333 = VECTOR('',#1334,1.);
#1334 = DIRECTION('',(0.,-2.2E-16,1.));
#1335 = ORIENTED_EDGE('',*,*,#1135,.F.);
#1336 = ORIENTED_EDGE('',*,*,#467,.T.);
#1337 = ORIENTED_EDGE('',*,*,#1175,.T.);
#1338 = ORIENTED_EDGE('',*,*,#1339,.F.);
#1339 = EDGE_CURVE('',#1306,#1168,#1340,.T.);
#1340 = LINE('',#1341,#1342);
#1341 = CARTESIAN_POINT('',(60.25,-6.,1.75));
#1342 = VECTOR('',#1343,1.);
#1343 = DIRECTION('',(0.,-2.2E-16,1.));
#1344 = PLANE('',#1345);
#1345 = AXIS2_PLACEMENT_3D('',#1346,#1347,#1348);
#1346 = CARTESIAN_POINT('',(60.25,-16.09405940594,62.));
#1347 = DIRECTION('',(-1.,0.,0.));
#1348 = DIRECTION('',(0.,1.,2.2E-16));
#1349 = ADVANCED_FACE('',(#1350),#1375,.F.);
#1350 = FACE_BOUND('',#1351,.F.);
#1351 = EDGE_LOOP('',(#1352,#1360,#1368,#1374));
#1352 = ORIENTED_EDGE('',*,*,#1353,.T.);
#1353 = EDGE_CURVE('',#383,#1354,#1356,.T.);
#1354 = VERTEX_POINT('',#1355);
#1355 = CARTESIAN_POINT('',(56.25,-2.,112.08493649053));
#1356 = LINE('',#1357,#1358);
#1357 = CARTESIAN_POINT('',(56.25,-1.112E-14,112.08493649053));
#1358 = VECTOR('',#1359,1.);
#1359 = DIRECTION('',(0.,-1.,-2.2E-16));
#1360 = ORIENTED_EDGE('',*,*,#1361,.T.);
#1361 = EDGE_CURVE('',#1354,#1362,#1364,.T.);
#1362 = VERTEX_POINT('',#1363);
#1363 = CARTESIAN_POINT('',(52.5,-2.,109.91987298107));
#1364 = LINE('',#1365,#1366);
#1365 = CARTESIAN_POINT('',(56.25,-2.,112.08493649053));
#1366 = VECTOR('',#1367,1.);
#1367 = DIRECTION('',(-0.866025403784,1.1E-16,-0.5));
#1368 = ORIENTED_EDGE('',*,*,#1369,.F.);
#1369 = EDGE_CURVE('',#385,#1362,#1370,.T.);
#1370 = LINE('',#1371,#1372);
#1371 = CARTESIAN_POINT('',(52.5,-1.064E-14,109.91987298107));
#1372 = VECTOR('',#1373,1.);
#1373 = DIRECTION('',(0.,-1.,-2.2E-16));
#1374 = ORIENTED_EDGE('',*,*,#382,.F.);
#1375 = PLANE('',#1376);
#1376 = AXIS2_PLACEMENT_3D('',#1377,#1378,#1379);
#1377 = CARTESIAN_POINT('',(56.25,-1.112E-14,112.08493649053));
#1378 = DIRECTION('',(0.5,1.9E-16,-0.866025403784));
#1379 = DIRECTION('',(-0.866025403784,1.1E-16,-0.5));
#1380 = ADVANCED_FACE('',(#1381),#1399,.F.);
#1381 = FACE_BOUND('',#1382,.F.);
#1382 = EDGE_LOOP('',(#1383,#1384,#1392,#1398));
#1383 = ORIENTED_EDGE('',*,*,#1369,.T.);
#1384 = ORIENTED_EDGE('',*,*,#1385,.T.);
#1385 = EDGE_CURVE('',#1362,#1386,#1388,.T.);
#1386 = VERTEX_POINT('',#1387);
#1387 = CARTESIAN_POINT('',(48.75,-2.,112.08493649053));
#1388 = LINE('',#1389,#1390);
#1389 = CARTESIAN_POINT('',(52.5,-2.,109.91987298107));
#1390 = VECTOR('',#1391,1.);
#1391 = DIRECTION('',(-0.866025403784,-1.1E-16,0.5));
#1392 = ORIENTED_EDGE('',*,*,#1393,.F.);
#1393 = EDGE_CURVE('',#417,#1386,#1394,.T.);
#1394 = LINE('',#1395,#1396);
#1395 = CARTESIAN_POINT('',(48.75,-1.112E-14,112.08493649053));
#1396 = VECTOR('',#1397,1.);
#1397 = DIRECTION('',(0.,-1.,-2.2E-16));
#1398 = ORIENTED_EDGE('',*,*,#424,.F.);
#1399 = PLANE('',#1400);
#1400 = AXIS2_PLACEMENT_3D('',#1401,#1402,#1403);
#1401 = CARTESIAN_POINT('',(52.5,-1.064E-14,109.91987298107));
#1402 = DIRECTION('',(-0.5,1.9E-16,-0.866025403784));
#1403 = DIRECTION('',(-0.866025403784,-1.1E-16,0.5));
#1404 = ADVANCED_FACE('',(#1405),#1423,.F.);
#1405 = FACE_BOUND('',#1406,.F.);
#1406 = EDGE_LOOP('',(#1407,#1408,#1416,#1422));
#1407 = ORIENTED_EDGE('',*,*,#1393,.T.);
#1408 = ORIENTED_EDGE('',*,*,#1409,.T.);
#1409 = EDGE_CURVE('',#1386,#1410,#1412,.T.);
#1410 = VERTEX_POINT('',#1411);
#1411 = CARTESIAN_POINT('',(48.75,-2.,116.41506350946));
#1412 = LINE('',#1413,#1414);
#1413 = CARTESIAN_POINT('',(48.75,-2.,112.08493649053));
#1414 = VECTOR('',#1415,1.);
#1415 = DIRECTION('',(0.,-2.2E-16,1.));
#1416 = ORIENTED_EDGE('',*,*,#1417,.F.);
#1417 = EDGE_CURVE('',#409,#1410,#1418,.T.);
#1418 = LINE('',#1419,#1420);
#1419 = CARTESIAN_POINT('',(48.75,-1.208E-14,116.41506350946));
#1420 = VECTOR('',#1421,1.);
#1421 = DIRECTION('',(0.,-1.,-2.2E-16));
#1422 = ORIENTED_EDGE('',*,*,#416,.F.);
#1423 = PLANE('',#1424);
#1424 = AXIS2_PLACEMENT_3D('',#1425,#1426,#1427);
#1425 = CARTESIAN_POINT('',(48.75,-1.112E-14,112.08493649053));
#1426 = DIRECTION('',(-1.,0.,0.));
#1427 = DIRECTION('',(0.,-2.2E-16,1.));
#1428 = ADVANCED_FACE('',(#1429),#1447,.F.);
#1429 = FACE_BOUND('',#1430,.F.);
#1430 = EDGE_LOOP('',(#1431,#1432,#1440,#1446));
#1431 = ORIENTED_EDGE('',*,*,#1417,.T.);
#1432 = ORIENTED_EDGE('',*,*,#1433,.T.);
#1433 = EDGE_CURVE('',#1410,#1434,#1436,.T.);
#1434 = VERTEX_POINT('',#1435);
#1435 = CARTESIAN_POINT('',(52.5,-2.,118.58012701892));
#1436 = LINE('',#1437,#1438);
#1437 = CARTESIAN_POINT('',(48.75,-2.,116.41506350946));
#1438 = VECTOR('',#1439,1.);
#1439 = DIRECTION('',(0.866025403784,-1.1E-16,0.5));
#1440 = ORIENTED_EDGE('',*,*,#1441,.F.);
#1441 = EDGE_CURVE('',#401,#1434,#1442,.T.);
#1442 = LINE('',#1443,#1444);
#1443 = CARTESIAN_POINT('',(52.5,-1.256E-14,118.58012701892));
#1444 = VECTOR('',#1445,1.);
#1445 = DIRECTION('',(0.,-1.,-2.2E-16));
#1446 = ORIENTED_EDGE('',*,*,#408,.F.);
#1447 = PLANE('',#1448);
#1448 = AXIS2_PLACEMENT_3D('',#1449,#1450,#1451);
#1449 = CARTESIAN_POINT('',(48.75,-1.208E-14,116.41506350946));
#1450 = DIRECTION('',(-0.5,-1.9E-16,0.866025403784));
#1451 = DIRECTION('',(0.866025403784,-1.1E-16,0.5));
#1452 = ADVANCED_FACE('',(#1453),#1471,.F.);
#1453 = FACE_BOUND('',#1454,.F.);
#1454 = EDGE_LOOP('',(#1455,#1456,#1464,#1470));
#1455 = ORIENTED_EDGE('',*,*,#1441,.T.);
#1456 = ORIENTED_EDGE('',*,*,#1457,.T.);
#1457 = EDGE_CURVE('',#1434,#1458,#1460,.T.);
#1458 = VERTEX_POINT('',#1459);
#1459 = CARTESIAN_POINT('',(56.25,-2.,116.41506350946));
#1460 = LINE('',#1461,#1462);
#1461 = CARTESIAN_POINT('',(52.5,-2.,118.58012701892));
#1462 = VECTOR('',#1463,1.);
#1463 = DIRECTION('',(0.866025403784,1.1E-16,-0.5));
#1464 = ORIENTED_EDGE('',*,*,#1465,.F.);
#1465 = EDGE_CURVE('',#393,#1458,#1466,.T.);
#1466 = LINE('',#1467,#1468);
#1467 = CARTESIAN_POINT('',(56.25,-1.208E-14,116.41506350946));
#1468 = VECTOR('',#1469,1.);
#1469 = DIRECTION('',(0.,-1.,-2.2E-16));
#1470 = ORIENTED_EDGE('',*,*,#400,.F.);
#1471 = PLANE('',#1472);
#1472 = AXIS2_PLACEMENT_3D('',#1473,#1474,#1475);
#1473 = CARTESIAN_POINT('',(52.5,-1.256E-14,118.58012701892));
#1474 = DIRECTION('',(0.5,-1.9E-16,0.866025403784));
#1475 = DIRECTION('',(0.866025403784,1.1E-16,-0.5));
#1476 = ADVANCED_FACE('',(#1477),#1488,.F.);
#1477 = FACE_BOUND('',#1478,.F.);
#1478 = EDGE_LOOP('',(#1479,#1480,#1486,#1487));
#1479 = ORIENTED_EDGE('',*,*,#1465,.T.);
#1480 = ORIENTED_EDGE('',*,*,#1481,.T.);
#1481 = EDGE_CURVE('',#1458,#1354,#1482,.T.);
#1482 = LINE('',#1483,#1484);
#1483 = CARTESIAN_POINT('',(56.25,-2.,116.41506350946));
#1484 = VECTOR('',#1485,1.);
#1485 = DIRECTION('',(0.,2.2E-16,-1.));
#1486 = ORIENTED_EDGE('',*,*,#1353,.F.);
#1487 = ORIENTED_EDGE('',*,*,#392,.F.);
#1488 = PLANE('',#1489);
#1489 = AXIS2_PLACEMENT_3D('',#1490,#1491,#1492);
#1490 = CARTESIAN_POINT('',(56.25,-1.208E-14,116.41506350946));
#1491 = DIRECTION('',(1.,0.,0.));
#1492 = DIRECTION('',(0.,2.2E-16,-1.));
#1493 = ADVANCED_FACE('',(#1494),#1510,.F.);
#1494 = FACE_BOUND('',#1495,.F.);
#1495 = EDGE_LOOP('',(#1496,#1502,#1503,#1509));
#1496 = ORIENTED_EDGE('',*,*,#1497,.T.);
#1497 = EDGE_CURVE('',#496,#1192,#1498,.T.);
#1498 = LINE('',#1499,#1500);
#1499 = CARTESIAN_POINT('',(-53.,-21.,124.));
#1500 = VECTOR('',#1501,1.);
#1501 = DIRECTION('',(0.,0.,-1.));
#1502 = ORIENTED_EDGE('',*,*,#1191,.T.);
#1503 = ORIENTED_EDGE('',*,*,#1504,.F.);
#1504 = EDGE_CURVE('',#498,#1194,#1505,.T.);
#1505 = LINE('',#1506,#1507);
#1506 = CARTESIAN_POINT('',(-35.,-21.,124.));
#1507 = VECTOR('',#1508,1.);
#1508 = DIRECTION('',(0.,0.,-1.));
#1509 = ORIENTED_EDGE('',*,*,#495,.F.);
#1510 = PLANE('',#1511);
#1511 = AXIS2_PLACEMENT_3D('',#1512,#1513,#1514);
#1512 = CARTESIAN_POINT('',(-53.,-21.,124.));
#1513 = DIRECTION('',(0.,-1.,0.));
#1514 = DIRECTION('',(1.,0.,0.));
#1515 = ADVANCED_FACE('',(#1516),#1527,.F.);
#1516 = FACE_BOUND('',#1517,.F.);
#1517 = EDGE_LOOP('',(#1518,#1524,#1525,#1526));
#1518 = ORIENTED_EDGE('',*,*,#1519,.T.);
#1519 = EDGE_CURVE('',#514,#1210,#1520,.T.);
#1520 = LINE('',#1521,#1522);
#1521 = CARTESIAN_POINT('',(-53.,-9.,124.));
#1522 = VECTOR('',#1523,1.);
#1523 = DIRECTION('',(0.,0.,-1.));
#1524 = ORIENTED_EDGE('',*,*,#1217,.T.);
#1525 = ORIENTED_EDGE('',*,*,#1497,.F.);
#1526 = ORIENTED_EDGE('',*,*,#521,.F.);
#1527 = PLANE('',#1528);
#1528 = AXIS2_PLACEMENT_3D('',#1529,#1530,#1531);
#1529 = CARTESIAN_POINT('',(-53.,-9.,124.));
#1530 = DIRECTION('',(-1.,-0.,0.));
#1531 = DIRECTION('',(0.,-1.,0.));
#1532 = ADVANCED_FACE('',(#1533),#1544,.F.);
#1533 = FACE_BOUND('',#1534,.F.);
#1534 = EDGE_LOOP('',(#1535,#1541,#1542,#1543));
#1535 = ORIENTED_EDGE('',*,*,#1536,.T.);
#1536 = EDGE_CURVE('',#506,#1202,#1537,.T.);
#1537 = LINE('',#1538,#1539);
#1538 = CARTESIAN_POINT('',(-35.,-9.,124.));
#1539 = VECTOR('',#1540,1.);
#1540 = DIRECTION('',(0.,0.,-1.));
#1541 = ORIENTED_EDGE('',*,*,#1209,.T.);
#1542 = ORIENTED_EDGE('',*,*,#1519,.F.);
#1543 = ORIENTED_EDGE('',*,*,#513,.F.);
#1544 = PLANE('',#1545);
#1545 = AXIS2_PLACEMENT_3D('',#1546,#1547,#1548);
#1546 = CARTESIAN_POINT('',(-35.,-9.,124.));
#1547 = DIRECTION('',(-0.,1.,0.));
#1548 = DIRECTION('',(-1.,-0.,0.));
#1549 = ADVANCED_FACE('',(#1550),#1556,.F.);
#1550 = FACE_BOUND('',#1551,.F.);
#1551 = EDGE_LOOP('',(#1552,#1553,#1554,#1555));
#1552 = ORIENTED_EDGE('',*,*,#1504,.T.);
#1553 = ORIENTED_EDGE('',*,*,#1201,.T.);
#1554 = ORIENTED_EDGE('',*,*,#1536,.F.);
#1555 = ORIENTED_EDGE('',*,*,#505,.F.);
#1556 = PLANE('',#1557);
#1557 = AXIS2_PLACEMENT_3D('',#1558,#1559,#1560);
#1558 = CARTESIAN_POINT('',(-35.,-21.,124.));
#1559 = DIRECTION('',(1.,0.,0.));
#1560 = DIRECTION('',(-0.,1.,0.));
#1561 = ADVANCED_FACE('',(#1562,#1570),#1581,.T.);
#1562 = FACE_BOUND('',#1563,.T.);
#1563 = EDGE_LOOP('',(#1564,#1565,#1566,#1567,#1568,#1569));
#1564 = ORIENTED_EDGE('',*,*,#543,.T.);
#1565 = ORIENTED_EDGE('',*,*,#567,.T.);
#1566 = ORIENTED_EDGE('',*,*,#591,.T.);
#1567 = ORIENTED_EDGE('',*,*,#615,.T.);
#1568 = ORIENTED_EDGE('',*,*,#639,.T.);
#1569 = ORIENTED_EDGE('',*,*,#663,.T.);
#1570 = FACE_BOUND('',#1571,.T.);
#1571 = EDGE_LOOP('',(#1572));
#1572 = ORIENTED_EDGE('',*,*,#1573,.T.);
#1573 = EDGE_CURVE('',#1574,#1574,#1576,.T.);
#1574 = VERTEX_POINT('',#1575);
#1575 = CARTESIAN_POINT('',(-50.25,-2.,9.25));
#1576 = CIRCLE('',#1577,2.25);
#1577 = AXIS2_PLACEMENT_3D('',#1578,#1579,#1580);
#1578 = CARTESIAN_POINT('',(-52.5,-2.,9.25));
#1579 = DIRECTION('',(0.,-1.,2.2E-16));
#1580 = DIRECTION('',(1.,0.,0.));
#1581 = PLANE('',#1582);
#1582 = AXIS2_PLACEMENT_3D('',#1583,#1584,#1585);
#1583 = CARTESIAN_POINT('',(3.56E-15,-2.,61.75));
#1584 = DIRECTION('',(0.,1.,2.2E-16));
#1585 = DIRECTION('',(0.,-2.2E-16,1.));
#1586 = ADVANCED_FACE('',(#1587,#1595),#1606,.T.);
#1587 = FACE_BOUND('',#1588,.T.);
#1588 = EDGE_LOOP('',(#1589,#1590,#1591,#1592,#1593,#1594));
#1589 = ORIENTED_EDGE('',*,*,#687,.T.);
#1590 = ORIENTED_EDGE('',*,*,#711,.T.);
#1591 = ORIENTED_EDGE('',*,*,#735,.T.);
#1592 = ORIENTED_EDGE('',*,*,#759,.T.);
#1593 = ORIENTED_EDGE('',*,*,#783,.T.);
#1594 = ORIENTED_EDGE('',*,*,#807,.T.);
#1595 = FACE_BOUND('',#1596,.T.);
#1596 = EDGE_LOOP('',(#1597));
#1597 = ORIENTED_EDGE('',*,*,#1598,.T.);
#1598 = EDGE_CURVE('',#1599,#1599,#1601,.T.);
#1599 = VERTEX_POINT('',#1600);
#1600 = CARTESIAN_POINT('',(-50.25,-2.,114.25));
#1601 = CIRCLE('',#1602,2.25);
#1602 = AXIS2_PLACEMENT_3D('',#1603,#1604,#1605);
#1603 = CARTESIAN_POINT('',(-52.5,-2.,114.25));
#1604 = DIRECTION('',(0.,-1.,2.2E-16));
#1605 = DIRECTION('',(1.,0.,0.));
#1606 = PLANE('',#1607);
#1607 = AXIS2_PLACEMENT_3D('',#1608,#1609,#1610);
#1608 = CARTESIAN_POINT('',(3.56E-15,-2.,61.75));
#1609 = DIRECTION('',(0.,1.,2.2E-16));
#1610 = DIRECTION('',(0.,-2.2E-16,1.));
#1611 = ADVANCED_FACE('',(#1612,#1620),#1631,.T.);
#1612 = FACE_BOUND('',#1613,.T.);
#1613 = EDGE_LOOP('',(#1614,#1615,#1616,#1617,#1618,#1619));
#1614 = ORIENTED_EDGE('',*,*,#831,.T.);
#1615 = ORIENTED_EDGE('',*,*,#855,.T.);
#1616 = ORIENTED_EDGE('',*,*,#879,.T.);
#1617 = ORIENTED_EDGE('',*,*,#903,.T.);
#1618 = ORIENTED_EDGE('',*,*,#927,.T.);
#1619 = ORIENTED_EDGE('',*,*,#951,.T.);
#1620 = FACE_BOUND('',#1621,.T.);
#1621 = EDGE_LOOP('',(#1622));
#1622 = ORIENTED_EDGE('',*,*,#1623,.T.);
#1623 = EDGE_CURVE('',#1624,#1624,#1626,.T.);
#1624 = VERTEX_POINT('',#1625);
#1625 = CARTESIAN_POINT('',(54.75,-2.,9.25));
#1626 = CIRCLE('',#1627,2.25);
#1627 = AXIS2_PLACEMENT_3D('',#1628,#1629,#1630);
#1628 = CARTESIAN_POINT('',(52.5,-2.,9.25));
#1629 = DIRECTION('',(0.,-1.,2.2E-16));
#1630 = DIRECTION('',(1.,0.,0.));
#1631 = PLANE('',#1632);
#1632 = AXIS2_PLACEMENT_3D('',#1633,#1634,#1635);
#1633 = CARTESIAN_POINT('',(3.56E-15,-2.,61.75));
#1634 = DIRECTION('',(0.,1.,2.2E-16));
#1635 = DIRECTION('',(0.,-2.2E-16,1.));
#1636 = ADVANCED_FACE('',(#1637,#1643),#1654,.F.);
#1637 = FACE_BOUND('',#1638,.F.);
#1638 = EDGE_LOOP('',(#1639,#1640,#1641,#1642));
#1639 = ORIENTED_EDGE('',*,*,#1055,.F.);
#1640 = ORIENTED_EDGE('',*,*,#984,.F.);
#1641 = ORIENTED_EDGE('',*,*,#1183,.F.);
#1642 = ORIENTED_EDGE('',*,*,#1103,.T.);
#1643 = FACE_BOUND('',#1644,.F.);
#1644 = EDGE_LOOP('',(#1645));
#1645 = ORIENTED_EDGE('',*,*,#1646,.T.);
#1646 = EDGE_CURVE('',#1647,#1647,#1649,.T.);
#1647 = VERTEX_POINT('',#1648);
#1648 = CARTESIAN_POINT('',(-50.25,-6.,114.25));
#1649 = CIRCLE('',#1650,2.25);
#1650 = AXIS2_PLACEMENT_3D('',#1651,#1652,#1653);
#1651 = CARTESIAN_POINT('',(-52.5,-6.,114.25));
#1652 = DIRECTION('',(0.,-1.,-2.2E-16));
#1653 = DIRECTION('',(1.,0.,0.));
#1654 = PLANE('',#1655);
#1655 = AXIS2_PLACEMENT_3D('',#1656,#1657,#1658);
#1656 = CARTESIAN_POINT('',(0.,-6.,62.));
#1657 = DIRECTION('',(0.,1.,-1.E-17));
#1658 = DIRECTION('',(0.,1.E-17,1.));
#1659 = ADVANCED_FACE('',(#1660,#1666),#1677,.F.);
#1660 = FACE_BOUND('',#1661,.F.);
#1661 = EDGE_LOOP('',(#1662,#1663,#1664,#1665));
#1662 = ORIENTED_EDGE('',*,*,#1127,.F.);
#1663 = ORIENTED_EDGE('',*,*,#1007,.F.);
#1664 = ORIENTED_EDGE('',*,*,#1031,.T.);
#1665 = ORIENTED_EDGE('',*,*,#1079,.T.);
#1666 = FACE_BOUND('',#1667,.F.);
#1667 = EDGE_LOOP('',(#1668));
#1668 = ORIENTED_EDGE('',*,*,#1669,.T.);
#1669 = EDGE_CURVE('',#1670,#1670,#1672,.T.);
#1670 = VERTEX_POINT('',#1671);
#1671 = CARTESIAN_POINT('',(-50.25,-6.,9.25));
#1672 = CIRCLE('',#1673,2.25);
#1673 = AXIS2_PLACEMENT_3D('',#1674,#1675,#1676);
#1674 = CARTESIAN_POINT('',(-52.5,-6.,9.25));
#1675 = DIRECTION('',(0.,-1.,-2.2E-16));
#1676 = DIRECTION('',(1.,0.,0.));
#1677 = PLANE('',#1678);
#1678 = AXIS2_PLACEMENT_3D('',#1679,#1680,#1681);
#1679 = CARTESIAN_POINT('',(0.,-6.,62.));
#1680 = DIRECTION('',(0.,1.,-1.E-17));
#1681 = DIRECTION('',(0.,1.E-17,1.));
#1682 = ADVANCED_FACE('',(#1683,#1689),#1700,.F.);
#1683 = FACE_BOUND('',#1684,.F.);
#1684 = EDGE_LOOP('',(#1685,#1686,#1687,#1688));
#1685 = ORIENTED_EDGE('',*,*,#1143,.F.);
#1686 = ORIENTED_EDGE('',*,*,#1241,.F.);
#1687 = ORIENTED_EDGE('',*,*,#1289,.F.);
#1688 = ORIENTED_EDGE('',*,*,#1330,.F.);
#1689 = FACE_BOUND('',#1690,.F.);
#1690 = EDGE_LOOP('',(#1691));
#1691 = ORIENTED_EDGE('',*,*,#1692,.T.);
#1692 = EDGE_CURVE('',#1693,#1693,#1695,.T.);
#1693 = VERTEX_POINT('',#1694);
#1694 = CARTESIAN_POINT('',(54.75,-6.,9.25));
#1695 = CIRCLE('',#1696,2.25);
#1696 = AXIS2_PLACEMENT_3D('',#1697,#1698,#1699);
#1697 = CARTESIAN_POINT('',(52.5,-6.,9.25));
#1698 = DIRECTION('',(0.,-1.,-2.2E-16));
#1699 = DIRECTION('',(1.,0.,0.));
#1700 = PLANE('',#1701);
#1701 = AXIS2_PLACEMENT_3D('',#1702,#1703,#1704);
#1702 = CARTESIAN_POINT('',(0.,-6.,62.));
#1703 = DIRECTION('',(0.,1.,-1.E-17));
#1704 = DIRECTION('',(0.,1.E-17,1.));
#1705 = ADVANCED_FACE('',(#1706,#1712),#1723,.F.);
#1706 = FACE_BOUND('',#1707,.F.);
#1707 = EDGE_LOOP('',(#1708,#1709,#1710,#1711));
#1708 = ORIENTED_EDGE('',*,*,#1339,.F.);
#1709 = ORIENTED_EDGE('',*,*,#1313,.F.);
#1710 = ORIENTED_EDGE('',*,*,#1265,.F.);
#1711 = ORIENTED_EDGE('',*,*,#1167,.F.);
#1712 = FACE_BOUND('',#1713,.F.);
#1713 = EDGE_LOOP('',(#1714));
#1714 = ORIENTED_EDGE('',*,*,#1715,.T.);
#1715 = EDGE_CURVE('',#1716,#1716,#1718,.T.);
#1716 = VERTEX_POINT('',#1717);
#1717 = CARTESIAN_POINT('',(54.75,-6.,114.25));
#1718 = CIRCLE('',#1719,2.25);
#1719 = AXIS2_PLACEMENT_3D('',#1720,#1721,#1722);
#1720 = CARTESIAN_POINT('',(52.5,-6.,114.25));
#1721 = DIRECTION('',(0.,-1.,-2.2E-16));
#1722 = DIRECTION('',(1.,0.,0.));
#1723 = PLANE('',#1724);
#1724 = AXIS2_PLACEMENT_3D('',#1725,#1726,#1727);
#1725 = CARTESIAN_POINT('',(0.,-6.,62.));
#1726 = DIRECTION('',(0.,1.,-1.E-17));
#1727 = DIRECTION('',(0.,1.E-17,1.));
#1728 = ADVANCED_FACE('',(#1729,#1737),#1748,.T.);
#1729 = FACE_BOUND('',#1730,.T.);
#1730 = EDGE_LOOP('',(#1731,#1732,#1733,#1734,#1735,#1736));
#1731 = ORIENTED_EDGE('',*,*,#1361,.T.);
#1732 = ORIENTED_EDGE('',*,*,#1385,.T.);
#1733 = ORIENTED_EDGE('',*,*,#1409,.T.);
#1734 = ORIENTED_EDGE('',*,*,#1433,.T.);
#1735 = ORIENTED_EDGE('',*,*,#1457,.T.);
#1736 = ORIENTED_EDGE('',*,*,#1481,.T.);
#1737 = FACE_BOUND('',#1738,.T.);
#1738 = EDGE_LOOP('',(#1739));
#1739 = ORIENTED_EDGE('',*,*,#1740,.T.);
#1740 = EDGE_CURVE('',#1741,#1741,#1743,.T.);
#1741 = VERTEX_POINT('',#1742);
#1742 = CARTESIAN_POINT('',(54.75,-2.,114.25));
#1743 = CIRCLE('',#1744,2.25);
#1744 = AXIS2_PLACEMENT_3D('',#1745,#1746,#1747);
#1745 = CARTESIAN_POINT('',(52.5,-2.,114.25));
#1746 = DIRECTION('',(0.,-1.,2.2E-16));
#1747 = DIRECTION('',(1.,0.,0.));
#1748 = PLANE('',#1749);
#1749 = AXIS2_PLACEMENT_3D('',#1750,#1751,#1752);
#1750 = CARTESIAN_POINT('',(3.56E-15,-2.,61.75));
#1751 = DIRECTION('',(0.,1.,2.2E-16));
#1752 = DIRECTION('',(0.,-2.2E-16,1.));
#1753 = ADVANCED_FACE('',(#1754),#1765,.F.);
#1754 = FACE_BOUND('',#1755,.F.);
#1755 = EDGE_LOOP('',(#1756,#1757,#1763,#1764));
#1756 = ORIENTED_EDGE('',*,*,#1669,.F.);
#1757 = ORIENTED_EDGE('',*,*,#1758,.T.);
#1758 = EDGE_CURVE('',#1670,#1574,#1759,.T.);
#1759 = LINE('',#1760,#1761);
#1760 = CARTESIAN_POINT('',(-50.25,-6.,9.25));
#1761 = VECTOR('',#1762,1.);
#1762 = DIRECTION('',(0.,1.,-2.2E-16));
#1763 = ORIENTED_EDGE('',*,*,#1573,.T.);
#1764 = ORIENTED_EDGE('',*,*,#1758,.F.);
#1765 = CYLINDRICAL_SURFACE('',#1766,2.25);
#1766 = AXIS2_PLACEMENT_3D('',#1767,#1768,#1769);
#1767 = CARTESIAN_POINT('',(-52.5,-6.,9.25));
#1768 = DIRECTION('',(0.,-1.,2.2E-16));
#1769 = DIRECTION('',(1.,0.,0.));
#1770 = ADVANCED_FACE('',(#1771),#1782,.F.);
#1771 = FACE_BOUND('',#1772,.F.);
#1772 = EDGE_LOOP('',(#1773,#1774,#1780,#1781));
#1773 = ORIENTED_EDGE('',*,*,#1646,.F.);
#1774 = ORIENTED_EDGE('',*,*,#1775,.T.);
#1775 = EDGE_CURVE('',#1647,#1599,#1776,.T.);
#1776 = LINE('',#1777,#1778);
#1777 = CARTESIAN_POINT('',(-50.25,-6.,114.25));
#1778 = VECTOR('',#1779,1.);
#1779 = DIRECTION('',(0.,1.,-2.2E-16));
#1780 = ORIENTED_EDGE('',*,*,#1598,.T.);
#1781 = ORIENTED_EDGE('',*,*,#1775,.F.);
#1782 = CYLINDRICAL_SURFACE('',#1783,2.25);
#1783 = AXIS2_PLACEMENT_3D('',#1784,#1785,#1786);
#1784 = CARTESIAN_POINT('',(-52.5,-6.,114.25));
#1785 = DIRECTION('',(0.,-1.,2.2E-16));
#1786 = DIRECTION('',(1.,0.,0.));
#1787 = ADVANCED_FACE('',(#1788),#1799,.F.);
#1788 = FACE_BOUND('',#1789,.F.);
#1789 = EDGE_LOOP('',(#1790,#1791,#1797,#1798));
#1790 = ORIENTED_EDGE('',*,*,#1692,.F.);
#1791 = ORIENTED_EDGE('',*,*,#1792,.T.);
#1792 = EDGE_CURVE('',#1693,#1624,#1793,.T.);
#1793 = LINE('',#1794,#1795);
#1794 = CARTESIAN_POINT('',(54.75,-6.,9.25));
#1795 = VECTOR('',#1796,1.);
#1796 = DIRECTION('',(0.,1.,-2.2E-16));
#1797 = ORIENTED_EDGE('',*,*,#1623,.T.);
#1798 = ORIENTED_EDGE('',*,*,#1792,.F.);
#1799 = CYLINDRICAL_SURFACE('',#1800,2.25);
#1800 = AXIS2_PLACEMENT_3D('',#1801,#1802,#1803);
#1801 = CARTESIAN_POINT('',(52.5,-6.,9.25));
#1802 = DIRECTION('',(0.,-1.,2.2E-16));
#1803 = DIRECTION('',(1.,0.,0.));
#1804 = ADVANCED_FACE('',(#1805),#1816,.F.);
#1805 = FACE_BOUND('',#1806,.F.);
#1806 = EDGE_LOOP('',(#1807,#1808,#1814,#1815));
#1807 = ORIENTED_EDGE('',*,*,#1715,.F.);
#1808 = ORIENTED_EDGE('',*,*,#1809,.T.);
#1809 = EDGE_CURVE('',#1716,#1741,#1810,.T.);
#1810 = LINE('',#1811,#1812);
#1811 = CARTESIAN_POINT('',(54.75,-6.,114.25));
#1812 = VECTOR('',#1813,1.);
#1813 = DIRECTION('',(0.,1.,-2.2E-16));
#1814 = ORIENTED_EDGE('',*,*,#1740,.T.);
#1815 = ORIENTED_EDGE('',*,*,#1809,.F.);
#1816 = CYLINDRICAL_SURFACE('',#1817,2.25);
#1817 = AXIS2_PLACEMENT_3D('',#1818,#1819,#1820);
#1818 = CARTESIAN_POINT('',(52.5,-6.,114.25));
#1819 = DIRECTION('',(0.,-1.,2.2E-16));
#1820 = DIRECTION('',(1.,0.,0.));
#1821 = ( GEOMETRIC_REPRESENTATION_CONTEXT(3) 
GLOBAL_UNCERTAINTY_ASSIGNED_CONTEXT((#1825)) 
GLOBAL_UNIT_ASSIGNED_CONTEXT((#1822,#1823,#1824)) REPRESENTATION_CONTEXT
('Context #1','3D Context with UNIT and UNCERTAINTY') );
#1822 = ( LENGTH_UNIT() NAMED_UNIT(*) SI_UNIT(.MILLI.,.METRE.) );
#1823 = ( NAMED_UNIT(*) PLANE_ANGLE_UNIT() SI_UNIT($,.RADIAN.) );
#1824 = ( NAMED_UNIT(*) SI_UNIT($,.STERADIAN.) SOLID_ANGLE_UNIT() );
#1825 = UNCERTAINTY_MEASURE_WITH_UNIT(LENGTH_MEASURE(1.E-07),#1822,
  'distance_accuracy_value','confusion accuracy');
#1826 = PRODUCT_RELATED_PRODUCT_CATEGORY('part',$,(#7));
#1827 = MECHANICAL_DESIGN_GEOMETRIC_PRESENTATION_REPRESENTATION('',(
    #1828),#1821);
#1828 = STYLED_ITEM('color',(#1829),#15);
#1829 = PRESENTATION_STYLE_ASSIGNMENT((#1830,#1836));
#1830 = SURFACE_STYLE_USAGE(.BOTH.,#1831);
#1831 = SURFACE_SIDE_STYLE('',(#1832));
#1832 = SURFACE_STYLE_FILL_AREA(#1833);
#1833 = FILL_AREA_STYLE('',(#1834));
#1834 = FILL_AREA_STYLE_COLOUR('',#1835);
#1835 = COLOUR_RGB('',0.447058818107,0.474509808674,0.501960817233);
#1836 = CURVE_STYLE('',#1837,POSITIVE_LENGTH_MEASURE(0.1),#1838);
#1837 = DRAUGHTING_PRE_DEFINED_CURVE_FONT('continuous');
#1838 = COLOUR_RGB('',9.803921802644E-02,9.803921802644E-02,
  9.803921802644E-02);
ENDSEC;
END-ISO-10303-21;
