999
"DXF R12 Output" (www.mydxf.blogspot.com)
 0 
SECTION
 2 
HEADER
 9 
$ACADVER
 1 
AC1009
 9 
$EXTMIN
 10 
 0 
 20 
 0 
 9 
$EXTMAX
 10 
 8.5 
 20 
 11 
 0 
ENDSEC
 0 
SECTION
 2 
ENTITIES
0
POLYLINE
8
Shape2DView
62
7
70
0
10
0.000000
20
0.000000
66
1
0
VERTEX
8
Shape2DView
10
40.225337
20
247.075344
70
0
0
VERTEX
8
Shape2DView
10
160.225091
20
247.075344
70
0
0
SEQEND
8
Shape2DView
0
POLYLINE
8
Shape2DView
62
7
70
0
10
0.000000
20
0.000000
66
1
0
VERTEX
8
Shape2DView
10
160.225091
20
247.075344
70
0
0
VERTEX
8
Shape2DView
10
160.225091
20
166.076169
70
0
0
SEQEND
8
Shape2DView
0
POLYLINE
8
Shape2DView
62
7
70
0
10
0.000000
20
0.000000
66
1
0
VERTEX
8
Shape2DView
10
160.225091
20
166.076169
70
0
0
VERTEX
8
Shape2DView
10
172.225253
20
166.076169
70
0
0
SEQEND
8
Shape2DView
0
POLYLINE
8
Shape2DView
62
7
70
0
10
0.000000
20
0.000000
66
1
0
VERTEX
8
Shape2DView
10
172.225253
20
166.076169
70
0
0
VERTEX
8
Shape2DView
10
172.225253
20
112.074776
70
0
0
SEQEND
8
Shape2DView
0
POLYLINE
8
Shape2DView
62
7
70
0
10
0.000000
20
0.000000
66
1
0
VERTEX
8
Shape2DView
10
172.225253
20
112.074776
70
0
0
VERTEX
8
Shape2DView
10
40.225337
20
112.074776
70
0
0
SEQEND
8
Shape2DView
0
POLYLINE
8
Shape2DView
62
7
70
0
10
0.000000
20
0.000000
66
1
0
VERTEX
8
Shape2DView
10
40.225337
20
112.074776
70
0
0
VERTEX
8
Shape2DView
10
40.225337
20
247.075344
70
0
0
SEQEND
8
Shape2DView
0
POLYLINE
8
Shape2DView
62
7
70
0
10
0.000000
20
0.000000
66
1
0
VERTEX
8
Shape2DView
10
55.475319
20
124.075576
70
0
0
VERTEX
8
Shape2DView
10
55.298059
20
124.950881
70
0
0
VERTEX
8
Shape2DView
10
54.815765
20
125.665566
70
0
0
VERTEX
8
Shape2DView
10
54.100748
20
126.147370
70
0
0
VERTEX
8
Shape2DView
10
53.225322
20
126.324030
70
0
0
VERTEX
8
Shape2DView
10
52.349896
20
126.147370
70
0
0
VERTEX
8
Shape2DView
10
51.634879
20
125.665566
70
0
0
VERTEX
8
Shape2DView
10
51.152585
20
124.950881
70
0
0
VERTEX
8
Shape2DView
10
50.975325
20
124.075576
70
0
0
VERTEX
8
Shape2DView
10
51.152585
20
123.200271
70
0
0
VERTEX
8
Shape2DView
10
51.634879
20
122.485585
70
0
0
VERTEX
8
Shape2DView
10
52.349896
20
122.003781
70
0
0
VERTEX
8
Shape2DView
10
53.225322
20
121.827122
70
0
0
VERTEX
8
Shape2DView
10
54.100748
20
122.003781
70
0
0
VERTEX
8
Shape2DView
10
54.815765
20
122.485585
70
0
0
VERTEX
8
Shape2DView
10
55.298059
20
123.200271
70
0
0
VERTEX
8
Shape2DView
10
55.475319
20
124.075576
70
0
0
VERTEX
8
Shape2DView
10
55.475319
20
124.075576
70
0
0
SEQEND
8
Shape2DView
0
POLYLINE
8
Shape2DView
62
7
70
0
10
0.000000
20
0.000000
66
1
0
VERTEX
8
Shape2DView
10
55.475319
20
154.075536
70
0
0
VERTEX
8
Shape2DView
10
55.298059
20
154.950841
70
0
0
VERTEX
8
Shape2DView
10
54.815765
20
155.665527
70
0
0
VERTEX
8
Shape2DView
10
54.100748
20
156.147331
70
0
0
VERTEX
8
Shape2DView
10
53.225322
20
156.323990
70
0
0
VERTEX
8
Shape2DView
10
52.349896
20
156.147331
70
0
0
VERTEX
8
Shape2DView
10
51.634879
20
155.665527
70
0
0
VERTEX
8
Shape2DView
10
51.152585
20
154.950841
70
0
0
VERTEX
8
Shape2DView
10
50.975325
20
154.075536
70
0
0
VERTEX
8
Shape2DView
10
51.152585
20
153.200231
70
0
0
VERTEX
8
Shape2DView
10
51.634879
20
152.485546
70
0
0
VERTEX
8
Shape2DView
10
52.349896
20
152.003742
70
0
0
VERTEX
8
Shape2DView
10
53.225322
20
151.827082
70
0
0
VERTEX
8
Shape2DView
10
54.100748
20
152.003742
70
0
0
VERTEX
8
Shape2DView
10
54.815765
20
152.485546
70
0
0
VERTEX
8
Shape2DView
10
55.298059
20
153.200231
70
0
0
VERTEX
8
Shape2DView
10
55.475319
20
154.075536
70
0
0
VERTEX
8
Shape2DView
10
55.475319
20
154.075536
70
0
0
SEQEND
8
Shape2DView
0
POLYLINE
8
Shape2DView
62
7
70
0
10
0.000000
20
0.000000
66
1
0
VERTEX
8
Shape2DView
10
145.475205
20
124.075576
70
0
0
VERTEX
8
Shape2DView
10
145.297945
20
124.950881
70
0
0
VERTEX
8
Shape2DView
10
144.815651
20
125.665566
70
0
0
VERTEX
8
Shape2DView
10
144.100635
20
126.147370
70
0
0
VERTEX
8
Shape2DView
10
143.225209
20
126.324030
70
0
0
VERTEX
8
Shape2DView
10
142.349782
20
126.147370
70
0
0
VERTEX
8
Shape2DView
10
141.634766
20
125.665566
70
0
0
VERTEX
8
Shape2DView
10
141.152472
20
124.950881
70
0
0
VERTEX
8
Shape2DView
10
140.975212
20
124.075576
70
0
0
VERTEX
8
Shape2DView
10
141.152472
20
123.200271
70
0
0
VERTEX
8
Shape2DView
10
141.634766
20
122.485585
70
0
0
VERTEX
8
Shape2DView
10
142.349782
20
122.003781
70
0
0
VERTEX
8
Shape2DView
10
143.225209
20
121.827122
70
0
0
VERTEX
8
Shape2DView
10
144.100635
20
122.003781
70
0
0
VERTEX
8
Shape2DView
10
144.815651
20
122.485585
70
0
0
VERTEX
8
Shape2DView
10
145.297945
20
123.200271
70
0
0
VERTEX
8
Shape2DView
10
145.475205
20
124.075576
70
0
0
VERTEX
8
Shape2DView
10
145.475205
20
124.075576
70
0
0
SEQEND
8
Shape2DView
0
POLYLINE
8
Shape2DView
62
7
70
0
10
0.000000
20
0.000000
66
1
0
VERTEX
8
Shape2DView
10
55.475319
20
184.075499
70
0
0
VERTEX
8
Shape2DView
10
55.298059
20
184.950804
70
0
0
VERTEX
8
Shape2DView
10
54.815765
20
185.665490
70
0
0
VERTEX
8
Shape2DView
10
54.100748
20
186.147294
70
0
0
VERTEX
8
Shape2DView
10
53.225322
20
186.323953
70
0
0
VERTEX
8
Shape2DView
10
52.349896
20
186.147294
70
0
0
VERTEX
8
Shape2DView
10
51.634879
20
185.665490
70
0
0
VERTEX
8
Shape2DView
10
51.152585
20
184.950804
70
0
0
VERTEX
8
Shape2DView
10
50.975325
20
184.075499
70
0
0
VERTEX
8
Shape2DView
10
51.152585
20
183.200194
70
0
0
VERTEX
8
Shape2DView
10
51.634879
20
182.485509
70
0
0
VERTEX
8
Shape2DView
10
52.349896
20
182.003705
70
0
0
VERTEX
8
Shape2DView
10
53.225322
20
181.827045
70
0
0
VERTEX
8
Shape2DView
10
54.100748
20
182.003705
70
0
0
VERTEX
8
Shape2DView
10
54.815765
20
182.485509
70
0
0
VERTEX
8
Shape2DView
10
55.298059
20
183.200194
70
0
0
VERTEX
8
Shape2DView
10
55.475319
20
184.075499
70
0
0
VERTEX
8
Shape2DView
10
55.475319
20
184.075499
70
0
0
SEQEND
8
Shape2DView
0
POLYLINE
8
Shape2DView
62
7
70
0
10
0.000000
20
0.000000
66
1
0
VERTEX
8
Shape2DView
10
145.475205
20
154.075536
70
0
0
VERTEX
8
Shape2DView
10
145.297945
20
154.950841
70
0
0
VERTEX
8
Shape2DView
10
144.815651
20
155.665527
70
0
0
VERTEX
8
Shape2DView
10
144.100635
20
156.147331
70
0
0
VERTEX
8
Shape2DView
10
143.225209
20
156.323990
70
0
0
VERTEX
8
Shape2DView
10
142.349782
20
156.147331
70
0
0
VERTEX
8
Shape2DView
10
141.634766
20
155.665527
70
0
0
VERTEX
8
Shape2DView
10
141.152472
20
154.950841
70
0
0
VERTEX
8
Shape2DView
10
140.975212
20
154.075536
70
0
0
VERTEX
8
Shape2DView
10
141.152472
20
153.200231
70
0
0
VERTEX
8
Shape2DView
10
141.634766
20
152.485546
70
0
0
VERTEX
8
Shape2DView
10
142.349782
20
152.003742
70
0
0
VERTEX
8
Shape2DView
10
143.225209
20
151.827082
70
0
0
VERTEX
8
Shape2DView
10
144.100635
20
152.003742
70
0
0
VERTEX
8
Shape2DView
10
144.815651
20
152.485546
70
0
0
VERTEX
8
Shape2DView
10
145.297945
20
153.200231
70
0
0
VERTEX
8
Shape2DView
10
145.475205
20
154.075536
70
0
0
VERTEX
8
Shape2DView
10
145.475205
20
154.075536
70
0
0
SEQEND
8
Shape2DView
0
POLYLINE
8
Shape2DView
62
7
70
0
10
0.000000
20
0.000000
66
1
0
VERTEX
8
Shape2DView
10
145.475205
20
184.075499
70
0
0
VERTEX
8
Shape2DView
10
145.297945
20
184.950804
70
0
0
VERTEX
8
Shape2DView
10
144.815651
20
185.665490
70
0
0
VERTEX
8
Shape2DView
10
144.100635
20
186.147294
70
0
0
VERTEX
8
Shape2DView
10
143.225209
20
186.323953
70
0
0
VERTEX
8
Shape2DView
10
142.349782
20
186.147294
70
0
0
VERTEX
8
Shape2DView
10
141.634766
20
185.665490
70
0
0
VERTEX
8
Shape2DView
10
141.152472
20
184.950804
70
0
0
VERTEX
8
Shape2DView
10
140.975212
20
184.075499
70
0
0
VERTEX
8
Shape2DView
10
141.152472
20
183.200194
70
0
0
VERTEX
8
Shape2DView
10
141.634766
20
182.485509
70
0
0
VERTEX
8
Shape2DView
10
142.349782
20
182.003705
70
0
0
VERTEX
8
Shape2DView
10
143.225209
20
181.827045
70
0
0
VERTEX
8
Shape2DView
10
144.100635
20
182.003705
70
0
0
VERTEX
8
Shape2DView
10
144.815651
20
182.485509
70
0
0
VERTEX
8
Shape2DView
10
145.297945
20
183.200194
70
0
0
VERTEX
8
Shape2DView
10
145.475205
20
184.075499
70
0
0
VERTEX
8
Shape2DView
10
145.475205
20
184.075499
70
0
0
SEQEND
8
Shape2DView
 0 
ENDSEC
 0 
EOF